<svg width="33" height="32" viewBox="0 0 33 32" fill="none" xmlns="http://www.w3.org/2000/svg">
<path d="M30.5014 16.3114C30.5014 15.1603 30.4061 14.3203 30.1998 13.4492H16.7871V18.6447H24.6601C24.5014 19.9359 23.6442 21.8803 21.7394 23.1869L21.7127 23.3609L25.9536 26.5805L26.2474 26.6092C28.9458 24.167 30.5014 20.5736 30.5014 16.3114Z" fill="#4285F4"/>
<path d="M16.7863 30.0008C20.6434 30.0008 23.8814 28.7562 26.2466 26.6096L21.7386 23.1873C20.5323 24.0117 18.9132 24.5873 16.7863 24.5873C13.0086 24.5873 9.80225 22.1451 8.65929 18.7695L8.49176 18.7835L4.08208 22.128L4.02441 22.2851C6.37359 26.8584 11.199 30.0008 16.7863 30.0008Z" fill="#34A853"/>
<path d="M8.66013 18.768C8.35855 17.8969 8.18401 16.9635 8.18401 15.9991C8.18401 15.0346 8.35855 14.1013 8.64426 13.2302L8.63627 13.0447L4.17132 9.64648L4.02524 9.71458C3.05703 11.6124 2.50146 13.7435 2.50146 15.9991C2.50146 18.2546 3.05703 20.3857 4.02524 22.2835L8.66013 18.768Z" fill="#FBBC05"/>
<path d="M16.7864 7.4133C19.4689 7.4133 21.2784 8.54885 22.3102 9.4978L26.3419 5.64C23.8658 3.38445 20.6435 2 16.7864 2C11.199 2 6.3736 5.1422 4.02441 9.71549L8.64345 13.2311C9.80229 9.85555 13.0086 7.4133 16.7864 7.4133Z" fill="#EB4335"/>
</svg>
