<svg xmlns="http://www.w3.org/2000/svg" width="103" height="30" fill="none" xmlns:v="https://vecta.io/nano"><g clip-path="url(#A)"><path d="M47.762 23.991c-1.404-.076-2.451-.657-3.064-1.699-.411-.7-.536-1.62-.348-2.56.208-1.042.916-1.98 2.002-2.655.624-.388 1.158-.629 2.245-1.014l.525-.198c.022-.017.025-.079.014-.279a8.14 8.14 0 0 1 .223-2.095c.269-1.077.786-1.945 1.473-2.472.493-.379 1.139-.663 1.782-.785.355-.067.95-.067 1.284.001 1.432.29 2.236 1.4 1.92 2.651-.067.264-.277.696-.456.935-.457.613-1.144 1.158-2.115 1.676l-.887.439-.691.346c-.02.02-.015.08.024.281a7.74 7.74 0 0 0 1.011 2.593l.528.811c.047.029.241-.285.367-.596.156-.385.245-.894.201-1.146-.032-.181-.13-.372-.255-.496-.058-.057-.105-.111-.105-.12s.487-.014 1.083-.011l1.084.006-.006.138c-.008.189-.078.592-.152.878-.207.806-.598 1.495-1.273 2.248-.08.089-.145.176-.145.194s.112.141.248.274c.853.832 2.364 1.79 3.595 2.281.12.048.217.096.217.108s-.711.023-2.076.027l-2.075.005-.118-.067c-.241-.136-.775-.57-1.288-1.047-.109-.101-.212-.183-.228-.183s-.138.07-.268.157c-.666.442-1.463.839-2.136 1.065-.766.257-1.398.348-2.138.308zm1.747-1.808c.311-.056.692-.169 1.043-.31s.79-.358.806-.399c.006-.016-.075-.152-.179-.302-.483-.692-.998-1.665-1.345-2.537-.128-.322-.366-1.034-.412-1.229-.014-.062-.041-.119-.058-.125-.048-.019-.445.194-.787.422-1.217.811-1.801 1.802-1.671 2.837.058.46.202.795.466 1.079.487.523 1.249.725 2.138.565zm2.066-7.197c.451-.265 1.165-.909 1.565-1.41.512-.641.784-1.238.784-1.723 0-.277-.039-.401-.167-.53s-.27-.18-.489-.18c-.649 0-1.351.774-1.656 1.828-.154.531-.192.817-.193 1.466-.001.496.007.606.044.606.008 0 .058-.026.111-.057zm10.731 8.993c-1.069-.108-1.774-.269-2.569-.585-1.082-.431-1.757-.965-2.327-1.84-.171-.262-.445-.812-.555-1.116-.495-1.354-.603-3.058-.309-4.836.299-1.799.978-3.534 1.916-4.89.608-.879 1.514-1.805 2.448-2.504 1.543-1.154 3.32-1.864 5.293-2.113A10.94 10.94 0 0 1 67.846 6c1.07.001 1.884.083 2.96.297.686.137 1.779.434 1.8.489a51.99 51.99 0 0 1-.711 2.29c-.009.009-.115-.062-.236-.159-.973-.78-1.981-1.255-3.001-1.412a5.27 5.27 0 0 0-1.257-.001c-1.429.223-2.755 1.141-3.931 2.724-.382.514-.803 1.204-1.131 1.851-.444.877-.749 1.652-1.057 2.689-.983 3.298-1.033 5.603-.148 6.85.364.514.897.841 1.573.967.388.072 1.33.028 1.424-.066.015-.015.475-1.461 1.021-3.214l1.006-3.367c.014-.219-.027-.415-.125-.604-.089-.171-.324-.404-.518-.512-.084-.047-.152-.092-.153-.101s1.507-.016 3.35-.016l3.35.016c0 .009-.082.054-.181.099-.522.24-.9.599-1.125 1.07-.049.102-.47 1.419-1.104 3.447l-1.025 3.283-.296.143c-1.207.582-2.683 1.002-4.155 1.18a21.13 21.13 0 0 1-1.87.038h0zm-30.843-.24c-.007-.011.038-.049.099-.084.364-.211.773-.648.946-1.012.05-.105 4.647-14.825 4.748-15.205a1.51 1.51 0 0 0 .033-.312c.001-.321-.098-.552-.331-.775-.064-.061-.116-.119-.116-.13 0-.029 8.026-.027 8.394.003.797.064 1.595.277 2.205.588 1.042.533 1.666 1.341 1.857 2.407a5.57 5.57 0 0 1 .02 1.276 7.87 7.87 0 0 1-1.564 3.682c-1.294 1.618-3.41 2.653-6.007 2.938a15.57 15.57 0 0 1-2.595.057c-.212-.016-.39-.025-.396-.02a320.49 320.49 0 0 0-1.702 5.492c-.059.368.13.782.455.998.064.043.111.087.105.098a236.11 236.11 0 0 1-6.15 0h0zm9.11-7.94c.603-.107 1.136-.332 1.649-.696a6.08 6.08 0 0 0 .974-.978c.529-.716.918-1.561 1.232-2.675.2-.71.285-1.25.285-1.807 0-.429-.039-.686-.146-.974-.16-.427-.484-.764-.897-.932-.354-.144-.657-.182-1.384-.173l-.548.006-1.275 4.082-1.266 4.106c.005.013.093.036.195.05l.218.033c.08.02.79-.012.962-.042z" fill="#0a1727" fill-opacity=".8"/></g><defs><clipPath id="A"><path fill="#fff" transform="translate(31.463 6)" d="M0 0h41.143v18H0z"/></clipPath></defs></svg>