<svg xmlns="http://www.w3.org/2000/svg" width="94" height="30" fill="none" xmlns:v="https://vecta.io/nano"><path d="M.522 0h92.5v30H.522z"/><g clip-path="url(#A)"><path d="M73.953 23.572h2.974v-6.188c0-1.476.683-3.332 2.926-3.332 1.512 0 2.194.714 2.194 2.38v7.14h2.974V15.6c0-3.499-2.414-4.356-4.51-4.356-1.683 0-2.878.642-3.536 1.476h-.049V6.151h-2.974v17.421zm-.926-8.901c-.756-1.809-2.219-3.427-5.218-3.427-3.998 0-6.314 2.713-6.314 6.306s2.316 6.307 6.095 6.307c3.341 0 4.754-1.927 5.583-3.689l-2.536-1.308c-.463 1.095-1.219 2.332-2.998 2.332-2.073 0-3.024-1.76-3.024-3.642s1.073-3.641 3.194-3.641c1.17 0 2.219.738 2.609 1.928l2.608-1.166zm-21.642 1.332c.317-1.285 1.463-2.379 3.194-2.379 1.999 0 2.803 1.737 2.803 2.379h-5.997zm9.118 2.238c0-4.308-1.804-6.997-5.925-6.997-3.999 0-6.315 2.713-6.315 6.306s2.316 6.307 6.315 6.307c3.364 0 5.144-1.57 6.071-2.951l-2.511-1.428c-.293.404-1.22 1.713-3.56 1.713-1.609 0-3.145-1.166-3.194-2.951h9.118zM42.478 8.907v11.904c0 1.833.829 2.903 3.267 2.903.927 0 1.658-.143 2.366-.285v-2.38l-1.317.143c-1.146 0-1.341-.523-1.341-1.475v-6.093h2.658v-2.095h-2.658V6l-2.974 2.907zm-4.984 14.665h2.974V6.151h-2.974v17.421zm-5.104-4.307c0 1.547-1.779 2.213-3.17 2.213-1.073 0-1.926-.596-1.926-1.5 0-1.142.926-1.452 2.048-1.665l1.633-.334c.537-.095 1.025-.238 1.414-.429v1.714zm2.974-4.07c0-3.427-2.657-3.951-5.315-3.951-2.706 0-5.266 1.095-5.266 3.927l2.975.119c0-1.309.561-1.809 2.291-1.809 1.292 0 2.341.333 2.341 1.523v.357c-.756.262-2.146.5-3.219.714l-1.244.238c-1.828.357-3.755 1.405-3.755 3.761 0 2.332 1.853 3.784 4.194 3.784 1.536 0 2.877-.476 4.023-1.38 0 .309.097.809.292 1.095h3.145c-.17-.262-.463-.785-.463-2.023v-6.354zm-11.639-3.666c-.829-3.546-3.487-5.331-6.973-5.331-5.193 0-8.23 4.117-8.23 8.901S11.193 24 16.752 24c3.462 0 5.778-1.642 7.168-5.045l-2.974-1.333c-.634 1.976-1.926 3.427-4.194 3.427-3.462 0-4.901-2.998-4.901-5.95S13.29 9.15 16.752 9.15c1.975 0 3.56 1.285 3.828 3.165l3.145-.786z" fill="#0a1727" fill-opacity=".8"/></g><defs><clipPath id="A"><path fill="#fff" transform="translate(8.522 6)" d="M0 0h76.5v18H0z"/></clipPath></defs></svg>