<svg xmlns="http://www.w3.org/2000/svg" width="103" height="30" fill="none" xmlns:v="https://vecta.io/nano"><g clip-path="url(#A)" fill="#0a1727"><path d="M102.752 13.647v-1.801h-2.237v-2.8l-.075.023-2.101.643-.041.013v2.122h-3.316v-1.182c0-.55.123-.971.366-1.252s.585-.419 1.025-.419c.316 0 .643.074.972.221l.083.037V7.354l-.039-.014c-.307-.11-.724-.166-1.242-.166-.652 0-1.245.142-1.762.423a3.01 3.01 0 0 0-1.209 1.195c-.284.511-.428 1.101-.428 1.754v1.299h-1.557v1.801h1.557v7.588h2.236v-7.588H98.3v4.822c0 1.986.937 2.992 2.784 2.992.304 0 .623-.035.949-.105.332-.072.558-.143.692-.219l.029-.017v-1.818l-.091.06a1.56 1.56 0 0 1-.449.196c-.178.05-.327.075-.442.075-.433 0-.753-.117-.952-.347s-.302-.638-.302-1.206v-4.433h2.236zm-16.555 5.986c-.811 0-1.451-.269-1.902-.799s-.683-1.292-.683-2.257c0-.996.23-1.775.684-2.317s1.085-.812 1.884-.812c.775 0 1.392.261 1.834.776s.67 1.291.67 2.298c0 1.02-.212 1.803-.63 2.327s-1.04.784-1.856.784zm.099-8.013c-1.548 0-2.778.454-3.655 1.348s-1.32 2.133-1.32 3.681c0 1.47.434 2.652 1.289 3.514s2.019 1.298 3.459 1.298c1.501 0 2.706-.46 3.582-1.367s1.32-2.133 1.32-3.644c0-1.493-.417-2.684-1.238-3.54s-1.979-1.29-3.437-1.29zm-8.58 0c-1.053 0-1.924.269-2.59.8a2.55 2.55 0 0 0-1.009 2.083c0 .441.073.832.218 1.164a2.35 2.35 0 0 0 .668.873c.298.246.753.5 1.359.76l1.13.526c.236.137.403.274.498.409s.138.311.138.532c0 .631-.472.938-1.444.938-.361 0-.772-.075-1.222-.224a4.59 4.59 0 0 1-1.252-.635l-.093-.067v2.153l.034.016c.316.146.715.269 1.185.366s.895.146 1.266.146c1.143 0 2.063-.271 2.734-.805a2.6 2.6 0 0 0 1.018-2.133c0-.633-.184-1.175-.548-1.613s-.987-.833-1.861-1.185c-.696-.279-1.142-.511-1.326-.689-.177-.172-.267-.415-.267-.723 0-.273.111-.492.339-.669s.55-.269.951-.269c.373 0 .754.059 1.133.174s.711.27.989.459l.091.062v-2.042l-.035-.015c-.256-.11-.594-.204-1.004-.28a6.13 6.13 0 0 0-1.101-.114zm-9.427 8.013c-.811 0-1.451-.269-1.902-.799s-.683-1.292-.683-2.257c0-.996.23-1.775.684-2.317s1.084-.812 1.884-.812c.775 0 1.392.261 1.834.776s.67 1.291.67 2.298c0 1.02-.212 1.803-.63 2.327s-1.039.784-1.856.784zm.1-8.013c-1.549 0-2.778.454-3.654 1.348s-1.321 2.133-1.321 3.681c0 1.471.434 2.652 1.289 3.514s2.019 1.298 3.459 1.298c1.501 0 2.706-.46 3.582-1.367s1.32-2.133 1.32-3.644c0-1.493-.417-2.684-1.239-3.54s-1.979-1.29-3.437-1.29zm-8.369 1.852v-1.626h-2.208v9.388h2.208v-4.802c0-.817.185-1.488.551-1.994.361-.501.841-.754 1.428-.754a2.59 2.59 0 0 1 .664.098c.242.065.413.134.515.208l.093.067v-2.226l-.036-.015c-.206-.087-.497-.131-.865-.131a2.26 2.26 0 0 0-1.477.529c-.373.309-.643.732-.85 1.259h-.023zm-6.163-1.852c-1.013 0-1.917.217-2.685.645a4.35 4.35 0 0 0-1.771 1.821c-.404.777-.608 1.685-.608 2.698 0 .887.199 1.701.591 2.419s.949 1.281 1.653 1.671 1.515.587 2.414.587c1.05 0 1.946-.21 2.664-.624l.029-.017v-2.023l-.093.068a4.15 4.15 0 0 1-1.08.563c-.39.136-.746.205-1.058.205-.867 0-1.562-.271-2.067-.806s-.763-1.287-.763-2.233c0-.952.268-1.723.795-2.292s1.223-.855 2.071-.855c.726 0 1.433.246 2.102.731l.093.067v-2.132l-.03-.017c-.252-.141-.595-.257-1.022-.346a6.1 6.1 0 0 0-1.235-.132zm-6.586.226h-2.208v9.388h2.208v-9.388zm-1.082-3.999a1.33 1.33 0 0 0-.941.369c-.261.246-.394.555-.394.921a1.18 1.18 0 0 0 .39.903c.259.239.575.36.945.36a1.36 1.36 0 0 0 .949-.359c.26-.238.395-.544.395-.903a1.24 1.24 0 0 0-.384-.911 1.32 1.32 0 0 0-.96-.379zm-5.51 3.307v10.081h2.254v-13.1h-3.119l-3.965 9.731-3.848-9.731h-3.246v13.1h2.118V11.152h.073l4.063 10.082h1.598l4-10.081h.073zM10.73 14.145H.341V3.756H10.73v10.389zm11.47 0H11.811V3.756H22.2v10.389zM10.729 25.619H.341V15.231H10.73V25.62zm11.471 0H11.812V15.231H22.2V25.62z" fill-opacity=".8"/></g><defs><clipPath id="A"><path fill="#fff" transform="translate(.341)" d="M0 0h102.5v30H0z"/></clipPath></defs></svg>