<svg xmlns="http://www.w3.org/2000/svg" width="96" height="30" fill="none" xmlns:v="https://vecta.io/nano"><g clip-path="url(#A)" fill="#0a1727"><path d="M81.946 14.336v7.533h2.408v-5.022h8.805v5.022h2.408v-7.533h-13.62zm2.133-2.442h9.287c1.307-.241 2.236-1.41 2.511-2.511h-14.31c.275 1.101 1.238 2.236 2.511 2.511zm-9.459 9.975c1.204-.516 1.857-1.41 2.133-2.442H65.917V9.417h-2.442v12.451h11.144zm-29.202-10.01h8.599c1.307-.378 2.373-1.376 2.648-2.442h-13.62v7.36h11.144v2.58h-8.736c-1.376.378-2.545 1.307-3.13 2.511h14.274v-7.533H45.452l-.034-2.476zm-21.187.034h9.287c1.307-.241 2.27-1.41 2.511-2.511H21.686c.275 1.101 1.238 2.236 2.545 2.511zm0 4.919h9.287c1.307-.241 2.27-1.41 2.511-2.511H21.686c.275 1.101 1.238 2.236 2.545 2.511zm0 5.056h9.287c1.307-.241 2.27-1.41 2.511-2.511H21.686c.275 1.101 1.238 2.27 2.545 2.511zM.051 9.417c.275 1.101 1.238 2.201 2.511 2.476h3.921l.206.069v9.871h2.442v-9.871l.206-.069h3.921c1.307-.344 2.236-1.376 2.511-2.476v-.034L.051 9.417z" fill-opacity=".8"/></g><defs><clipPath id="A"><path fill="#fff" transform="translate(.051)" d="M0 0h95.625v30H0z"/></clipPath></defs></svg>