<svg xmlns="http://www.w3.org/2000/svg" width="55" height="30" fill="none" xmlns:v="https://vecta.io/nano"><path d="M.626 0h54.182v30H.626z"/><g clip-path="url(#A)" fill="#0a1727"><path d="M10.708 5v20V5zm6.78 0v13.615V5zm6.78 0v20V5zm6.78 0v3.976V5zm6.899 6.386V25 11.386z" fill-opacity=".8"/><g fill-rule="evenodd"><path d="M8.626 25V5h4.163v20H8.626zm6.78-6.385V5h4.163v13.615h-4.163zM22.186 25V5h4.163v20h-4.163zm6.78-16.024V5h4.163v3.976h-4.163zM35.865 25V11.386h4.163V25h-4.163zm-6.899-.001V11.385h4.163v13.614h-4.163z" fill-opacity=".8"/><path d="M46.808 8.976H35.865V5h10.943v3.976z" fill-opacity=".8"/></g></g><defs><clipPath id="A"><path fill="#fff" transform="translate(8.626 5)" d="M0 0h38.182v20H0z"/></clipPath></defs></svg>