<svg xmlns="http://www.w3.org/2000/svg" width="97" height="30" fill="none" xmlns:v="https://vecta.io/nano"><path d="M20.044 3.516v5.938.106c0 2.236-.226 5.119-1.99 7.65-.368.516-.778.999-1.271 1.466l-.008.008c-.961.901-2.224 1.753-4.03 2.736-1.806-.983-3.077-1.835-4.03-2.736l-.008-.008c-.493-.467-.911-.942-1.271-1.466-1.764-2.523-1.99-5.414-1.99-7.65v-.737-5.307l.293-.033C5.78 3.475 9.693 3 12.745 3s6.964.475 7.006.483l.293.033z" fill="#0a1727" fill-opacity=".8"/><path d="M12.745 3.662c-2.274 0-5.041.27-6.27.401l-.351 4.759h6.622 6.622l-.342-4.759-6.279-.401zm0 5.561l-6.63.361c0 2.138.217 4.89 1.873 7.257.343.483.736.942 1.204 1.384a12.97 12.97 0 0 0 3.553 2.22c.46-.189 2.098-.91 3.553-2.22a8.86 8.86 0 0 0 1.204-1.384c1.647-2.367 1.864-5.119 1.864-7.257l-6.622-.361z" fill="#fff"/><path d="M11.951 4.506c-.343 0-.711.058-1.095.107-.426.066-.869.122-1.312.122h-.209v.844h-.309v.491h.309v.672h-.309v.491h.309v.917h.209c.477 0 .944-.073 1.387-.139l1.045-.115c.251 0 .435.033.577.107h.401c.142-.074.326-.107.577-.107.309 0 .668.058 1.045.115l1.388.139h.209v-.917h.309v-.491h-.309V6.07h.309v-.483h-.309v-.852h-.209c-.443 0-.886-.065-1.313-.122l-1.095-.107c-.318 0-.585.049-.803.148-.217-.098-.485-.148-.803-.148h0zm.794 5.054c-.008 0-.017.008-.017.016l-.727 2.186H9.661c-.008 0-.017.001-.025.009 0 .016 0 .024.017.024l1.897 1.351-.727 2.203.017.008 1.915-1.36 1.914 1.36h.008l-.728-2.211 1.898-1.351c.008 0 .017-.008.008-.024l-2.366-.009-.728-2.186c0-.008-.008-.016-.017-.016zm-4.323.442l-.134.114c-.326.237-.552.582-.627.975a1.36 1.36 0 0 0 0 .581 1.83 1.83 0 0 0-.535-.279l-.176-.049-.042.172c-.092.393-.025.794.176 1.138s.535.599.92.713l.151.041a1.98 1.98 0 0 0 .092.368 1.53 1.53 0 0 0-.728-.238l-.176-.016v.18c-.008.401.142.778.41 1.073.276.295.644.475 1.054.508l.159.016c.042.123.1.238.167.336-.176-.066-.368-.099-.56-.099-.067 0-.134 0-.201.008l-.176.024.033.172a1.55 1.55 0 0 0 .636.975c.276.197.594.295.937.295l.201-.008.158-.016c.067.107.142.205.234.295a1.6 1.6 0 0 0-.76.065l-.167.058.067.163c.159.369.451.664.819.819.209.09.426.14.644.14.175 0 .36-.033.527-.091l.125-.041a10.14 10.14 0 0 0 .769.566l-.493.319.318.188.477-.312.477.312.318-.188-.493-.319.769-.566.125.041c.167.057.351.091.527.091.226 0 .443-.049.644-.14.368-.164.661-.451.819-.819l.067-.163-.167-.058c-.242-.082-.51-.106-.761-.065a1.59 1.59 0 0 0 .234-.295l.159.016c.067.008.134.008.201.008.343 0 .661-.098.937-.295a1.62 1.62 0 0 0 .636-.975l.034-.172-.176-.024c-.067-.008-.134-.008-.201-.008-.192 0-.376.033-.56.099.067-.107.125-.222.167-.336l.159-.016c.41-.033.778-.213 1.054-.508a1.52 1.52 0 0 0 .409-1.073v-.18l-.184.016a1.62 1.62 0 0 0-.727.238 1.4 1.4 0 0 0 .092-.368l.184-.041c.393-.115.718-.369.919-.713s.267-.745.176-1.138l-.042-.171-.176.049c-.201.057-.376.155-.534.278.034-.188.034-.384 0-.581-.075-.393-.301-.738-.627-.975l-.142-.106-.092.147c-.217.336-.293.737-.217 1.13s.301.729.627.967c-.059.131-.1.278-.126.418-.1-.262-.259-.492-.485-.672l-.143-.115-.109.148c-.234.328-.343.721-.284 1.114a1.57 1.57 0 0 0 .569 1.007l.008.008a1.44 1.44 0 0 0-.217.401 1.6 1.6 0 0 0-.334-.761l-.109-.139-.134.122c-.301.27-.485.639-.518 1.032s.092.786.343 1.098l.008.008c-.117.098-.217.222-.301.344.017-.278-.033-.557-.167-.811l-.084-.156-.159.091c-.351.205-.61.524-.728.909a1.52 1.52 0 0 0 .109 1.147v.008c-.134.074-.259.172-.36.278.075-.27.084-.549.008-.828l-.042-.171-.167.057a1.64 1.64 0 0 0-.902.745 1.54 1.54 0 0 0-.142 1.106l-.159.107-.159-.107a1.54 1.54 0 0 0-.142-1.106c-.192-.352-.51-.614-.903-.745l-.167-.057-.042.171c-.075.27-.067.557.008.828a1.54 1.54 0 0 0-.368-.278l.008-.008a1.56 1.56 0 0 0 .109-1.147c-.117-.385-.376-.704-.728-.909l-.159-.091-.084.156a1.53 1.53 0 0 0-.166.811 1.5 1.5 0 0 0-.301-.344l.008-.008c.251-.311.376-.704.343-1.106a1.55 1.55 0 0 0-.518-1.032l-.134-.122-.109.139c-.184.221-.293.483-.335.761a1.59 1.59 0 0 0-.218-.401l.008-.008c.318-.254.518-.614.569-1.007s-.05-.794-.284-1.114l-.109-.148-.142.115a1.49 1.49 0 0 0-.485.672c-.017-.147-.059-.287-.125-.418.326-.238.552-.582.627-.967.075-.393 0-.794-.217-1.13l-.092-.147h.001z" fill="#0a1727" fill-opacity=".8"/><path d="M11.942 4.906c-.309 0-.661.049-1.037.106l-1.019.115-.092 2.597a9.36 9.36 0 0 0 1.061-.123l1.112-.115a2.15 2.15 0 0 1 .485.05l.075-2.171v-.361c-.15-.065-.343-.098-.585-.098zm1.606 0a1.5 1.5 0 0 0-.585.098v.361l.075 2.171a2.15 2.15 0 0 1 .485-.05c.343 0 .719.058 1.111.115l1.062.123-.092-2.597-1.02-.115-1.036-.106zM8.338 10.5a1.24 1.24 0 0 0-.351.647c-.042.246-.017.499.084.721a1.24 1.24 0 0 0 .351-.647c.042-.246.017-.491-.084-.721zm8.787 0c-.1.229-.134.483-.084.729s.176.467.351.647c.1-.229.134-.483.084-.729a1.27 1.27 0 0 0-.351-.647zm-4.381.606l-.435 1.064-1.179.082.912.737-.293 1.114.995-.615.995.615-.293-1.114.902-.737-1.17-.074-.435-1.072zm-5.535.672a1.25 1.25 0 0 0 .711 1.204c.025-.246-.033-.491-.167-.712a1.25 1.25 0 0 0-.544-.491zm11.053 0c-.234.106-.417.278-.543.491-.125.221-.184.467-.167.712a1.25 1.25 0 0 0 .543-.491c.125-.221.184-.467.167-.712zm-9.455.614c-.167.188-.276.418-.309.664a1.2 1.2 0 0 0 .125.721c.167-.188.276-.417.309-.663a1.19 1.19 0 0 0-.125-.721zm7.859 0a1.2 1.2 0 0 0-.126.721c.034.246.142.474.309.663a1.2 1.2 0 0 0 .125-.721c-.034-.246-.142-.475-.309-.664zm-8.971 1.499c.042.246.151.475.318.664a1.17 1.17 0 0 0 .636.369c-.042-.246-.151-.483-.318-.664s-.393-.311-.636-.369zm10.075 0a1.25 1.25 0 0 0-.636.369c-.176.188-.284.418-.318.664a1.22 1.22 0 0 0 .636-.369c.176-.18.284-.409.318-.664zm-1.689.278a1.2 1.2 0 0 0-.276.68 1.3 1.3 0 0 0 .159.713c.159-.197.259-.434.276-.68a1.17 1.17 0 0 0-.159-.713zm-6.697.008c-.125.213-.176.459-.167.712a1.26 1.26 0 0 0 .276.68c.125-.213.184-.459.167-.712a1.26 1.26 0 0 0-.276-.68zm.944 1.622c-.075.237-.084.492-.008.729s.218.45.41.605c.075-.238.084-.491.008-.729s-.217-.451-.41-.606zm4.808 0c-.192.156-.335.369-.41.606s-.067.491.008.729c.192-.156.335-.368.41-.605s.067-.492-.008-.729zm-6.521.074c.092.229.243.434.452.581s.452.221.694.237a1.18 1.18 0 0 0-.443-.581 1.29 1.29 0 0 0-.702-.238zm8.227 0a1.29 1.29 0 0 0-.702.238c-.201.147-.36.343-.443.581a1.29 1.29 0 0 0 .702-.237 1.22 1.22 0 0 0 .443-.581zm-2.976 1.319c-.217.115-.401.295-.527.516s-.176.467-.142.713a1.22 1.22 0 0 0 .527-.516c.117-.221.167-.467.142-.712zm-2.266.008a1.21 1.21 0 0 0 .142.704 1.22 1.22 0 0 0 .527.516 1.25 1.25 0 0 0-.669-1.22zm-1.467.391a1.41 1.41 0 0 0-.188.019c.134.213.325.385.56.483.226.098.485.131.736.09-.134-.213-.326-.385-.56-.483-.176-.08-.36-.114-.547-.108zm5.208.002c-.189-.003-.377.033-.547.107-.234.106-.426.27-.56.483l.226.016a1.21 1.21 0 0 0 .51-.106c.234-.107.426-.27.56-.483-.063-.01-.126-.016-.189-.017z" fill="#fff"/><path d="M86.016 3.738c-3.001.614-5.167 1.966-5.167 4.275 0 1.884 1.28 2.858 2.835 3.513l2.617 1.122c1.296.549 2.249 1.376 2.249 2.818 0 1.548-1.078 2.686-2.934 2.686-1.212 0-2.399-.549-3.043-1.335l-.753-1.802h-1.513l.476 2.859c1.145.885 2.483 1.441 4.473 1.441 4.063-.827 5.443-2.752 5.443-4.742 0-2.162-1.488-3.219-3.194-3.94L85.02 9.578c-1.187-.508-2.031-1.229-2.031-2.392 0-1.417 1.012-2.326 2.725-2.326 1.296 0 1.99.466 2.55 1.04l.627 1.925h1.079V4.966c-1.078-.786-2.591-1.228-3.954-1.228zm-13.16.172l-1.295.36-5.359 13.719-1.037.14-1.036-.156-4.799-6.921 4.431-5.97 1.688-.229-.109-.738-2.525.066-2.525-.066-.109.738 1.881.278-3.428 4.939-3.051-4.955 1.839-.278-.109-.738-3.068.082-3.093-.082-.109.738 1.689.229 4.472 6.626-4.665 6.29-1.689.229.109.762 2.416-.066 2.526.066.109-.762-1.773-.254 3.687-5.274 3.361 5.258-1.839.278.109.762 3.093-.066 2.525.05 1.773-.05 2.592.066.109-.738-1.881-.278 1.404-3.956h5.335l1.472 3.956-1.84.278.109.738 2.851-.066 2.985.066.109-.738-1.689-.229L72.856 3.91zm-48.85.188v3.743h.845l.994-2.686 3.236-.041v12.826l-2.592.278.109.737 3.628-.065 3.503.065.109-.737-2.483-.278V5.114l3.235.041.995 2.686h.845V4.098l-6.221.066-6.203-.066zm13.72 0l-.109.738 1.948.278V17.94l-1.948.278.109.737 2.985-.065 8.577.065.753-3.915h-.819l-1.446 2.859-5.945.065v-6.356l3.027.09.86 2.22h.761l-.217-2.859.217-2.645h-.761l-.86 2.219-3.027.091V5.09l5.727.065 1.212 2.752h.735l-.217-3.809-8.577.066-2.985-.066zM11.908 5.297a5.01 5.01 0 0 0-.747.062v.335c.36-.049.686-.082.97-.057l.008-.327a2.36 2.36 0 0 0-.232-.013zm1.837.008a2.75 2.75 0 0 0-.401.005l.008.327a4.12 4.12 0 0 1 .819.041v-.335l-.426-.038zm.677.062v.336l.167.024.661.09-.008-.335-.602-.082-.217-.033zm-3.511.024c-.025.008-.042.008-.067.008l-.602.082-.008.335.661-.09h.017v-.336zm.909.659c-.303.009-.626.054-.959.103v.335c.017 0 .025 0 .042-.008.451-.066.861-.123 1.204-.098l.008-.328-.296-.004zm1.558.004l.008.328c.217-.016.459 0 .718.033v-.328l-.727-.033zm.978.057v.336l.234.033.686.09-.008-.335-.627-.082-.284-.042zm-3.754.074l-.385.049-.008.335.401-.049v-.335h-.008zm61.143.45l2.357 6.347h-4.599l2.241-6.347zm-58.341.163l.008.328c.276-.016.601.016.944.065v-.327c-.335-.049-.66-.082-.953-.066zm-1.321.008c-.284-.016-.594.017-.92.058v.335c.335-.049.644-.082.912-.065l.008-.328zm2.533.082v.344h-.008l.703.091-.008-.336-.652-.09c-.008 0-.017 0-.034-.008zm-3.704.008c-.025 0-.042.008-.059.008l-.652.09-.008.336.719-.091h.017V6.9h-.017zM29.46 22.237l-.494.056-1.13.008-1.323-.008v.772h.176l.209-.549.695-.016v2.651l-.553.056.025.151.771-.016.744.016.026-.151-.528-.056V22.5l.937.016.167-.024v2.683l-.276.04.025.151.486-.016.435.016.025-.151-.251-.04v-1.298l.134-.079c.167-.104.343-.199.486-.199.184 0 .293.096.293.327v1.25l-.226.04.025.151.435-.016.519.008.025-.151-.343-.04v-1.162c0-.557-.101-.764-.686-.764l-.67.414v-1.417h-.159zm50 .016l-.277.072-1.138 2.833-.36.048.025.151.494-.016.553.016.025-.151-.402-.056.302-.82v.008h1.13l.309.819-.393.056.025.151.611-.016.636.016.025-.151-.36-.048-1.205-2.914zm-20.317.016l-.385.414a.81.81 0 0 0-.251.612v.04h-.268l-.142.151v.071h.402v1.616l-.327.04.025.151.528-.016.712.016.025-.167-.528-.032v-1.616h.578v-.207h-.578v-.111c0-.286.033-.414.1-.493l.092-.12h.594v-.35h-.578zm-24.645.024l-.025.151.419.056v1.775c0 .701.327 1.162 1.231 1.162.921-.207 1.163-.581 1.163-1.154V22.5l.394-.056-.025-.151-.536.016-.586-.016-.025.151.402.048v1.831c0 .565-.268.868-.745.868-.527 0-.77-.31-.77-.851V22.5l.393-.056-.025-.151-.628.016-.636-.016zm26.46.008v.772h.184l.209-.557.695-.007v2.65l-.552.056.025.151.77-.016.745.016.017-.151-.528-.056v-2.65l.695.007.209.557h.176v-.772l-1.322.015-1.323-.015zm-19.914.007l-.335.024-.042.206.025.247.125.024.326-.024.05-.207-.025-.246-.125-.024zm9.535 0l-.335.024-.042.206.025.247.126.024.326-.024.05-.207-.025-.246-.125-.024zm37.218 0l-.335.024-.042.206.025.247.126.024.327-.024.05-.207-.025-.246-.125-.024zm-8.539.422l.033.239.436 1.154h-.979l.51-1.393zm-27.423.024l-.302.286v.287h-.301l-.159.151v.072h.443v1.305c0 .398.067.573.586.573l.578-.302-.075-.151c-.126.056-.268.119-.402.119-.193 0-.242-.135-.242-.263v-1.337h.695l.77 1.846.184-.056-.461.66h-.393v.438.016h.553l.518-1.107.745-1.791.294-.048-.025-.151-.385.016-.401-.016-.025.151.209.048-.569 1.584-.033-.303-.511-1.282.302-.048-.025-.151h-1.448v-.549h-.117zm24.091 0l-.302.286v.287h-.301l-.159.151v.072h.443v1.305c0 .398.067.573.586.573l.536-.286-.075-.151c-.134.056-.235.104-.369.104-.193 0-.242-.135-.242-.263v-1.282h.695v-.199h-.695v-.597h-.117zm10.137 0l-.301.286v.287h-.301l-.16.151v.072h.444v1.305c0 .398.067.573.586.573l.535-.286-.075-.151c-.126.056-.226.104-.36.104-.193 0-.243-.135-.243-.263v-1.282h.686v-.199h-.694v-.597h-.118zm-37.157.462c-.536.111-.837.287-.837.589 0 .247.184.414.385.509l.36.183c.243.119.335.199.335.367 0 .183-.125.334-.368.334a.72.72 0 0 1-.377-.111l-.159-.367h-.294l.084.494c.126.064.418.199.702.199.527-.111.863-.255.863-.653 0-.247-.126-.413-.436-.565l-.351-.168c-.201-.095-.319-.182-.319-.326 0-.159.176-.255.352-.255.167 0 .301.072.351.096l.117.31h.243v-.438c-.134-.095-.402-.199-.653-.199zm22.199 0c-.536.111-.837.287-.837.589 0 .247.184.414.385.509l.36.183c.243.119.335.199.335.367 0 .183-.126.334-.369.334-.142 0-.276-.048-.376-.111l-.16-.367h-.293l.084.494c.126.064.427.199.703.199.527-.111.862-.255.862-.653 0-.247-.125-.413-.435-.565l-.352-.168c-.201-.095-.318-.182-.318-.326 0-.159.175-.255.351-.255.167 0 .302.072.352.096l.117.31h.243v-.438a1.25 1.25 0 0 0-.653-.199zm13.343 0c-.536.111-.837.287-.837.589 0 .247.185.414.385.509l.36.183c.234.119.335.199.335.367 0 .183-.126.334-.369.334-.142 0-.276-.048-.376-.111l-.16-.367h-.293l.084.494c.126.064.419.199.703.199.527-.111.862-.255.862-.653 0-.247-.125-.413-.435-.565l-.352-.168c-.201-.095-.318-.182-.318-.326 0-.159.175-.255.351-.255a.76.76 0 0 1 .352.096l.117.31h.243v-.438a1.26 1.26 0 0 0-.653-.199h0zm-51.891.016c-.628.127-1.039.477-1.039 1.122 0 .693.503 1.066 1.064 1.066a2.68 2.68 0 0 0 .803-.342l-.075-.167a1.23 1.23 0 0 1-.578.183c-.477 0-.762-.35-.762-.852v-.008h1.398v-.183c0-.454-.201-.819-.812-.819zm12.447 0c-.628.127-1.038.477-1.038 1.122 0 .693.502 1.066 1.063 1.066.293-.072.587-.199.804-.342l-.076-.167c-.176.103-.393.183-.577.183-.477 0-.762-.35-.762-.852v-.008h1.398v-.183c0-.454-.202-.819-.813-.819zm11.862 0c-.712.119-1.13.485-1.13 1.146a1 1 0 0 0 1.029 1.043c.712-.111 1.131-.485 1.131-1.138 0-.597-.411-1.051-1.03-1.051zm7.584 0c-.628.127-1.038.477-1.038 1.122 0 .693.494 1.066 1.054 1.066.293-.072.587-.199.804-.342l-.076-.167c-.176.103-.393.183-.577.183-.477 0-.762-.35-.762-.852v-.008h1.406v-.183c0-.454-.202-.819-.813-.819zm4.47 0l-.837.358v.335h.394l.075-.35c.1-.04.251-.079.376-.079.243 0 .268.159.268.422v.215l-1.038.326c-.1.135-.159.247-.159.406 0 .35.285.557.678.557l.553-.381.142.334.594-.111-.017-.151h-.226c-.042-.072-.076-.136-.076-.327v-.859c0-.549-.151-.692-.728-.692zm5.215 0l-.82.358v.335h.394l.075-.35c.101-.04.251-.079.376-.079.243 0 .268.159.268.422v.215l-1.038.326c-.1.135-.159.247-.159.406 0 .35.285.557.678.557l.544-.381.142.334.594-.111-.017-.151h-.234c-.042-.072-.076-.136-.076-.327v-.859c0-.549-.151-.692-.728-.692zm-34.948.007l-.678.422-.025-.367-.202.016-.552.135.025.151.318-.024v1.6l-.318.04.025.151.528-.016.443.024.025-.151-.251-.039v-1.298l.134-.087c.159-.104.318-.199.477-.199.193 0 .301.096.301.327v1.25l-.234.04.025.151.443-.016.528.016.025-.151-.351-.04v-1.218c0-.525-.101-.717-.687-.717zm50.695 0l-.678.422-.025-.367-.201.016-.552.135.025.151.318-.024v1.6l-.318.04.025.151.527-.016.436.024.025-.151-.251-.039v-1.298l.142-.087c.159-.104.318-.199.477-.199.193 0 .302.096.302.327v1.25l-.234.04.025.151.443-.016.528.016.025-.151-.352-.04v-1.218c0-.525-.1-.717-.686-.717zm-42.499.016l-.527.613-.017-.581-.184.016-.553.136.025.151.318-.024v1.6l-.318.04.025.151.519-.016.67.016.025-.168-.486-.039v-1.043l.092-.104c.126-.143.327-.286.436-.31h.343v-.438h-.368zm34.244.032l-.226.016-.553.111.025.168.327-.024v1.147c0 .51.1.716.712.716l.67-.398.125.358.594-.111-.017-.151h-.235c-.034-.072-.058-.136-.058-.326v-1.504l-.234.016-.511.111.025.168.277-.024v1.234l-.092.056c-.176.111-.36.223-.502.223-.226 0-.327-.095-.327-.326v-1.457zm-40.472.007l-.234.016-.553.135.025.151.319-.024v1.6l-.319.04.025.151.528-.016.528.016.025-.151-.344-.04v-1.879zm.385 0l-.025.151.284.048.804 1.934.335-.135.753-1.799.293-.048-.025-.151-.385.016-.402-.016-.025.151.209.048-.56 1.584-.017-.302-.502-1.282.301-.048-.025-.151-.485.016-.528-.016zm9.132 0l-.226.016-.553.135.025.151.318-.024v1.6l-.318.04.025.151.528-.016.519.016.025-.151-.344-.04v-1.879zm14.825 0l-.025.16.284.047.67.868-.678.796-.326.04.025.151.477-.016.36.016.025-.151-.226-.032.485-.669.033.103.41.566-.192.04.025.151.435-.016.528.016.025-.151-.284-.04-.72-.972.61-.7.335-.047-.025-.16-.477.016-.359-.016-.025.16.226.047-.436.597-.033-.111-.343-.486.184-.047-.025-.16-.435.016-.528-.016zm22.392 0l-.226.016-.553.135.025.151.318-.024v1.6l-.318.04.025.151.528-.016.518.016.025-.151-.343-.04v-1.879zm-55.423.151c.36 0 .426.239.426.574l-.921.039c.034-.366.21-.613.494-.613zm12.455 0c.36 0 .427.239.427.574l-.921.039c.034-.366.209-.613.493-.613zm11.845 0c.393 0 .678.374.678.931 0 .47-.193.828-.561.828-.41 0-.686-.422-.678-.923 0-.478.184-.836.561-.836zm7.584 0c.36 0 .427.239.427.574l-.921.039c.033-.366.217-.613.493-.613zm4.856.86v.573l-.192.128c-.059.04-.176.111-.302.111-.134 0-.268-.08-.268-.303 0-.095.025-.183.092-.246l.67-.263zm5.215 0v.573l-.192.128c-.059.04-.176.111-.302.111-.134 0-.268-.08-.268-.303 0-.095.025-.183.092-.246l.67-.263z" fill="#0a1727" fill-opacity=".8"/></svg>