<svg xmlns="http://www.w3.org/2000/svg" width="76" height="30" fill="#0a1727" xmlns:v="https://vecta.io/nano"><path d="M45.156 15.192l.089.111 1.73 2.229c1.974 2.506 5.511 5.189 8.615 5.189a5.05 5.05 0 0 0 1.164-.133c3.16-.732 4.28-4.302 4.28-7.395s-1.131-6.664-4.28-7.395a4.98 4.98 0 0 0-1.164-.133c-3.104 0-6.641 2.694-8.615 5.189l-1.73 2.217-.089.122zM25.653 1.832c-2.705 0-4.49 1.02-5.51 1.874-2.794 2.328-4.468 6.63-4.468 11.498s1.674 9.169 4.468 11.498c1.02.854 2.805 1.863 5.499 1.863 3.315 0 10.067-1.663 18.095-12.828.122-.177.255-.355.388-.532l-.388-.532C35.687 3.495 28.946 1.832 25.653 1.832zm-.011 27.553c-2.306 0-4.446-.732-6.032-2.051-3.027-2.528-4.768-6.952-4.768-12.141s1.741-9.613 4.768-12.13C20.741 2.12 22.704 1 25.653 1c2.75 0 5.644.976 8.593 2.894 3.426 2.229 6.852 5.688 10.156 10.289l.233.322 1.674-2.151c2.162-2.739 5.865-5.51 9.258-5.51a6.02 6.02 0 0 1 1.353.155c3.626.843 4.923 4.79 4.923 8.205s-1.297 7.351-4.923 8.205a6.02 6.02 0 0 1-1.353.155c-3.393 0-7.096-2.761-9.258-5.51l-1.674-2.151-.233.322c-8.238 11.442-15.29 13.161-18.76 13.161zm31.179-16.278a.35.35 0 0 1 .355.355c0 .189-.155.344-.355.344-.188 0-.355-.155-.355-.344.011-.2.166-.355.355-.355zm-6.321.987c-.277 0-.499.089-.665.355-.111-.222-.333-.355-.621-.355-.41 0-.599.299-.61.322v-.133c0-.066-.056-.122-.122-.122h-.288c-.067 0-.122.055-.122.122v1.852c0 .066.055.122.122.122h.333c.067 0 .122-.055.122-.122v-1.109a.42.42 0 0 1 .066-.244c.067-.1.177-.166.322-.166.255 0 .377.166.377.399v1.12c0 .066.055.122.122.122h.31c.066 0 .122-.055.122-.122v-1.109c0-.222.144-.41.388-.41.255 0 .377.166.377.399v1.12c0 .066.055.122.122.122h.299c.066 0 .122-.055.122-.122v-1.231c-.022-.577-.388-.809-.776-.809zm1.63.865c.011-.189.177-.41.466-.41.322 0 .466.211.466.41h-.931zm1.475-.011c-.078-.532-.455-.854-1.02-.854-.532 0-1.031.432-1.031 1.109a1.06 1.06 0 0 0 1.087 1.12c.355 0 .621-.144.798-.355a.84.84 0 0 0 .133-.211c.022-.056-.022-.111-.089-.133l-.233-.066c-.089-.022-.122-.011-.166.055-.078.133-.222.222-.432.222-.277 0-.521-.2-.532-.477h1.397c.067 0 .1-.055.111-.1v-.033-.044a1.38 1.38 0 0 0-.022-.233z" fill-opacity=".8"/><path d="M54.991 15.79c-.299 0-.521-.222-.521-.599s.233-.588.521-.588.521.211.521.588c-.011.377-.233.599-.521.599zm1.075.377l-.011-.366v-2.517c0-.067-.056-.122-.122-.122h-.31c-.067 0-.122.044-.122.111v1.087c-.055-.111-.233-.255-.588-.255-.599 0-1.009.477-1.009 1.098 0 .632.421 1.109 1.02 1.109.277 0 .499-.133.588-.288v.122a.1.1 0 0 0 .122.122h.322c.089-.022.111-.055.111-.1zm2.484-.376c-.299 0-.521-.222-.521-.599s.233-.588.521-.588.521.211.521.588c-.011.377-.233.599-.521.599zm1.075.377l-.011-.366v-1.53c0-.067-.056-.122-.122-.122h-.31c-.078 0-.122.044-.122.111v.1c-.055-.111-.233-.255-.588-.255-.588 0-1.009.477-1.009 1.098 0 .632.421 1.109 1.02 1.109.277 0 .499-.133.588-.288v.122a.1.1 0 0 0 .122.122h.322c.078-.022.111-.055.111-.1zm-2.638-2.018h-.322c-.067 0-.122.055-.122.122v1.852c0 .067.055.122.122.122h.322c.066 0 .122-.055.122-.122v-1.852c0-.067-.055-.122-.122-.122z" fill-opacity=".8"/><path d="M32.006 10.369c0-.011-.022-.011-.022-.033 0-.011.011-.022 0-.044v-.022l.011-.022v-.033-.022l.011-.022v-.022c.011.011.011-.033.011-.044s0-.011.011-.022.011-.033.022-.044.011-.022.022-.022c.011-.011.011-.022.022-.033s.011-.022.022-.022l.011-.011v-.011s.011-.011.022-.011l.022-.022c.011 0 .011 0 .022-.011.022-.022.033-.022.044-.033.022-.011.022-.011.033-.022l.022-.011.011-.022.011-.011h.011c.011-.011.022-.011.022-.022l.022-.022c.011 0 .022-.011.033-.011l.011-.011c.011-.011.022-.011.033-.011.022-.011.022-.011.033-.011s.022-.011.033-.011.022 0 .044-.011c.011 0 .011-.011.022-.011h.022.044.022.033.033.022c.022.011.022.011.033.011s.011.011.022.011.033 0 .044-.011l.022.011c0 .011 0 .011.011.022 0 .011.011.022.011.022l.011.011c0 .011 0 .011.011.022l.011.011c.011.011.011 0 .011.022v.022c0 .011 0 .033.011.044v.022c0 .011.011.011.011.022v.011.022c-.011.011-.011.022-.022.022-.011.011-.011.022-.011.033v.033.011l-.011.011v.022c-.011.022-.022.022-.022.033-.011.011-.022.022-.022.033v.022c-.011.011-.022.011-.033.022s-.022.033-.033.044-.033.022-.044.044c-.011.011-.011.022-.022.033s-.011.022-.022.033-.011.022-.022.033c-.022.022-.044.044-.067.055-.011.011-.022.022-.044.022 0 0-.011.011-.022.011 0 .011 0 .011-.011.022s-.022 0-.033.011-.022.011-.033.022-.044.022-.056.033c-.022.022-.044.022-.055.011-.022-.011-.022-.011-.033-.011-.011.011-.022.011-.044.011s-.044 0-.066-.011-.056 0-.078-.022c-.011-.011-.022-.011-.044-.011-.011 0-.022-.011-.033-.022-.022-.022-.044-.033-.055-.055s-.011-.022-.011-.033-.011-.022-.011-.044c0 .033 0 .011 0 0zm-.576 4.579c-.011-.022-.011-.044-.011-.055v-.033-.078c0-.011 0-.1.011-.111v-.033c0-.011.011-.022.011-.033v-.078c0-.011 0-.044.011-.067v-.078c0-.022.011-.044.011-.067 0-.011.011-.078.011-.111v-.011s.011-.022 0-.022v-.011c-.011 0 0-.011 0-.022v-.022l.011-.022v-.022c0-.011.011-.055.011-.066v-.022c0-.022.011-.022.011-.033l.011-.067c0-.011.011-.033.011-.033v-.033c0-.011 0-.067.011-.067 0 0 0-.044.011-.044v-.022l-.011-.011c.011-.022.011-.067.022-.067v-.033-.022-.022-.011l.011-.033v-.055h.011c-.011-.011-.011-.011-.022-.011v-.011-.022l.011-.022v-.044s.011-.011.011-.033v-.033-.011-.022l.011-.022v-.044-.022-.033c0-.011.011-.022.011-.022 0-.011.011-.022 0-.033l-.011-.022h.011v-.022-.022-.011c.011-.011.011-.011.022-.011h-.011v-.011l-.011-.011v-.022-.022-.033-.044-.022-.011c.011 0 .011-.011.011-.022v-.011-.022-.033-.056-.011-.011c.011-.011.011-.011.011-.022v-.022-.011-.022-.022-.022h.011c.011 0 .011-.022.011-.033 0 0 0-.022.011-.033v-.022-.033l-.011-.011c0-.011.011-.022.011-.033v-.044-.022l.011-.022v-.033c0-.011.011-.011 0-.022l.011-.056c0-.022.011-.022.011-.033.011 0 .011-.011.011-.022 0 0 0-.011.011-.022l.011-.033c0-.022.011-.011.011-.011v-.011c0-.011.011-.011.011-.022 0 0 .011-.022.011-.033v-.011l.022-.033c0-.011 0-.011.011-.022h.011l.011-.022.011-.022c.011-.011.022-.033.033-.033 0 0 .022-.033.033-.033l.011-.022s.011-.011.022-.011c.011-.011.022-.011.022-.022 0 0 .033-.033.044-.033l.011-.011s.033-.022.033-.033c0 0 .022-.011.033-.011l.022-.022c.011-.011.022-.011.033-.011h.011l.011-.011h.022.022l.022-.022h.011c.022 0 .011.011.022.011l.055-.011h.022.011l.022-.011h.033c.011 0 .022.011.022.011l.011.011h.022l.022.022.011.011.022.011c.011.011.011.011.011.022v.033.011.011.022h-.011l.011.011-.011.022.011.011h.022v.022c.011 0 .011.011.011.022v.011c.011.011.011 0 .022 0v.011l.011.022v.011l-.011.011v.011.022.011.011c-.011.011-.011.022-.011.033-.011.011-.022.011-.022.022.011.011.011.011.011.022v.011h-.011v.022l.011.011v.011s-.022.011-.022.022l-.011.011v.011.011l.011.011-.022.022.011.011v.022c.011.022 0 .011 0 .022-.011.011-.011.011-.011.022v.022h.011v.011h-.022v.011.011h.011l-.011.011-.011.022-.011.011h-.011l.022.011h.011v.022l-.011.022c-.011-.011-.022 0-.022-.011h-.022v.022l.011.011v.022h-.022l.011.022.011.011c.011.011.011.011.011.022l-.011.011c-.011.011-.011.022-.011.033 0 0-.011.011 0 .022v.011.022.011.033.044.033h.011l-.022.022c.011.011.011.011.011.022l.011.022.011.011v.011s0 .022-.011.033c0 .011-.011.011-.011.022v.033l.011.022h.011c0 .011.011.011 0 .022l-.011.011c-.011 0-.011.022-.011.022.011.011.011.011.011.022v.011c-.011.022-.011.022-.011.033v.033c.011.011.011.011.011.022.011 0 .022 0 .022.011l-.011.011-.011.011v.011c0 .011-.011.022 0 .022.011-.022.022-.022.022-.022v.011c-.011.011-.011.011-.011.022v.011l-.011.055.011.022c0 .011.022.011.022.022-.022.011-.022.022-.022.022v.022c.011.022.011.022.011.033-.022.022-.022.033-.022.044s.011.011.022.022v.011h-.011c-.011 0-.022 0-.022.011l.011.022h-.011c-.011 0-.022 0-.022.011s0 .022.011.044c0 .011-.011.011-.011.022l-.011.011c0 .011 0 .022.011.033v.022.011.022c.011.011.033.022.044.022l.011.011c.011.011.022.011.022.022-.011.011-.022.022-.022.033l-.011.011h-.011c0-.022-.011-.022-.011-.022-.011-.011-.022 0-.022-.011.011-.011.011-.022 0-.022-.011.011-.011.022-.011.033s.011.011.022.011c.011.011.011.022.011.033v.011l.022.011c.022-.011.011 0 .011 0v.022.011c-.011-.011-.044-.022-.055-.022l-.011.011v.011c0 .011-.011.022-.011.033v.011l-.011.011c.011.011.011.022.011.033-.011.022 0 .044 0 .067 0 .011-.011.067 0 .111v.033c0 .022-.011.044 0 .055-.011.011 0 .011 0 .022l-.011.022c0 .011-.011.011-.011.022v.033.066.067c0 .011 0 .022.011.033l.022.022c.011.011.011.022 0 .033v.022c.011.022.011.022 0 .022l-.022.022v.022c.011 0 .011.011 0 .022h-.011c-.011 0-.011.022.011.011 0 .011-.011.033-.011.044 0 .022 0 .033-.011.044s-.022 0-.022.011 0 .022-.011.033-.022.033-.022.044c-.011.022-.044.055-.055.067s-.033.033-.056.044c-.011.011-.022.033-.033.044 0 0-.011 0-.022.011-.022.022-.033.011-.044.022-.011 0-.044.033-.044.033-.011.011-.022 0-.033.011l-.022.011-.067.033c-.011.011-.078.044-.1.056-.011 0-.089.022-.1.033-.022.011-.055 0-.066 0s-.044 0-.067-.011c0 0-.033-.011-.055-.011 0-.011-.022-.022-.033-.022-.011-.011-.033-.022-.044-.033s-.011-.022-.022-.044c.011-.011 0-.056-.011-.067zm7.041-2.04c-.011 0-.011 0-.011.022s-.033.022-.022.033.022 0 .033 0v.033c0 .011.022.011.022.011 0 .011-.011.022-.022.022 0 0-.033 0-.033.011v.033c0 .011-.011.011-.011.022v.022c-.022.011-.011 0-.011 0-.011-.011-.033.022-.022.033 0 .011-.011.022-.022.022v.022c-.011.022 0 .033 0 .044-.011.011-.022-.011-.022-.011-.022 0-.011.011-.022.011 0 .011-.011.022-.011.022 0 .011-.011.022-.011.033-.011.022-.022.022-.033.033-.011.022-.022.033-.033.055-.011.011-.022.011-.033.022l-.022.022c.011.022-.011.022-.022.022s-.022.022-.022.033c0 0-.011.011-.022.011-.033.011-.067.044-.1.066-.022.011-.033.022-.056.033l-.1.055c-.011.011-.033.022-.044.022-.033.011-.078.022-.111.044l-.089.033c-.022.011-.044.011-.067.011-.044.011-.089.022-.133.044-.022.011-.044.011-.066.022s-.044.011-.066.022c-.044.011-.089.022-.133.044-.022.011-.122.033-.144.044s-.044.011-.067.022c-.044.022-.089.033-.133.056-.011 0-.033.011-.044.011-.011.011-.044.022-.044.022-.011.011-.033 0-.044.011s-.033.011-.044.022-.022.011-.044.011c-.011 0-.022.011-.044.022-.011 0-.022 0-.033.011-.011 0-.022.011-.033.022-.022.011-.033.011-.055.022-.011.011-.033.011-.056.022-.011.011-.011.011-.022.011s-.033 0-.022.011c-.011.011-.022 0-.033 0s-.011.011-.022.011c-.022.011-.033.011-.055.022-.011.011-.033.011-.044.022-.022.011-.033.011-.055.022s-.033.022-.055.022c-.022.011-.044.011-.055.022s-.011.011-.022.011-.011.011-.022.011c-.011.011-.033.011-.055.022l-.011.011c-.022.022-.033.022-.044.022-.022.011-.033.022-.055.022l-.067.033c-.011.011-.033.022-.055.022-.011 0-.022.011-.033.011s-.011.022-.022.022c-.011.011-.033.011-.044.022-.011 0-.022.011-.022.011-.011.011-.044.022-.044.033-.011 0-.022 0-.022.011-.011 0-.011.022-.022.011-.011.011-.033.011-.044.022-.011 0-.011.011-.022.011h-.022c-.011.011-.033.022-.044.022h-.011c-.022.011-.022.011-.033.011 0 .011 0 .011-.022.011-.011 0-.011.011-.022.011-.011.011-.055.022-.066.033-.011 0-.011 0-.022.011-.011 0-.022.011-.033.011v.011c-.011 0-.011 0-.022.011-.011 0-.033.011-.033.022l-.067.033c-.011.011-.033.022-.055.022-.011.011-.033.022-.055.022-.011 0-.044.022-.055.033l-.067.033-.011.011s-.011 0-.022.011-.011.011-.022.011c-.022.011-.033.022-.055.022-.022.011-.033.022-.056.033h-.011c-.022.011-.044.022-.044.011-.011 0-.011.011-.011.022-.011 0-.022.011-.022.011-.022.011-.033.011-.044.022s-.011.011-.022.011-.011.011-.022.011c-.011.011-.033.022-.044.033-.011 0-.033.011-.044.011s-.011.011-.022.022c-.011 0-.022.011-.033.011l-.066.033c-.011 0-.011.011-.022.011-.011.011-.044.022-.056.022-.011.011-.011.022-.022.022-.022.011-.033.022-.055.033-.011 0-.022.011-.033.011s-.011.011-.022.022c-.011 0-.011 0-.022.011l-.011.011-.022.011h-.022c-.011 0-.033.011-.033.022-.022.011-.022.011-.033.022 0 .011-.033.022-.044.022s-.011.011-.022.011c-.011.011-.011 0-.022.011-.022.011-.044.022-.056.033-.022.011-.033.022-.055.033-.011 0-.011.011-.022.011s-.044.022-.044.022c-.011 0-.011.011-.022.011-.033.011-.067.033-.1.055-.022.011-.033.022-.055.033-.011 0-.022.011-.033.011s-.011.011-.022.022-.044.022-.055.033l-.044.022c-.011.011-.011.011-.022.011s-.022 0-.033.011l-.022.011c-.011 0-.011.011-.022.011-.011.011-.022.011-.033.011l-.022.022c-.022.011-.033.022-.044.033-.011 0-.022.011-.022.011-.011 0-.011.011-.022.011s-.022 0-.033.011l-.022.022c-.011.011-.011 0-.022.011-.011 0-.011.011-.022.022s-.033.022-.055.022c-.011.011-.033.022-.044.033s-.033.022-.055.033-.033.022-.055.033-.033.011-.056.022-.044.022-.055.033l-.111.066c-.022.011-.033.022-.055.033s-.022.022-.044.033l-.111.067c-.022.011-.033.022-.055.033-.011 0-.011.011-.022.022l-.011.011h-.022l-.022.022c-.011 0-.011.011-.022.011l-.022.022c-.011.011-.033.011-.044.022-.022.011-.033.022-.055.033s-.033.022-.044.033c-.011 0-.011.011-.022.011s-.011.011-.022.011c-.011.011-.033.022-.044.033-.022.011-.033.011-.044.033-.011-.011-.033.022-.044.022 0 .022-.011.011-.022.022s-.022.011-.022.022c-.022.011-.033.022-.055.033-.011.022-.044.022-.055.033-.011 0-.011.011-.022.022s-.022 0-.022.011c-.011.011-.022.011-.022.022-.011 0-.011.011-.022.011-.011.011-.011.011-.022.011s-.022 0-.022.011c.011.022-.011.022-.011.022h-.022c-.011 0-.022.011-.022.011l-.011.022c0 .011-.022.011-.033.011s-.022 0-.022.011c-.022.011-.033.022-.055.033-.011.011-.033.022-.044.033-.011 0-.022.011-.022.011-.011.011-.011.011-.022.011-.022.011-.033.011-.044.022 0 0-.011.011-.022.011s-.022 0-.022.011c-.011.011-.033.011-.044.033-.011-.011-.044.033-.055.033h-.011l-.022.022-.022.022-.022.011c-.011 0-.022.011-.022.022v.011c-.022 0-.033.011-.044.022l-.011.011-.011.011s-.011.011-.022.011l-.022.011c-.011.011-.011.011-.011.022l-.011.011h-.011c-.011 0-.022.011-.011.011h-.011c-.011.011-.022.011-.022.022l-.011.011c-.011.022-.011.022-.022.033s-.011.022-.011.022l-.011.011-.011.011c-.011 0-.033 0-.044.011 0 0 0 .011-.011.022s-.022 0-.022.011c-.022.011-.022.011-.033 0 0 .011-.011.011-.011.022s-.011.022-.022.033-.022 0-.022.022v.022l.011.022c0 .011-.011.011-.011.022v.022c0 .011-.011.011-.011.022 0 .022.011.011.022.011v.022l-.011.011c-.022 0-.011.011-.011.011.022.011.011.022.011.033s-.011.022-.011.022v.022l.011.022v.022l-.011.022c0 .011 0 .022.011.022l.011-.011v.022c-.011.011-.011.022-.022.022-.011.022-.011.022-.022.022l-.011.011v.011.011c0 .011.022.011.022.011.022-.011.022 0 .022 0 0 .011-.011.011-.011.022v.033.011c-.011.022-.011.033-.022.044-.011.022-.011.022 0 .022s.022 0 .022.011v.011h.011v.033.033c0 .011 0 .011-.011.022-.011.022-.011.022-.011.033l-.011.011.011.011c-.011.022-.011.022-.011.033l-.011.022c.011.022.011.033 0 .033 0 .011.011.011.022.011l.011.011c-.011.022 0 .022 0 .033s-.011.022-.022.011v-.022h-.011c-.011 0-.011.022-.011.022l.011.011v.011c0 .011 0 .022.011.033l.022.022v.033.022.011c-.011.011-.011.022-.022.022v.033c.011.011.022 0 .022.011-.011.011-.011.022-.011.033.011.011.011.022.011.033l-.011.011v.022l-.011.022v.011c.011.011.022.022.011.033l-.011.022v.011l.011.022-.011.022v.022.022c0 .011-.011.022 0 .022v.011.011.033.033.011.011l.022.011v.011c0 .011 0 .011-.011.022l-.011.022h-.011.011c.011.011.011.022.022.022l.011.022c-.011 0-.011.011-.011.022v.011h.011l.011.022h-.022s-.022 0-.022.011l.011.022h-.011v.011.011l.011.011.022-.011c.011 0 0 .011 0 .022v.022c.011.011.011.011.011.022v.011.011.011c.011.011.011.011.011.022-.011.022-.011.022-.011.033v.022.011c-.011.022-.011.033-.011.033v.022.011.022c-.011.011-.011.011-.022.011.022 0 .022 0 .022.011v.022h-.011v.011.022.011.022.011.022.011.011.022.011h-.011v.011h.011c.011 0 0 .011 0 .022v.033c0 .011 0 .033-.011.033l-.011.011v.011l-.011.022c.011 0 .011-.011.022-.011.022 0 .022.011.022.022l-.022.011v.011.011c0 .011.011.011.011.022l.022.011v.022.011.022.011.022c0 .011 0 .011-.011.022l-.011.011.022.011c0 .011-.011.011-.011.022h.011c.011.011 0 .011 0 .022s-.011.022-.011.033-.011.022 0 .033.011-.011.022-.022l.011-.011c0 .022-.011.022-.011.033v.022l-.011.011c.011 0 .011-.011.022-.011 0 .011-.011.011-.011.022v.011c.022.011.022.011.022.022-.011.011-.022 0-.022.022.011.011.011.022.022.022h.011v.011c0 .011-.022.011-.033.011s-.022 0-.022.011l-.011.011v.022l-.011.022c-.011.022-.011.011 0 .022s-.011.022 0 .033h.011v.011s-.022 0-.022.011l-.011.011c.011 0 .033.011.033.011 0 .011-.011.011-.011.022.011.011.022-.022.033-.011l.011.011v.022.011.011.011l-.011-.011c-.011 0-.022-.011-.033-.011-.022.011-.033.011-.022.022 0 .011.011.011.011.022v.011l.011.011c.011 0 .022 0 .022.011.011.011 0 .022-.011.022h-.033c-.011.011.011.022.011.022.011.011.011.011.011.022s-.011.022-.011.022l.011.022c0 .011-.011.011-.022.011l-.022.011c-.011 0-.022-.011-.033 0 0 .011.011.011.022.011h.033l-.011.011c-.011.022-.011.022 0 .022s.011.022.011.022c0 .011-.011.022-.011.022-.011.022-.022.022-.022.022-.011.011-.022.011 0 .022l.011.022c.011 0 .022 0 .011.011l-.011.022v.022h.011l.011-.022c0 .022.011.033 0 .044s-.022 0-.022.011c0 0 .011.011.022.011 0 .011-.011.011 0 .022.011 0 .011 0 .022-.011 0-.011 0-.022.011-.011-.022.022-.011.033-.022.044s-.022.011-.011.022c0 .011.011.011.022 0 0 0 0-.033.011-.022 0 .011-.011.033-.022.033s-.022-.011-.033 0-.011.022-.011.033l-.011.022c-.011 0-.022.011-.011.022h.011v.011c0 .011-.011.022 0 .022.011.011.022 0 .033.011.011 0 0 .022 0 .033s.011.011.022.022c.011 0 .011.022.011.022-.011.011-.067-.011-.067.011 0 .011-.022.011-.011.033 0 .011.022.022.022.033s-.022.011-.022.022l.011.011c.011.011.011.022.022.011 0 0 .011-.011.011-.022s-.011-.011 0-.022c.011 0 .022 0 .022.011l-.011.022v.022l.011.011c.011 0 .022 0 .022.011s-.022.011-.022.022c-.011 0-.055-.011-.044.022l.011.011v.011c0 .011.011.011.011.022.011.011 0 .044-.011.055l-.022.022c0 .011.022.022.033.022 0 .011 0 .022-.011.033.011.011.022.011.022 0 .011.011.011.011 0 .033h.011c.011-.011.044-.022.044 0l-.011.011c-.011.011-.011.011-.022.011v.011h-.011c-.011.011.022.044-.011.055-.011 0-.022.011-.011.022s.011 0 .022 0c.022-.011.055.011.033.022h-.011l-.022.011c-.011.011 0 .011 0 .022v.022l.022.011.011.011c0 .011-.011.011-.022.022-.022.022.022.022.022.033.011.022-.033.011-.022.033h.022c0 .011-.011.011-.011.022v.022.022c0 .011.011.011 0 .022l-.011.022c-.011.022-.022 0 0-.011 0-.033-.044-.033-.044 0 0 .022.011.022.022.022.011.011.011.022 0 .033 0 .011-.011.011-.011.022v.011.011l-.011.022c-.011.022 0 .011.011.022v.011.011l.011.011c.011 0 .011.011.011.022l.022.011c.011 0 0-.011 0-.022l.011-.011.011-.011c.011 0 .011.011.011.022-.011.011-.022.022-.011.022h.011c.011.011.022.011.022.022v.011.011c-.011.022-.011.022-.011.033.011.011 0 .011.011.022l.022.011c0 .011.011.011.011.022v.022.022h.011c0 .022.011.011.011.033 0 .011-.011.011-.011.022h.011v.022c.011.011.011-.011.022 0h.011c-.011.022 0 .022.011.033 0 .011-.022.011-.022.022l-.011.022c-.011.011-.022.011-.022.022s.011.011.022.022c-.011.011-.022.011-.033.011h-.044c-.011 0-.044.022-.011.022.022 0 .011-.022.033-.011.011 0 .022.022.033.022h.011c-.011.011-.022.022-.033.022s-.033-.011-.044 0c0 .011.011.011.011.022h-.011c.022.022.011.022.011.022l-.011.022v.022l.011.011c.011.011 0 .011 0 .022 0 0 .011.022.011.033s.044.022.055.022c.033-.011 0-.033.011-.044.022.022.011.022.011.022v.044c0-.011 0-.022.011-.022s.011.011.022.011c.022.011.011.022.022.033 0 .011-.011.022-.022.022s-.011-.011-.011-.022c-.022-.011-.033.011-.044.022.011.022.022-.022.044 0 .011.011.011.033.022.033 0 .011.011.011.022.011s.022 0 .022.011c.011.011-.011.033-.022.033 0-.011.022-.022 0-.033-.011 0-.033.011-.011.022-.022.011-.022 0-.033.011l.011.011c-.011.011.011.011.011.022.011.011-.022.011-.022.011v.022c0 .011-.022 0-.033 0-.011-.022-.011-.033-.022-.022v.011.011.011c.011.011.022.011.033 0l.022.011c0 .011-.011.022.011.022 0 .011-.011 0-.022.011l-.022.011c-.011.011-.011.011 0 .022 0 .011 0 .022.011.022 0 .022.011.011.022.022 0 0 0 .022.011.011 0 .022.011 0 .011 0 .011.011 0 .022-.011.033 0 .011.011.022.011.022-.011.022 0 .022 0 .022v-.011c.011 0 .011.011.022.011s.022-.011.022 0c0 0-.011.022 0 .022s.011-.011.011-.022c.011.011 0 .022 0 .033-.011 0-.033.022-.033.022-.033.011-.011.022-.011.033v.022h-.022c.022.011.011.022.022.022.011.022-.033.011-.033.011s0 .022-.011.022c0 .011-.011.011-.011.022v.033h.011l.067.033c0 .011-.011 0-.022.011l-.022.011v.011h-.022v.011c-.011.011-.022.022-.022.033-.011.011-.011.022-.022.044 0 .011 0 .022-.011.033 0 .011-.011.011-.011.022-.011.022-.022.033-.033.044 0 .011-.011.011-.022.022l-.022.022-.144.1c-.011.011-.022.011-.033.011s-.011.011-.022.022h-.033c-.011 0-.022.011-.033.011-.033.011-.078.011-.111.011h-.111c-.022 0-.044-.011-.067-.011a.4.4 0 0 1-.122-.044c-.022-.011-.033-.011-.055-.022-.011-.011-.033-.022-.044-.033-.022-.011-.033-.022-.055-.044-.011-.011-.011-.022-.022-.022-.011-.011-.022-.011-.022-.022-.011-.011-.022-.022-.022-.033-.011-.022-.011-.033-.022-.056l-.011-.011v-.011c0-.011 0-.022-.011-.033-.011-.022-.022-.033-.022-.055 0-.011 0-.011-.011-.022v-.033c-.011-.022-.011-.044-.022-.055 0-.011-.011-.022-.011-.022v-.011h-.011v-.033-.033-.033l-.011-.011v-.011-.022-.011-.033c0-.011-.011-.055 0-.067v-.044-.044c0-.011-.011-.022-.011-.022l.011-.011c0-.011 0-.033-.011-.033.011-.033 0-.066.011-.089 0-.011.011-.022.011-.033v-.033-.033c0-.022-.011-.044 0-.066 0-.033.011-.056.011-.089v-.011-.011-.033c0-.011.011-.022.011-.033v-.033-.067c0-.011.011-.055 0-.067 0-.011 0-.011.011-.022v-.033-.055-.056-.055c0-.022.011-.044.011-.067v-.033-.033c0-.011.011-.011.011-.022v-.033c0-.011.011-.033.011-.055 0-.011-.011-.011-.011-.022v-.033-.066-.067-.066c0-.022.011-.044.011-.067v-.033-.044c0-.022.011-.044.011-.055v-.033c0-.011-.011-.011-.011-.022s.011-.011.011-.022v-.033c0-.022-.011-.044 0-.067v-.066-.067-.033c0-.011.011-.022.011-.044v-.055c0-.033 0-.067-.011-.1 0-.011-.011-.022-.011-.033v-.033-.067c0-.022.011-.033.011-.055v-.044c0-.022 0-.033.011-.044 0-.022-.011-.044-.011-.055s.011-.022.011-.022v-.033-.033c0-.011-.011-.022-.011-.022v-.033c.011-.011.011 0 .022 0 .011-.022 0-.055 0-.066 0 0 .011-.011 0-.022-.011-.022-.011-.022 0-.022v-.022c0-.011 0-.033-.011-.033.011-.033.022-.044.011-.066v-.055-.055-.067-.044c0-.011.011-.011 0-.033 0-.011-.011-.022-.011-.033v-.033-.033-.033-.022-.067l.011-.022v-.033-.033c0-.011-.011-.011-.011-.033 0-.011 0-.022.011-.033v-.033c0-.033-.011-.078 0-.111.011-.022 0-.044 0-.056v-.066-.067-.033-.033-.067-.067-.055-.067-.022-.033-.067-.067-.022-.056-.022c0-.022-.011-.033 0-.055s.011-.044.011-.067v-.067c0-.044.011-.089 0-.133 0-.011-.011-.022-.011-.022 0-.011.011-.022.011-.033v-.055-.033-.022-.033-.033-.033c-.011.011-.033.011-.044.022l-.022.011c-.011 0-.022.011-.022.011-.011.011-.022.011-.033.022s-.022.022-.044.022c-.011 0-.011 0-.022.011-.011 0-.011.011-.022.011-.011.011-.033.022-.044.033s-.033.022-.055.033c-.011.011-.022.011-.033.022s-.011.022-.033.022c-.011.011-.033.022-.044.033s-.033.022-.044.033-.022.022-.044.033l-.022.022c0 .011-.011.022-.022.022s-.022 0-.022.011l-.022.022c-.022.022-.044.022-.055.044-.011.011-.033.033-.044.033-.011.011-.033.033-.044.022s-.011.022-.022.022c-.011.011-.022.011-.033.022l-.033.033c-.011.011-.022.022-.033.022-.011.011-.022.011-.022.022-.011.011-.022.011-.033.011-.011.011-.011.011-.011.022-.011 0-.011.011-.022.011s-.022.011-.022.011c-.011.011 0 .011-.011.022-.011 0-.011.011-.022.011-.011.011-.022.011-.022.022h-.011l-.033.033-.022.011c-.011 0-.011.011-.022.022s-.033.022-.044.033-.033.022-.044.033c-.011 0-.011.011-.022.011-.011.011 0 .011-.022.022h-.011l-.011.011c-.011.011-.033.022-.055.044-.011.011-.011.022-.022.022-.022.011-.033.011-.033.022-.011 0-.011.011-.022.022-.011.022-.033.022-.044.033s-.022.022-.044.033c-.011.011-.033.022-.044.033l-.022.022c-.011 0-.011.011-.022.011-.033.033-.055.055-.089.078-.022.011-.033.033-.044.044-.011 0-.011.011-.022.022l-.011.011h-.011c-.011.011 0 .022-.011.022h-.022l-.011.011c-.011 0-.011.011-.022.022s-.011.022-.022.022c-.011.011-.011 0-.022.011l-.022.022c-.022.011-.033.022-.044.033s-.033.022-.044.033-.022.011-.033.022-.011.022-.022.022h-.011l-.011.011-.022.022c-.022.011-.033.033-.055.044l-.022.022c-.011.011-.011.022-.022.022-.011.011-.022.011-.022.022l-.033.033c-.011.011-.033.011-.033.022l-.044.044c-.011.011-.033.022-.044.033-.022.011-.033.033-.044.044s-.022.011-.033.022l-.022.011c-.022.011-.033.033-.044.044-.033.022-.055.044-.089.067l-.055.055c-.022.011-.044.022-.055.033s-.011.022-.022.033c-.033.022-.067.044-.089.078l-.044.044c-.022.011-.033.033-.044.044s-.011.011-.022.011-.011.011-.022.022l-.044.044c-.011.011-.033.022-.044.033-.022.022-.055.033-.078.067l-.033.033c-.011.011-.011.022-.022.022-.011.011-.022.011-.033.022-.011 0-.011.011-.022.011l-.022.022c-.011.011-.033.011-.044.033-.011.011-.011.011-.011.022-.011.011-.022.011-.022.022-.011 0-.011.011-.022.011 0 .011-.011.011-.011.022-.011.011-.022.011-.033.011s-.011.011-.022.022-.033.022-.044.033c0 .011 0 .022-.011.022-.011.011-.022.011-.022.022-.011.011-.022.033-.033.044s-.011.011-.022.011-.011 0-.022.022-.022.022-.033.033-.022.033-.033.044 0 .011-.011.022c0 .011-.022.011-.022.022-.011.011-.022.022-.044.033l-.022.022c-.011 0-.011.011-.022.011l-.033.033c0 .011-.011.011-.022.022-.011 0-.022 0-.022.011-.011 0-.022.022-.033.033s-.022.011-.044.022c-.011.011-.033.011-.044.033-.022.033-.044.033-.067.055-.011.022-.022.033-.044.055-.011.011-.022.011-.033.022s-.011.022-.022.022c-.011.011-.011.022-.022.022s-.011.011-.022.011l-.011.022c0 .011-.022.011-.033.022-.022.011-.011.033-.033.044-.011.011-.022.011-.022.022-.011.011-.011.022-.022.033s-.022.022-.033.044c-.011.011-.011.011-.022.011-.033.011-.067.044-.078.078-.022.033-.033.078-.067.1-.011.011-.033.022-.044.033s-.022.022-.033.044c-.011.011-.011.011-.011.022s-.011.011-.022.011c-.022.011-.022.033-.033.044l-.044.044c-.011.011-.011.011-.022.011l-.022.022h-.011c-.011.011-.011.033-.033.044-.011 0-.011.011-.022.011s-.011.011-.011.022c-.011.011-.022.011-.033.033-.011.011-.022.033-.033.044s-.033.022-.044.033-.011.011-.011.022-.011.011-.022.022-.044.033-.033.044l-.033.033c-.011.011-.022.033-.044.044l-.022.022c-.011.011-.011.011-.022.011-.011.011-.011.022-.011.022h-.011l-.011.022c-.011 0-.022 0-.022.011-.011.011-.011.011-.022.011-.011.011-.011.022-.022.033s-.022.022-.022.033c-.011.022-.022.033-.033.044l-.022.022-.022.022c-.011.011 0 .022 0 .022-.011.011-.022.011-.033.022s-.011.022-.022.022c-.011.011-.022 0-.022.011-.011 0-.011.011-.011.022l-.022.022c-.011 0-.011.011-.022.022s-.011.011-.011.022c-.011.011-.011.022-.022.022 0 .011-.011.011-.022.011-.022.011-.022.033-.044.044s-.022.022-.033.033c-.022.011-.022.022-.033.033s-.022.022-.033.044c-.011.011-.022.011-.022.022-.022.022-.044.044-.078.066-.022.011-.033.033-.044.044-.011 0-.011.011-.022.022s-.011.011-.011.022c-.011 0-.011 0-.022.011 0 .011-.011.011-.011.022-.011.011-.022.022-.033.044-.011.011-.011.011-.011.022-.011.011-.022.011-.033.022s-.011.022-.022.022c-.011.011-.033 0-.033.022-.011 0-.011.011-.011.022-.011.011-.011 0-.022.011s-.011.011-.022.011h-.022c-.011.011-.022.011-.022.022l-.022.022h-.067c-.011 0-.022.011-.033.011s-.022-.011-.033-.011-.022.011-.033.011-.022 0-.033-.011h-.033l-.022-.011c-.022 0-.044 0-.067-.011-.011 0-.022-.011-.033-.011s-.022 0-.033-.011c-.011 0-.011-.011-.022-.011s-.022 0-.033-.011c-.033-.011-.067-.044-.1-.055-.022-.011-.022-.033-.044-.044-.011-.011-.022-.011-.033-.022s-.011-.033-.022-.044c0-.011-.011-.011-.022-.022-.011-.022-.022-.044-.022-.067 0-.011-.011-.022-.011-.033-.011-.011-.011-.033-.011-.055 0-.011-.011-.022-.011-.033v-.044c0-.033-.022-.044-.022-.078 0-.011.022-.067.011-.078 0-.011.022-.022 0-.033 0-.022.022-.044.033-.066s.022-.044.033-.056c.011-.022.033-.044.044-.055l.067-.1c.033-.033.067-.078.1-.111.011-.022.033-.033.044-.055.022-.022.033-.044.055-.055.044-.033.078-.078.111-.122l.1-.1c.033-.033.067-.055.1-.089l.044-.044c.011-.011.022-.033.044-.044s.033-.022.055-.044c.011-.011.011-.022.022-.033l.022-.022c.033-.033.078-.067.111-.1s.067-.067.1-.089l.055-.055c.022-.022.044-.033.055-.044.033-.033.067-.078.1-.111l.044-.044.022-.022c.011-.011.011-.022.022-.022.011-.011.022-.011.033-.022l.033-.033c.011-.011.022-.011.022-.022l.022-.022c.011-.022.033-.033.055-.044 0 0 .011 0 .022-.011v-.022l.033-.033c.011-.011.033-.022.044-.033.022-.011.033-.022.044-.044.033-.033.078-.066.111-.1.022-.011.033-.033.056-.055.022-.011.044-.033.055-.044s.011-.022.022-.022c.011-.011.022-.011.033-.022.022-.011.044-.044.067-.055 0-.011.044-.033.055-.044.022-.011.033-.033.055-.044 0-.011.011-.011.011-.022.022-.022.044-.033.055-.044s.022-.011.022-.022c.011-.011.011-.011.033-.022.011-.011.011-.022.022-.033s.022-.011.033-.022c.044-.033.078-.078.133-.111.044-.022.078-.067.111-.089.022-.011.033-.033.055-.044.011-.011.022-.011.033-.022s.011-.022.022-.011c.011-.011.011-.033.022-.044s.022-.011.033-.022l.122-.1c.022-.011.044-.033.056-.055.011-.011.011-.022.022-.022 0-.011.022-.022.022-.033.022-.011.044 0 .055-.022s.022-.022.033-.033c.022-.011.078-.044.078-.067.011-.011.011.011.022.011-.011-.033.067-.033.055-.055.033 0 .044-.033.067-.044.033-.022.055-.044.089-.078.033-.022.066-.055.089-.078.011-.011.011-.011.033-.022l.022-.022c.022-.022.044-.033.067-.055a.77.77 0 0 1 .111-.089c.044-.033.078-.067.122-.089.022-.011.033-.033.055-.044s.033-.033.044-.044a.24.24 0 0 1 .055-.044c.022-.011.044-.022.055-.033l.044-.044c.011-.011.033-.022.055-.033.011-.011.011-.022.022-.022.011-.011.022-.011.033-.022s.011-.022.022-.022c.011-.011.022-.011.022-.022.011-.011.011-.022.022-.033s.022-.011.033-.022c.022-.011.033-.033.055-.044v-.011c.011 0 .011-.011.022-.022s.022-.011.033-.011c.011-.011.033-.022.044-.033s.033-.022.044-.033.022-.011.022-.011c.011-.011.011-.022.022-.022v.011c.011 0 .011-.011.022-.022l.022-.011c.011-.011.011-.011.022-.011.011-.011.033-.033.055-.033 0-.011.011-.011.022-.022l.022-.022c.011-.011.033-.022.044-.033h.011c.022-.022.033-.022.044-.022l.022-.022c.011-.011.022 0 .022-.022.011-.011.033-.022.044-.033s.033-.011.044-.022c.011 0 .011-.011.011-.022.011 0 .011-.011.022-.011s.011-.011.011-.022c.011 0 .011 0 .022-.011.022-.011.055-.033.078-.044s.055-.033.078-.055c.011-.011.033-.022.055-.044.011-.011.022-.011.033-.022.011 0 .022-.011.033-.022s.022-.011.022-.022c.011-.011.022 0 .033-.011s.011-.022.022-.022c.011-.011.033-.011.022-.022.022 0 .022-.011.033-.022s.033-.011.044-.022l.033-.033c.011-.011.033-.011.033-.033.011 0 .022 0 .033-.011l.022-.022.022-.022c.011-.011.022-.011.033-.011l.022-.022c.011-.011.022-.011.022-.022.022-.011.033-.022.055-.033l.022-.022c.011-.011.022-.011.022-.022.055-.022.089-.078.144-.1.044-.022.078-.066.122-.1.033-.022.067-.055.111-.078.011-.011.022-.011.033-.022l.011-.011.011-.011c.011-.011.022-.011.033-.022s.022-.011.033-.022c.022-.011.033-.033.055-.044.044-.033.089-.078.144-.1.011-.033.044-.033.055-.044s.033-.022.044-.033c.022-.011.044-.022.055-.044.022-.011.033-.033.044-.044s.022-.011.033-.022.022-.011.033-.022.022-.011.033-.022.022-.011.044-.022v-.022c.011-.011 0-.011 0-.022s.011-.022 0-.022c0-.011.011-.022 0-.033V17.1c.022-.022.011-.011.011-.022v-.022-.022c-.011-.011-.011-.033-.011-.044.011-.011.022 0 .011-.011 0-.011-.011-.011-.011-.022v-.044c0-.011.011-.011.011-.022-.011-.022-.011-.033-.011-.044v-.011-.022c0-.022-.011-.044-.011-.078 0-.022.011-.066-.022-.066h-.011c-.011 0-.022 0-.033.011s-.022.022-.022.033c-.011.011-.022.011-.033.011s-.022.011-.033.022-.022.011-.033.022-.011.022-.011.033c-.011.011-.033 0-.044.011s-.011.022-.022.022c-.011.011-.011.022-.022.022-.011.011-.022 0-.033.011s-.022.011-.033.011c0 .022-.022.022-.033.022s-.033.011-.044.011h-.055c-.022.011-.033.011-.033.011 0 .011 0 .011.011.022 0 .022-.022 0-.033 0s-.033.011-.044.011-.033 0-.033.011c-.011.022.022.011.033.011 0 .022-.033 0-.044 0s-.022.011-.022 0c-.011 0-.022 0-.022-.011h-.011l-.011-.011c-.011 0-.011-.011-.022 0v.011h-.011c-.011 0-.022 0-.033.011-.022 0-.055.011-.078.022s-.055 0-.078.011c-.011 0-.022.011-.033.011h-.044c-.022.011-.044-.011-.066 0l-.011.011c-.011-.011-.022-.011-.033-.011h-.033-.033c-.011 0-.022 0-.033-.011-.011 0-.022-.011-.033-.011h-.044c-.011 0-.022 0-.033-.011s-.011-.011-.033-.011v.011c-.011 0-.011-.011-.022-.022 0-.011-.011-.011-.022-.011-.022-.011-.033-.011-.056-.022s-.066-.033-.089-.055v.011c0-.011 0-.011-.011-.022-.011-.022-.033-.033-.056-.044-.022-.022-.044-.044-.055-.066-.011-.011-.022-.011-.022-.022-.011-.011 0-.022-.011-.033l-.022-.022c0-.011 0-.022-.011-.033.011-.011-.011-.033-.022-.044s-.011-.033-.011-.055c0-.011-.011-.022-.011-.022v-.033c-.011-.033-.011-.066-.022-.1-.011-.022 0-.033 0-.044 0-.022-.011-.033-.011-.056 0-.011 0-.033-.011-.044h.011v-.055c0-.055-.011-.111 0-.155v-.089-.033-.133-.166-.044c-.011-.011-.011-.022-.022-.033 0-.022.022-.067 0-.078v-.044-.044c0-.011 0-.022.011-.033s.011-.022.011-.033.011-.011.011-.033v-.044-.133c.011-.044 0-.089.011-.133v-.066-.011c.011-.011.022-.033.011-.033v-.022-.033c.011-.011.022-.022.022-.044v-.044-.033c0-.022.011-.033.011-.055.011 0 0-.011 0-.022s0-.022.011-.022c0-.022.011-.033.011-.056.011-.033.011-.066.022-.111 0-.022.011-.044.011-.055.011-.022 0-.033.011-.055s.011-.033.022-.056c0-.022.011-.033.011-.055 0-.011 0-.033.011-.044s.011-.022.011-.033c.011 0 0-.011.011-.022 0-.011.011-.011.011-.022v-.033c0-.011.011-.011.011-.022s0-.022.011-.022c.011-.022.011-.033.022-.055 0-.011.011-.011.011-.022.011-.011 0-.022.011-.022 0-.011.011-.022.011-.022 0-.011.011-.011.011-.022.011-.011.011-.011.011-.022l.011-.011v-.011l.011-.022c0-.011.011-.011.011-.022s.011-.011.022-.022c0-.011 0-.022.011-.022.011-.011.022-.022.022-.033.011-.011.022-.022.022-.033.011-.011.011-.022.022-.033l.011-.011c.011-.022.022-.022.022-.033l.033-.044c.011-.022.022-.044.044-.055.011-.011.011-.022.022-.033s.022-.022.022-.033l.033-.033c0-.011.011-.011.011-.022l.011-.011h.011l.011-.022c0-.011.011-.011.011-.022l.033-.033c.022-.022.056-.044.089-.066.022-.022.056-.055.089-.067 0-.011.022-.022.033-.022s.011 0 .022-.011c.011.011.022-.011.022-.022.022-.011.022-.011.022-.022l.022-.022c.011-.011.022-.011.022-.022.011 0 .022-.011.022-.011.011-.011.033-.011.044-.022.011 0 .022-.011.033-.011s.022 0 .033-.011c.011 0 .011-.011.022-.011s.022 0 .022-.011c.022-.011.033-.011.055-.011s.033-.011.055-.011c.011 0 .011 0 .022-.011.011 0 .022-.011.033-.011h.033c.011 0 .011-.011.033-.011h.033c.011 0 .022.011.022.011h.022c.011 0 .022.011.022.011.011 0 .022 0 .022.011.011 0 .022 0 .033.011 0 .011.011.011.011.022l.022.022c.011.011.011.011.011.022s-.011.022 0 .022c0 .011 0 .022.011.033 0 .011 0 .011.011.022v.055c-.011 0-.011.033-.011.044s.011.022 0 .033c0 .022-.022.055-.022.066v.022c0 .011-.011.011-.011.022s-.011.044 0 .044c0 .011-.022.022-.022.033l-.011.011c0 .011.011.011 0 .022 0 .011-.011.022 0 .022 0 .011-.011.011-.022.011 0 .011-.011.022-.011.022s0 .011-.011.022c0 .011-.011.033-.022.033 0 .011-.022 0-.022.022-.011 0-.011.011-.022.022s-.022 0-.033.011v.011c-.011 0-.033.044-.044.055-.011.022-.022.044-.022.066h-.011c0 .033-.022.022-.033.044-.011 0-.011.022-.022.033s-.033.022-.011.033c-.011.011-.011.022-.011.044-.011.011-.011.022-.022.033-.011-.022-.022 0-.022.011s.011.044-.011.044v.033c-.011 0-.022.022-.022.033-.022.011-.033.055-.033.066 0 .033-.022.044-.011.078 0 .022-.033.033-.044.055s-.022.044-.022.055c-.011.022-.022.044-.022.078 0 .022-.011.044-.022.066 0 .011-.011.022-.011.033s0 .022-.011.033c0 .011-.011.011-.011.022v.033c0 .022-.022.033-.022.055 0 .011-.011.022-.011.033s.022.089 0 .1c-.011.011-.011.022 0 .033 0 .011.011.022 0 .033l.011.022c0 .011 0 .033.011.022.011.022.011.044.011.066 0 .011-.011.055-.022.055v.022c0 .011-.011.011-.011.022-.011.022 0 .033 0 .044s-.011.022-.011.033v.033c0 .022 0 .044-.011.067-.011.044-.011.089-.011.133v.067c0 .022-.011.033-.011.056 0 .011-.011.011-.011.022v.033.033c.011.022.022.033.011.055 0 .011-.011.022-.011.022 0 .011.011.011.022.022 0 .011-.011.011-.011.022-.011.044 0 .078 0 .122s.011.089.033.133c0 .011.011.011.011.022.011.011.011.022.011.033 0 .022.022.033.033.055s.033.033.044.044.022.011.033.022.022.011.033.011.022.011.033.011h.033.066c.033-.011.078-.011.111-.022.011 0 .022-.011.033-.011s.022 0 .033-.011c.011 0 .022-.011.033-.011s.022 0 .022-.011c.011 0 .011-.011.022-.011s.022-.011.022-.022c.011-.011.011-.022.022-.022.011-.011.011-.011.011-.022h.011c.011-.011.022-.011.033-.022l.067-.066.033-.033c.055-.066.078-.144.1-.222 0-.022.011-.044.011-.066 0-.011.011-.011.011-.033v-.033c.011-.044.022-.089.022-.133 0-.022.011-.044.011-.066s0-.056.011-.078c0-.011.011-.011.011-.022v-.033c0-.033 0-.066.011-.1v-.055s.011-.056 0-.056c.022-.022.011-.044.011-.055 0-.022.011-.033.011-.055s.011-.044.011-.067.011-.044.011-.066c0-.011 0-.022.011-.022v-.044c0-.022 0-.055.011-.078 0-.022 0-.044.011-.078.011-.022 0-.056 0-.078 0-.011-.011-.022 0-.033l.011-.022v-.066c-.011 0-.022 0-.022-.011 0 0 0-.022.011-.022.011-.022.022 0 .033-.011s0-.033 0-.044c0-.022.011-.033.011-.044v-.055-.055-.033-.033-.033c0-.011.011-.022 0-.033v-.078-.033-.033c0-.022.011-.044.011-.066v-.067-.078-.033-.011l-.011-.011c0-.011.011-.022.011-.033v-.033c0-.022-.011-.044 0-.067 0-.011.011-.011 0-.022 0-.022 0-.022.011-.022.011-.022.011-.044.011-.067v-.044-.044c0-.022 0-.056.011-.078 0-.022 0-.044.011-.066 0-.011 0-.022.011-.033v-.044c0-.022.011-.044.011-.066v-.067c0-.011.011-.022.011-.033s0-.022.011-.033l.033-.066.011-.022c0-.011.011-.022.022-.022l.011-.011c0-.011.022-.033.033-.044l.033-.033.033-.033c.011-.011.022-.022.033-.022l.011-.011c0 .011.022 0 .033-.011v-.011h.033c.011 0 .011-.011.022-.011.022-.011.033-.022.044-.022.044-.011.1-.022.144-.011h.078c.022 0 .055.011.078.022.044.011.089.022.111.066.011.011.022.022.033.044l.022.022.022.022c.022.011.033.022.022.044 0 .011-.011.011 0 .022.011 0 .022 0 .033.011-.022.011-.033.011-.044.022 0 .011.011.011.022.022s-.011.011-.011.022v.033.033c0 .011-.011.022 0 .033 0 .011.011.011 0 .022 0 .011 0 .022.011.022-.011.022-.011.033-.011.044s0 .033.011.044.022.011.022.022 0 .011-.011.022-.022 0-.022.011c-.011.011 0 .022 0 .033.011 0 .011.011.011.022v.033c.011.022 0 .022-.011.033-.022.011-.011.044-.011.055v.033c0 .011.011.011.011.022s-.011.011-.011.022.011.022.011.022c.011.022-.011.033-.022.044s0 .011.011.022.011.011.011.022v.033c0 .011.011.022.011.033s-.011.022-.011.033-.011.011-.011.022c-.011.011 0 .011 0 .022v.033c-.011 0 0-.011-.022-.011-.011 0-.011.011-.011.022s.022.022.011.033c-.022 0-.011.022-.011.022 0 .011-.011.022 0 .033s.022.011.022-.011c.033.011-.022.033-.022.033v.078.044c0 .022-.011.022-.011.044 0 .011.011.022.011.033s-.022.011-.011.033.011.022 0 .022v.044.089.044c0 .022-.011.033-.011.044 0 .056 0 .122-.011.177 0 .067-.022.133-.022.2-.011 0-.011.044-.011.055v.067.055c0 .011-.022.044 0 .044l-.011.011v.022.044c0 .033-.011.055-.011.089s-.011.066-.011.1v.044c0 .011-.022.022 0 .022 0 .022-.011.033-.011.055v.056.066c0 .011-.011.022 0 .033 0 .011.011 0 .022.011-.011.022-.022.022-.022.033v.033c0 .033 0 .055-.011.089 0 .011 0 .022-.011.044v.022c.011.022 0 .022 0 .022v.022.044.044c0 .022.022.022.022.033s-.011.011 0 .022l.011.022c0 .011-.011.011-.011.022s.011.011.011.022c0 .022-.011.033-.022.044s-.011.011-.011.022.022.011.022.022h-.022c0 .011-.011.055.011.055 0 .011-.022.033 0 .022 0 .022 0 .033-.011.044-.011.022.011.022.011.033v.011c.011.022.011.022.011.033v.022c-.011.022-.011.022 0 .022v.011c0 .011 0 .022-.011.033-.011.022 0 .044-.011.055 0 .022-.011.044-.011.067s.011.033 0 .055 0 .033 0 .055c.011.011 0 .044 0 .055v.022c0 .011 0 .022-.011.022-.011.011 0 .011 0 .022s0 .011-.011.022c0 .011.011.033.011.044.011 0 .044-.011.055-.022.011 0 .011-.011.022-.011l.011-.011h.011c.011 0 .011-.011.011-.022l.022-.022.022-.022c.011 0 .022-.011.022-.011.022-.011.022-.022.033-.022.011-.011.033-.022.056-.033.011-.011.011-.011.022-.011s.022-.011.022-.022c.011-.011.033-.022.055-.033.011-.011.033-.022.055-.033.011-.011.022-.011.033-.022s.011-.022.022-.022.022 0 .033-.011.022-.011.022-.022c.044-.044.111-.067.155-.1l.255-.155a.63.63 0 0 1 .144-.089c.044-.022.089-.066.144-.078-.011-.011.022-.022.022-.033.011-.011.022-.011.033-.022s.022-.011.033-.011.022-.011.033-.022c.022-.011.033-.033.055-.033.022-.011.033-.011.055-.022.011-.011.033-.022.056-.044.011-.011.022-.022.044-.022.011 0 .033-.011.044-.022.022-.011.033-.022.055-.033.011-.011.033-.011.044-.022l.011-.011c.011-.011.022-.011.033-.022s.033-.011.044-.022c.022-.011.033-.022.055-.033s.033-.011.055-.022.033-.022.056-.022c.011 0 .033-.022.044-.033s.011-.011.011-.022c.011-.011.011 0 .022 0 .022 0 .033-.022.044-.033l.011-.011v-.011c0-.011.022-.022.033-.022s.011.011.022.011.022-.011.022-.011c.011 0 .022-.011.022-.011.011 0 .022 0 .022-.011.011-.011.022-.022.044-.033.011 0 .011-.011.022-.011h.011l.011-.011.011-.011h.011c.011 0 .011-.011.011-.022.011-.011.011 0 .022-.011.011 0 .022-.011.022-.011.011-.011.011 0 .022-.011l.022-.022c.011 0 .022-.011.022-.011l.022-.022c.011 0 .022-.011.033-.011.011-.011.022-.022.044-.022l.111-.067c.022-.011.033-.022.055-.033.011-.011.011 0 .022 0s.011-.011.022-.011c.022-.011.022-.033.044-.033.022-.011.033-.011.056-.022.033-.022.066-.044.1-.055.022-.011.033-.022.056-.033s.033-.022.055-.033a1.19 1.19 0 0 1 .122-.067l.111-.067c.011 0 .011-.011.022-.011.011-.011.022-.011.033-.011l.011-.011h.011c.011 0 .011-.011.022-.022.033-.022.067-.044.111-.055.044-.022.066-.056.111-.067 0-.011.022-.011.033-.011s.022-.011.033-.022.022-.011.033-.022l.089-.055c.011-.011.011-.011.022-.011s.022 0 .033-.011.033-.022.044-.033c.044-.022.078-.033.111-.066.011-.011.011-.011.022-.011.011-.011.022-.011.033-.022.022-.011.044-.022.055-.033l.233-.144c.033-.022.066-.033.111-.055.022-.011.044-.033.067-.044.011 0 .022-.011.022-.022.011 0 .022-.011.022-.011l.022-.022c.011 0 .022-.011.022-.011.011-.011.033-.022.044-.022.022-.011.022-.022.044-.033s.044-.033.067-.044c.011 0 .011 0 .022-.011s.022-.022.033-.022.011-.011.022-.011.022-.011.011-.033c0-.033-.011-.022-.022-.033-.022-.011-.033-.011-.055-.033l-.022-.022c-.011-.011-.022-.011-.022-.022-.011-.011-.022-.033-.033-.044l-.022-.022c0-.011-.011-.022-.011-.033s0-.022-.011-.033c0-.011-.011-.011-.011-.022-.011-.011-.011-.011-.011-.022v-.033c-.011-.022-.011-.033-.011-.056v-.066-.133-.067c0-.011-.011-.022-.011-.033v-.033-.033c0-.011-.011-.022-.011-.033-.011-.022.011-.033.011-.044s0-.022.011-.044l.011-.011v-.011-.033-.078c0-.022-.011-.055 0-.066.011-.022.011-.044.011-.078 0-.022-.011-.044-.011-.066-.011-.022-.022-.033-.011-.056.011-.033.011-.055.011-.078v-.033c0-.011.011-.022.011-.033.011-.022.011-.033.011-.055v-.022c-.022-.022-.011-.033-.011-.055v-.022c-.011-.022-.011-.044 0-.044l.022-.022v-.033h-.011v-.033-.011h.011v-.033-.056-.022c0-.044 0-.1.011-.144V11.6c0-.022.011-.044 0-.066-.011-.011 0-.011 0-.022.011-.011 0-.022 0-.033v-.066-.155-.144-.033c0-.011-.011-.011-.011-.022-.011-.011-.011-.022-.011-.022 0-.011-.011-.022-.011-.033-.022-.033-.067-.066-.1-.066-.022 0-.044.011-.067 0l-.011-.011h-.011c-.022-.011-.022-.011-.033-.011s-.022 0-.033.011-.033 0-.055 0-.033.011-.056.033c-.011.011-.022 0-.033.011l-.022.022c-.011.011-.022 0-.033.011 0 0-.011.011-.022.011-.022.011-.022.044-.044.044-.011 0-.022 0-.033.011s-.011.011-.022.011c-.011.011-.011.011-.011.022s-.011.011-.011.022.011.011 0 .022-.033.022-.044.022c0 .022 0 .044-.011.066-.011.011-.011.011-.022.011l-.022.022c-.022.011-.033.033-.055.044-.011.011-.022.022-.022.033-.011.011-.011.011-.022 0l-.022-.011s.022.011.022.022c0 .022 0 .044-.011.055s-.033.022-.044.033c-.011 0-.022.011-.022.011-.011.011-.011.011-.011.022.011.022 0 .044-.011.067 0 .011-.011.022-.011.022 0 .011 0 .022-.011.033h-.011v.022s-.011-.011-.022 0l-.011.011c-.011.011 0 .011.011.022v.033.033.022l-.011.011c0 .011.011.011.011.033 0 .011-.011.022-.022.022-.011.011-.022.022-.011.033s.022 0 .033.011-.011.022-.022.033c-.022.011-.022.011-.033.011.022-.022-.022-.033-.022-.022s.011.011.011.022h-.011c-.022.033 0 .044.022.044.011 0 .022 0 .022.011s-.011.011-.022.011c0 .011-.011.011-.011.022s.011 0 .011.022-.022.011-.044.022c.011.011.022 0 .033 0s.011.011.022.022c-.011.022-.033.011-.055.011-.011 0-.033.022-.033.033s.011.022.011.022v.033c0 .011.011.011.011.022s0 .022-.011.022l.022.022c0 .011.011.011.011.022.011.011.022.022 0 .044-.011.011 0 .044-.022.033h-.022c.033.044-.022.022-.033.033.011.011.022.011.022.033-.022.011-.033 0-.044 0v.033c0 .011 0 .011-.011.022.011.033.033.044.044.044.011.011.011.022 0 .022 0 .011 0 .022.011.022 0 .011-.011 0-.022.011 0 .011.011.011.011.022v.022c0 .011-.011.011-.011.022 0 0 .011.011.022.011.011.011.022.011 0 .022-.011 0-.011 0-.022.011s-.022.011-.022.011c0-.011 0-.033-.011-.044-.022-.011-.011.022 0 .022v.022c.011.011-.033.033-.011.044 0 .011-.022.022-.011.033s.011.022.022.022c-.011.011.011.011.011.022h-.022c-.011.022-.011.033-.011.033v.067.055.066.033c0 .011-.011.022-.011.033s.022.011.022.011c0 .011-.022.011-.022.022s.011.011.022.011c.011-.011.011-.022.022-.022h.011c0 .011 0 .033-.011.044s-.033 0-.033.022c0 .011.011.011.011.022-.022.022-.011.022-.011.033s0 .022.011.033.011.022.011.033c-.011 0-.033-.011-.044.011s.033.011.044.022c-.011.022.011.011.011.011s.011.022.011.033c0 .022-.022.022-.022.044l.011.022s-.011.022-.011.033-.022.011-.022.022l.011.022c0 .011 0 .022.011.033s.011.022 0 .022c-.022 0-.011-.055-.033-.044 0 .022.011.033.011.044s0 .033.011.044.022.011.022.033v.044c-.011 0-.022-.011-.022.011 0 .011-.011.022-.022.022l-.022.022c-.011.011.022.033-.022.022v.022c-.011.022-.011.022-.011.033l-.011.011c0 .011.033.011.011.022-.011 0-.011 0-.022.011l-.011.011h-.011v.022.044c-.011.022-.067.011-.044.033.022.011-.011.022-.022.011 0 .011-.011.022-.022.033l-.011.011c-.011.011-.022.011-.033.011-.022.022-.033.022-.044.033l-.022.022c-.022.011-.033.011-.055.022-.011 0-.011.011-.022.011h-.022c-.011 0-.011.022-.033.022-.011 0-.022 0-.033.011s-.022.011-.033.022c-.033.011-.055.022-.078.033-.033.011-.055.011-.089.011-.022.011-.055 0-.078 0h-.022-.022c-.011 0-.022-.011-.044-.011-.033 0-.055-.022-.078-.044s-.044-.022-.056-.055c0-.011-.011-.022-.011-.044 0-.011-.011-.011-.011-.022v-.011c-.022-.033-.022-.067-.022-.089v-.033-.033-.044c0-.022-.011-.022-.011-.044v-.033-.056-.044-.022s-.011-.011-.011-.022.011-.022.011-.044v-.044c0-.033 0-.066.011-.1v-.044c0-.011.022-.033 0-.033v-.033-.044-.044c0-.011.011-.044 0-.056v-.033-.033-.055-.067-.022-.022-.089-.089-.044-.055-.022c0-.011.011-.022.011-.033v-.022c0-.011 0-.044.011-.055 0-.011-.011-.022 0-.022-.011-.011 0-.033 0-.044v-.044-.044c0-.022.011-.022.011-.044v-.033-.089-.089c0-.033.011-.055 0-.089v-.022-.022c0-.011-.011-.011-.011-.022 0-.033.011-.066 0-.1v-.089-.089c.011-.044 0-.078.011-.122 0-.044.011-.089.011-.144v-.067c0-.022.011-.044.011-.078a.54.54 0 0 1 .044-.122c.011-.022.011-.033.022-.055s.022-.033.033-.056.011-.033.022-.044.022-.033.033-.044.022-.033.033-.044c.011-.022.022-.044.044-.055.022 0 .022-.022.033-.022 0 0 .011 0 .022-.011l.022-.011c.022-.022.033-.022.044-.033.022-.011.033-.022.055-.033s.033-.033.055-.033h.022c.011 0 .022-.011.033-.011.022-.011.044-.022.067-.022.044-.011.089-.022.144-.022a.14.14 0 0 1 .066.011c.022.011.056.011.067 0l.022-.022c.011 0 .022-.011.022-.011.022-.011.044-.011.067 0h.022c.011 0 .022 0 .022.011s.011.022.022.022h.044c.011 0 .022 0 .033.011.011 0 .022 0 .022.011.022.011.033 0 .055 0h.033c.011 0 .022-.011.022-.011.011 0 .022-.011.022-.022.011 0 .022 0 .033-.011.022-.011.033-.022.055-.022.011 0 .044-.022.044-.033l.022-.022c.011 0 .011-.011.022-.011.011-.011.033-.022.044-.033s.011-.033.022-.044.011 0 .022-.011.011-.011.011-.022c.011-.033.055-.055.078-.089.011-.011.022-.011.033-.022.011 0 .011-.011.022-.022s.022-.022.033-.044.022-.033.044-.044c.011-.011.022-.011.033-.022s.011-.022.011-.022c.011-.011.033-.022.044-.033.022-.011.033-.022.055-.033l.111-.066c.022-.011.033-.022.055-.033.011-.011.033-.011.044-.022l.022-.022c.011-.011.033-.011.055-.022.011 0 .022-.011.033-.011h.033.022.011c.011 0 .011-.011.022-.011.022 0 .044-.011.066-.011h.067c.022 0 .044 0 .078.011.022 0 .044 0 .067.011a.54.54 0 0 1 .122.044c0 .011.022.022.022.022.011.011.022.011.022.022.011.011.022.044.033.044 0-.011.022-.044.022-.011 0 .011-.011.011-.011.022s0 .011.011.022l.022.022c.011.011.011.011.011.022 0 .022 0 .033.011.044s.022-.022.022-.011l-.011.022c0 .022.011.033.011.055v.033c0 .011.022.011.033.011.011.011.011.033.022.044 0 .011-.033 0-.044 0 0 .022-.011.044 0 .066 0 .011.011.011.022.022s.011.033.022.033.022-.011.033 0c-.011.033-.022.022-.022.033-.011.011 0 .022 0 .044 0 .011 0 .011.011.022s.022 0 .022.011-.011.011-.022.011c-.022.011-.011.011-.022.011-.022 0-.022.011-.022.022-.011.022-.011.044-.011.066v.033c0 .011 0 .022.011.022v.022c-.011.022-.011.033-.011.044.011.011.022-.011.022-.011.011-.011.033-.044.033-.033v.022.022c-.011.022-.011.044 0 .066.022 0 .011.033.022.011 0 .011 0 .022-.011.022s-.011-.011-.022-.011-.011.011-.022.022c0 .011.011.011.011.022s.011.022 0 .022c0 0-.022 0-.022.011s.022 0 .022.011c-.011.011 0 .022-.011.033-.022.022-.011.022 0 .033s.011.022.011.033c0 .022 0 .022.022.033l-.011.011v.011c-.011.011-.011 0-.022 0h-.022-.022c0 .022-.011.056 0 .066 0 .011.011.022.033.022.011 0 .022 0 .011.011 0 .011-.011.011-.022.011s-.011 0-.022.022v.033c.022 0 .011.011.011.011 0 .011.022.011.022.022-.022.011-.033 0-.044.011l-.011.044.011.011c0 .011-.011.022-.011.033v.078.078.078.078.044c0 .011.011.011.022.011.011.011.011.011.011.022s.011.011 0 .022h-.033c0 .022.011.011.011.022l-.011.011v.011c0 .011 0 .022.011.022s.022 0 .011.022c-.011.011-.022 0-.022.011.011.022 0 .022 0 .033v.022.022c.011.011.022.011.033.011.022.011.011.011 0 .022 0 .011-.022 0-.022.022 0 .011 0 .011.011.022.011.022.011.022.022.033.022.022.022.011.011.022l-.011.011v-.022c-.011.022-.011.022-.022.033 0 .011-.011.011-.011.022s.011.011.011.022v.022.055c-.011.011-.011 0-.022-.011-.022 0-.011.011-.011.011v.033c0 .011-.011.011-.011.022s.011.011.022 0-.011-.022.011-.022.011.011.011.022v.011.011c-.011.011-.022 0-.033 0s-.011.011 0 .022c0 0 .033 0 .022.011s-.022 0-.033.011 0 .044.022.044c.011 0 .022-.011.022.011 0 .011 0 .022-.011.022s-.011-.011-.022-.011-.011.022-.011.022c.011.011.011.011.011.022s0 .011-.011.022-.011.011 0 .022v.011l-.011.011c0 .011.011.011.022.011s.022 0 .033.011c0 .011-.044.044-.011.044 0 .011-.011.022 0 .033 0 .011.022 0 .022 0l.022.011c.011.011.011.022 0 .022-.011.022-.022.033-.033.033 0 .011.011.011.011.022h-.011c.011.011 0 .011.011.022.011 0 .022 0 .022-.011.011 0 .011.011.022.011v.022c0 .022 0 .044.011.044s.022-.011.022.011v.011.011c0 .011.011.022.011.011.011-.011.033 0 .033.011.011.011 0 .022.022.044.011.011.022.022.044.022v.011c.011 0 .022.011.033.011h.044c.044 0 .078-.022.111-.033.022-.011.044-.011.055-.022.011 0 .044-.011.044-.022.011 0 .022 0 .022-.011.011-.011.033-.011.056-.022.011-.011.033-.011.044-.022.011 0 .011-.011.022-.011.011-.011.022-.011.033-.011h.011l.011-.011c.011 0 .022-.011.022-.011 0-.011.011-.011.022-.011l.011-.011c.011-.011.022-.011.033-.022.011 0 .011 0 .022-.011.022-.022.044-.022.055-.033h.011c0-.011.022-.011.022-.022.011 0 .011 0 .022-.011.022-.011.022-.011.033-.011l.067-.033c.011-.011.033-.022.044-.022.011-.011.033-.022.044-.022.011-.011.044-.011.044-.022.011 0 .022-.022.033-.022l.011.011c.022-.011.022-.022.033-.022.011-.011.033-.022.044-.033.033-.022.067-.033.111-.044.033-.011.044-.022.067-.033.022 0 .044-.011.055-.011s.022 0 .033-.011l.011-.011h.033.022c.033 0 .067-.011.1-.011.011 0 .022.011.044.011.011 0 .022.011.033.011h.033c.011 0 .022.011.044.011h.044c.011 0 .022.011.033 0-.011-.011-.011-.011-.011-.022.011 0 .022.011.022 0 .022 0 .011.022.011.022 0 .011.022.022.033.011.022 0 .022.022.033.022.011.011.011.011.011.022l.011.011.022.022c0 .011.011.011.011.022.011.011.011.011.011.022s.011.011.011.022.011.011.022.022c0 .011 0 .022.011.022v.033l.011.022c0 .011.011.011.022.022 0 .011-.011.011-.011.022s.011.011.022.011c.011.011.011.022 0 .022l.344.111zm-12.196 1.297c.011 0 .022-.011 0 0 .033-.011.044-.022.055-.022s.033-.011.044-.011c.033 0 .067 0 .1-.011 0-.011.033-.011.044-.011h.033c.011 0 .011-.011.022-.011.022 0 .044-.022.067-.022s.044-.011.066-.022c.011-.011.011-.022.033-.022.011 0 .022-.011.044-.011s.033 0 .044-.011v-.011c-.011 0-.011.011-.022.011 0-.022.011-.022.033-.022l.011-.011c.011 0 .033.011.044 0s0-.033.022-.022c0-.011.011-.011.022-.011s.011-.011.022-.011h.011.011c.022.011.033 0 .044 0 0-.011 0-.022.011-.022v-.011s0 .022.011.022c0 0 .011 0 .022-.011v-.011c.011-.022.022-.011.022-.011.011 0 .022 0 .033-.011v-.011h.011c.011 0 .011-.011.022-.011s.022 0 .033-.011c.011 0 .022 0 .033-.011h.022.022.011c.022 0 .044.011.067.011.011 0 .022 0 .033.011.011 0 .011.011.022.011.022.011.022.011.033.033l.022.022v.011c.011.022.022.022.022.033l.022.022c.011.011 0 .011 0 .022l.011.011v.011c0 .011.011.011.011.022l.011.022h.011c0 .011.011.011.011.022.011.011.011.022.011.022 0 .011-.011.011-.011.022s0 .022.011.022c0 .011 0 .022-.011.033v.033c0 .011-.022.066 0 .066 0 .022-.011.033-.011.056 0 .011-.011.011-.011.022s0 .022-.011.022c-.011.011-.011.011-.022.011-.011.011-.011.011-.011.022-.011.011-.011.033-.022.044-.033 0-.044.056-.066.066-.011 0-.011 0-.022.011l-.011.011h-.011l-.033.033c-.011.011-.033.022-.044.033-.011 0-.011.011-.022.011l-.022.022h-.011l-.033.033c-.011.011-.033.022-.044.033s-.033.022-.044.022c0 .011-.022.022-.033.022-.011.011-.022.011-.033.022 0 0-.011 0-.022.011l-.022.022c-.022 0-.022.011-.022.011l-.033.033c-.011.011-.011.011-.022.011h-.022c-.011.022-.022.033-.033.033a.24.24 0 0 0-.033.056c-.011.011-.022.033-.033.044s-.022.033-.033.044-.022.033-.033.044-.011.022-.022.022c0 .011 0 .022-.011.022s-.022.022-.022.033c-.011.011-.011.022-.022.033s-.011.022-.011.044c0 .011 0 .022.011.033-.011.022-.033.011-.033.033l-.011.022c0 .011.011.011.022.011-.011.011-.022 0-.022.011s-.011.022 0 .033v.033c0 .011.011.022 0 .033s-.022.011-.033.033v.033c0 .011-.011.022-.011.022v.033.033c0 .011.011.022.011.022l-.022.011c-.011 0-.011 0-.022.011s-.022 0-.022.011c.011 0 .033.022.011.033-.011.022-.011.022-.022.022 0 .011-.011.022 0 .033 0 .011 0 .022-.011.033v.033c-.022.011-.011.011 0 .011v.011c0 .022-.011.033-.011.055v.067.022c0 .011.011.011.011.022 0 .022-.011.033-.022.044v.067c0 .011.022.044-.011.044 0 .011 0 .022.011.033-.011.011-.011.011-.011.033v.067.067.033.033.033.033c-.022 0 0 .011 0 .022s-.011.022-.011.033v.033.078.055.055c.011.022 0 .011 0 .022s.011.033.011.044.011.022 0 .044c0 .011 0 .033-.022.033-.011.022 0 .044 0 .055s0 .011-.011.022v.033.067c0 .022 0 .044-.011.066 0 .022 0 .044-.011.078 0 .011-.011.022-.011.044 0 0-.011.011-.011.022v.022c-.011 0-.022.033-.022.044-.011.011-.011.033-.022.044-.011.022-.022.033-.022.044-.011.022-.022.033-.033.055l-.022.022c-.011.011-.011.011-.011.022-.011.022-.044.033-.055.056 0 0-.011.011-.011.022s0 .022-.011.022h-.022c-.011 0-.011.011-.022.022s-.011.011-.022.011l-.022.022c-.011 0-.011.011-.022.011s-.022.011-.022.011l-.022.011-.011.011h-.011c-.011 0-.011.011-.022.011-.022.011-.033.011-.044.033-.011.011-.055 0-.055.022h-.022c0 .011-.022.011-.033.011-.022 0-.033.022-.055.022h-.033l-.011.011h-.011-.066c-.011 0-.044-.022-.044 0-.011-.011-.022-.011-.033-.011s-.022-.011-.033-.011v-.011h-.011c-.011-.011-.011-.011-.022-.011v-.011l-.022-.022c-.011-.011-.022-.011-.022-.022s-.011-.011-.011-.022v-.022l-.011-.022c0-.011-.011-.022-.011-.022v-.022c0-.011-.011-.011-.011-.022-.011-.022 0-.044-.011-.067v-.066-.067-.067c0-.022-.011-.044 0-.066 0-.011 0-.022.011-.033 0-.022-.011-.022-.011-.033v-.022-.033c0-.022.022-.033.022-.056v-.066c0-.022.011-.044.011-.067 0-.011 0-.033-.011-.033 0-.011-.011-.011 0-.022.011-.022.011-.033.011-.055v-.066c0-.011 0-.022-.011-.022 0-.011-.011-.011-.011-.022s.011-.022.011-.033v-.033-.033-.033c0-.011.011-.022.011-.022 0-.011 0-.022.011-.033l.011-.011v-.022c0-.011 0-.011-.011-.022-.011-.022 0-.033 0-.055 0-.011-.011-.022-.011-.033s.011-.011.022-.022c0 0 .011-.033 0-.033-.022.011 0-.067 0-.078-.022 0 .011-.022 0-.033.011-.011 0-.022 0-.033-.022 0-.022-.055 0-.055.011-.022.011-.044.022-.067 0-.011.011-.022.011-.022v-.022-.022-.044c0-.011 0-.044.011-.044-.011-.011 0-.022 0-.022v-.033c0-.022 0-.044.011-.066 0-.022.011-.033.011-.056v-.067-.066-.067c0-.022.011-.044.011-.066v-.033-.033c0-.044.011-.078.011-.122 0-.033.011-.066.011-.1v-.044c0-.011.011-.033-.011-.033 0-.011.011-.022.011-.022v-.033-.055c0-.044 0-.078.011-.111a.4.4 0 0 1 .022-.122c.011-.022.011-.055.022-.078 0-.022 0-.044.022-.055-.011-.011 0-.022 0-.033 0-.022.011-.033.022-.055s.011-.044.022-.056c.011-.022.022-.033.022-.044s0-.011.011-.022.011-.022.022-.022c.011-.011.022-.033.033-.044l.044-.044c.033-.033.055-.044.089-.078l.011-.011c.022-.011.022-.022.033-.022s.011-.011.022-.022.022-.011.033-.011.011-.011.022-.011.022 0 .022-.011c.011-.011.011-.011.022-.011l.067-.033c.022-.011.055-.011.078-.022.078.011.089 0 .078.022zm-1.408 1.175c0 .022-.044.011-.067.022-.011.011-.011.056-.011.078s.011.055.022.078c.011.011.011.033.022.044.011.022 0 .022-.011.044 0 .011-.011.044-.011.044 0 .022.022.022.022.044 0 .011-.011.033-.011.044l-.033.067c0 .011-.011.033-.011.044s.011.011.011.022v.022.066c-.011.022-.011.022-.011.056 0 .011.011.022.011.033s-.011.011-.011.022c-.011.022.011.033 0 .055 0 .022-.011.044-.022.055 0 .011-.011.044-.011.055 0 .022-.022.033-.022.044v.055c0 .033.011.078.011.122 0 .022-.011.033-.011.055-.011.022 0 .033 0 .055v.055c0 .022.011.044 0 .055 0 .011-.011.011-.022.022s0 .011 0 .033c0 .033 0 .055-.011.089l-.011.011c-.011.022 0 .044 0 .066v.067.067c0 .022 0 .033-.011.055 0 .011-.011.022-.011.022v.033c-.022.022-.011.044-.011.067s-.011.033-.022.055v.067c0 .022-.011.033-.011.055s0 .044-.011.067v.033c0 .011-.011.022-.011.033v.066.033c0 .011-.011.011-.011.022v.066c.011.011.011.011.011.022v.022c-.011.022-.022.033-.022.044 0 .022 0 .033.011.044.011.022 0 .044-.011.067.022.022.011.067.011.089.022 0 0 .022 0 .033s0 .022-.011.044c0 .022 0 .033-.011.044 0 .011-.011.033-.011.033 0 .011 0 .011.011.022 0 .011 0 .022-.011.033-.011.022-.011.044-.011.066v.033c0 .011-.011.011-.011.022-.011.022 0 .044 0 .066-.011.022-.022.033-.033.055v.044c0 .022-.011.022.011.011.022 0 .055-.033.055.022 0 .011-.011.022-.011.044 0 .011 0 .011-.011.022h-.022c-.022 0-.033-.011-.033-.022-.022.011-.011.044-.022.066-.011.011-.033.011-.044 0-.022-.011-.022.011-.033.033-.022.022-.044.055-.067.067-.011.011-.033.022-.044.033-.022.011-.022.022-.044.033-.011.011-.033.022-.044.033-.022.022-.055.033-.078.044-.011.011-.033.022-.044.022s-.022.011-.022.011c-.011 0-.011.022-.022.022-.011.011-.044 0-.055.011-.011 0-.011.011-.022.011h-.033c-.033 0-.078 0-.111-.022-.011-.011-.033-.011-.056-.022-.011 0-.011 0-.022-.011s0-.022-.011-.022c0-.011-.022-.022-.022-.044s-.011-.033-.011-.055c0-.011-.011-.033-.022-.055 0-.022.011-.044 0-.055.011-.011 0-.055 0-.078v-.089-.177c0-.044.011-.078.011-.122v-.055-.055-.055c0-.022.011-.033.011-.055 0-.078.011-.144.011-.222 0-.033.011-.067 0-.1h-.011v-.022c.011-.044.011-.078.022-.122.011-.033.022-.078.022-.111 0-.022-.011-.044-.011-.055 0-.022.011-.033.011-.056 0-.011-.044-.122.011-.078.011-.022 0-.066.011-.089-.011-.022-.011-.055 0-.078 0-.022.011-.066 0-.078.033-.066.022-.155.022-.222v-.044c0-.022 0-.033.011-.044 0-.033.011-.078.011-.1 0-.011-.011-.044-.011-.055 0-.022.022-.011.011-.044-.022-.011 0-.122 0-.144 0-.044.022-.078.022-.122s.011-.089.011-.144c0-.044 0-.089.011-.133s.033-.078.011-.111c.022-.011.022-.078.022-.1.011-.022.022-.055.033-.078l.089-.2c.011-.033.033-.067.055-.089s.044-.066.066-.066c0-.022.022-.033.044-.044.011-.011.011-.022.022-.022.011-.011.022-.011.033-.011l-.011-.011c.011-.022.033-.022.056-.033s.033-.033.055-.044a.46.46 0 0 1 .2-.089c.033-.011.078-.022.122-.022.022 0 .044.011.067.011.011 0 .033.011.044.011s.011.011.044.044c.022.011.022.022.033.044s.022.055.022.078.011.033.011.044.011.022.011.022v.011c-.022 0-.022.056-.011.067-.011-.033-.011 0 .022 0zm.399-2.229c-.011.022-.011.033-.011.033v.033c0 .011.011.011.011.022h-.011v.011c-.011.011-.011 0-.011.022 0 .011 0 .022-.011.033l-.033.033-.022.011v.022c-.022.022-.022.033-.022.044-.011 0-.022.022-.022.022l-.022.022c-.011 0-.022 0-.022.011s.011.011.011.022c-.011.011-.011.022-.022.022-.011.011-.022.022-.044.033-.011 0-.011 0-.022.011 0 .011-.011.011-.011.022-.022.011-.044.022-.044.033 0 0-.033.022-.033.033-.011 0-.011.011-.011.022-.011.011-.011.011-.022.011-.011.011-.011.022-.022.022s-.022 0-.022.011c-.011.011-.022.011-.022.022-.011 0-.011.011-.022.011l-.022.011c-.022.011-.022.011-.033.022-.011 0-.011.011-.011.022 0 .022-.044 0-.044.022-.011 0-.022.011-.033.011 0 .011-.022.011-.011.022h-.022c-.011-.011-.022 0-.033 0-.022.011-.022.011-.033.011s-.022.011-.022.011c-.011 0-.022-.011-.033-.011h-.033-.022c-.022 0-.033.011-.044.011l-.011-.011.011-.011c-.011-.011-.022-.011-.033-.011h-.022l-.033-.033c-.011-.011-.011-.022-.011-.044l-.022-.011c-.011-.011 0-.022-.011-.022l-.011.011v-.011c0-.011-.011-.022-.011-.044v-.022c-.011-.022-.011-.022 0-.033v-.022c0-.011-.011-.011-.011-.022v-.056-.044l.011-.011v-.022c0-.011.011-.022.011-.033v-.033l.011-.011v-.011c0-.011.011-.011.011-.022.011-.011.011-.011.011-.022.011-.011.011-.022.011-.033v-.033c0-.011.022-.011.022-.022l.022-.022c.011-.022.022-.044.044-.066.011-.011.022-.022.033-.022l.033-.033c.011-.022.022-.022.044-.033.011-.011.033-.022.044-.033.022-.022.055-.044.078-.066.011-.011.022-.011.033-.022s.022-.011.033-.022.033-.022.044-.022c.011-.011.022-.011.033-.011s.022-.011.022-.011c.022-.011.033-.022.055-.022h.033v-.011h.022c.011 0 .022-.011.033-.011h.033c.022 0 .033-.011.055 0s.011 0 .022 0 .022 0 .022.011h.011c.022.022.022.022.033.022v.011c.022-.011.022.011.022.022s.011.011.011.022v.022l.011.022c.011.022.011.022.022.033v.022c.022.011.022.022.022.033s0 .033.022.033v.033c.044-.011.055.011.044.033zm-2.417 2.994c.011-.011.022-.011.022-.022.011-.011.011-.022.011-.033s0-.022.011-.022v-.044c0-.011.011-.022.011-.033v-.033-.011l-.011-.022v-.011c-.011-.022-.011-.022-.011-.033 0-.044.022-.089.033-.144v-.033c.011-.011.022-.011.033-.011.022 0 .022-.011.022-.022.011-.011.011-.022.011-.033s.011-.022 0-.033-.011-.011-.022-.011v-.011c0-.011.011-.011.022-.022.011 0 .011-.022.011-.033l-.022-.022c0-.011 0-.022.011-.033s.011-.011.011-.022v-.011-.011c0-.011-.011-.011-.011-.022s0-.022.011-.033c0-.011 0-.022.011-.033v-.033c0-.011.011-.022.011-.044 0-.011.011-.011.011-.022v-.011c.011-.011.011-.011.011-.022v-.044-.022c0-.022 0-.022.011-.022v-.022c0-.011 0-.022.011-.033 0-.011.011-.022.011-.033v-.033-.033-.033c0-.011.011-.022.011-.022 0-.011.011-.022.011-.033v-.033c0-.011.011-.011.011-.022v-.022-.011-.022c0-.011.011-.022.011-.033.011-.022.011-.044.022-.067 0-.011.011-.022.011-.033s0-.033.011-.022c-.011-.022 0-.022 0-.022-.011-.011-.011-.022 0-.022v-.044c.011-.022.011-.022.011-.033.011-.011.011-.022.011-.033s0-.022.011-.033l.011-.011v-.022-.022l.011-.011v-.033-.022c.011-.022.011-.033.011-.033v-.011-.022l.011-.022v-.022-.011c0-.011.011-.022.011-.033s0-.022.011-.033c0-.011 0-.022.011-.033.011-.022.011-.022.011-.033v-.022c.011-.022.011-.022.011-.033s0-.011.011-.022l.011-.011v-.011c0-.011 0-.011.011-.022s.011-.022.022-.022l.011-.011v-.022c0-.011.011-.022.022-.022 0 0 0-.011.011-.022v-.011-.011c.011-.022 0-.044.011-.055 0-.011.011-.011.022-.022 0-.011.011-.022.011-.033s0-.022.011-.033.033-.022.044-.033v-.011l.011-.022v-.011-.033c0-.011.011-.022.022-.033v-.022-.011c.011-.011.011-.022.011-.033s0-.022.011-.033c0-.011 0-.022.011-.033 0-.011.011-.022.022-.033s.011-.022.022-.022h.022l.011-.011c.011 0 .011-.011.022-.022.011-.022.011-.022.011-.033.011-.022.011-.022.022-.022 0-.011.011-.011.011-.022s.011-.011.011-.022v-.011c0-.011.011-.011.011-.033 0-.011-.011-.022 0-.033 0-.011.011-.022.011-.033-.011-.011-.022-.022-.022-.033s0-.022.011-.033v-.033c.011-.022.011-.022.011-.033s.011-.022 0-.033v-.033-.022c.011-.011.011-.022.011-.033l.011-.022c.011-.022.022-.033.011-.044 0-.011-.011-.022 0-.033 0-.011.011-.011.022-.011.011-.011 0-.011-.011-.022v-.033c0-.033.022-.044.033-.066s.022-.044.033-.078.033-.044.033-.078v-.022-.011c0-.022.011-.033.022-.044.011-.022.011-.044.022-.067 0-.011.011-.022.011-.033v-.033c0-.011.011-.022.011-.033v-.022c0-.011.011-.011.022-.011.011-.011.022-.011.022-.033s.011-.044.022-.066c.011-.011.011 0 .022-.011s0-.011.011-.022c0-.011 0-.011.011-.022-.011-.011-.022-.022-.022-.033s-.011-.033 0-.044.011-.022.022-.022c.011-.011.011-.022.022-.033s0-.033.011-.044V11.8s.011-.011.011-.022.011-.011.022-.022c0-.011.011-.022.011-.022v-.022c-.011-.022-.011-.044 0-.044.011-.011.022-.022.022-.033s.022-.033 0-.033c0-.011 0-.022.011-.033 0-.011.011-.011.011-.022.022-.022.011-.022.011-.022-.011-.022-.011-.044 0-.055 0-.011.011-.033.022-.044v-.022c.011-.022.011-.033.022-.055 0-.011.011-.022.011-.033.011-.011.011-.022.022-.033s.011-.022.011-.033v-.022l.011-.011c0-.011 0-.011-.011-.022 0-.011 0-.011.011-.022s.011-.022.011-.033c-.011-.022 0-.022 0-.033 0 0 0-.011.011-.022.011-.022.011-.022.011-.033l.022-.022v-.022-.044-.022c0-.011.011-.011.011-.022v-.022c.022-.022.011-.033.011-.044s.011-.011.011-.022v-.022c0-.011.011-.022.011-.033l.022-.011v-.011-.022-.011-.022-.033c.011-.022.011-.022.011-.033v-.033-.011l.011-.011c.011-.011 0-.022.011-.033v-.022s.011-.022.011-.033c.011-.011.011-.011.011-.022v-.011-.022c0-.011.011-.022.011-.022l.011-.011.011-.022v-.022c0-.011 0-.022.011-.033 0-.011.022-.022.011-.033.011-.033.044-.044.044-.078 0-.011.011-.033.022-.044 0 0 .011-.011.011-.022s-.011-.011-.011-.022c.011 0 .022-.022.033-.033s0-.033.011-.044c0-.011.011-.011.011-.022l.011-.011.011-.022c.011-.022.011-.033.011-.044s.011-.022.011-.022c0-.011-.011-.011-.011-.022v-.033c0-.011.011-.011 0-.022 0-.011.011-.033.022-.044s.011-.033.022-.044c.011-.022.011-.033.022-.055 0-.011.011-.011.011-.022s0-.022.011-.033.022-.033.022-.055v-.011c.022-.022.011-.033.011-.044.022 0 0-.022.022-.022v-.011c.022-.022.022-.044.033-.055l.011-.022.011-.022c0-.011 0-.033.011-.033v-.011c.011 0 .033-.055.033-.067l.067-.144c.011-.022.022-.055.044-.078-.011-.011 0-.022 0-.022.011-.011.011-.011.011-.022s.011-.033.022-.044l.022-.022c0-.011 0-.022.011-.022.011-.011.011-.033.022-.044.011-.022.022-.044.033-.055l.011-.011v-.011c0-.011.011-.022.011-.022v-.011c.011-.022.022-.033.022-.033 0-.011 0-.022.011-.033s.011-.022.022-.033c0-.011 0-.011.011-.022 0-.011.011-.022.022-.044.011-.011.011-.033.022-.044s.011-.011.022-.011c.011-.011.011-.011.022-.011 0-.011 0-.067.022-.055 0-.011 0-.022.011-.033 0-.011.022-.011.022-.011-.022-.011.011-.033.022-.044.011-.022.011-.022.011-.033s.011-.022.022-.033.011-.033.022-.033c.011-.011.011-.011.011-.022s.011-.033.022-.044c.022-.022.044-.044.055-.078l.011-.011h.011l.011-.022c0-.011.011-.022.011-.022l.022-.022c0-.011.011-.011.022-.022s.011-.022.022-.033l.022-.022c.011 0 .022-.011.022-.011l.011-.022.011-.011c.011-.022.011-.022.022-.022l.011-.022c.011-.011.011-.022.022-.022.011-.011.011-.011.011-.022.022-.011.033-.022.033-.033h.033c.011 0 0-.022.011-.022l.022-.022v-.011l.011-.022c.011.022.011.022 0 .022.011.022.033.011.033 0l.022-.022c.011-.011 0-.011 0-.022v-.022c.011-.011.011 0 .022-.011v-.022c.011.022 0 .022.011.022h.022l.011-.011v-.011l.011-.011h.022c.011.011.011.011.011.022h.011l.011-.011c.011-.022.022-.022.022-.022v-.022l.011-.011c.011-.011.011-.022.022-.011v-.011-.033c0-.011-.011-.022 0-.033 0-.011.011-.022.022-.022h.011c.011-.011 0-.022 0-.022.022-.011.022-.011.022-.022v-.011c.011-.011.011-.022.022-.022l.011-.011v-.011l.011-.022.022-.022c0-.011.011-.022.022-.033s.011-.022.011-.033l.011-.011c0-.011.011-.022.011-.033s0-.022.011-.033.011-.022.022-.022v-.022c0-.022 0-.033.011-.044 0-.011 0-.022.011-.033v-.022-.022-.033-.067-.033c0-.011-.011-.011-.011-.022v-.022-.022-.033c0-.011-.011-.022-.011-.033v-.011c0-.011-.011-.011-.011-.022v-.022c0-.011-.011-.022-.011-.033-.011-.022-.011-.022-.011-.033s-.011-.011-.011-.033v-.022l-.011-.022c-.011-.011-.011-.033-.022-.044l-.022-.022c-.011-.022-.033-.033-.044-.055-.011-.011-.022-.011-.022-.022-.011-.011-.011-.011-.022-.011l-.022-.011-.022-.022-.011-.022h-.022l-.011-.011c-.011 0-.011-.011-.022-.011l-.022-.022c-.011-.011-.022-.011-.033-.011-.011-.011-.022-.011-.044-.022-.011 0-.022-.011-.033-.011s-.022 0-.033-.011h-.022c-.011 0-.022 0-.022-.011-.011-.011-.011-.011-.033-.022h-.044c-.011 0-.022-.011-.044-.011h-.044-.044-.022s-.011-.011-.022-.011-.011.011-.022.011-.011-.011-.022-.011-.033.011-.055.011-.033 0-.056.011c-.022 0-.022.011-.044.022s-.033 0-.044.011-.033.011-.044.022c-.067.033-.122.078-.189.122-.022.011-.033.033-.044.044s-.022.011-.033.011c-.011.011-.011.022-.011.033-.011 0-.022.011-.033.033h-.011c0 .011-.011.011-.022.022s-.011.022-.011.033c-.011.022-.022.033-.044.044l-.044.044c-.022.033-.044.055-.055.089-.011.022-.022.033-.022.055-.033.011-.044.067-.055.089-.022.033-.033.067-.044.089-.033.055-.056.122-.078.188-.011.033-.022.067-.044.1a.39.39 0 0 0-.044.1.54.54 0 0 1-.044.122c-.011.033-.033.078-.044.111-.033.067-.067.133-.089.211-.011.033-.022.078-.044.111-.011.033-.022.078-.044.111-.033.067-.044.144-.078.211l-.033.067c-.011.033-.011.055-.022.089-.022.055-.033.111-.055.166l-.067.177-.078.233c-.011.033-.033.067-.044.1l-.033.111c-.022.033-.033.078-.044.122-.022.055-.033.1-.044.155l-.067.166c-.022.067-.044.144-.078.211-.066.166-.122.344-.177.521 0 .011-.011.033-.022.044s-.011.022-.011.044c0 .011-.022.033-.033.044-.011.022-.022.033-.022.056-.011.033-.022.078-.022.111 0 .056-.033.1-.044.144-.011.022-.011.055-.022.078-.022.044-.055.1-.066.144-.011.033-.033.066-.033.1-.011.033-.011.067-.022.111-.011.022-.033.066-.022.089-.022.022-.022.067-.033.1s-.011.078-.022.111-.044.067-.044.111c0 .033-.011.078 0 .111 0 .033-.022.033-.033.055a.23.23 0 0 0-.022.067c0 .033 0 .033-.011.066a.16.16 0 0 0-.022.078c-.022.1-.055.188-.078.277l-.033.144c-.011.044-.033.089-.055.144-.033.089-.044.188-.067.288-.011.033-.022.067-.022.1v.044c0 .022-.022.033-.033.055 0 .022 0 .044-.011.078-.011.044-.033.089-.044.133l-.078.288c-.011.078-.044.155-.067.233 0 .033 0 .066-.011.1l-.033.122c-.011.022-.011.056-.022.078 0 .011 0 .033-.011.044 0 .011-.011.011-.022.033s0 .044-.011.067-.011.044-.011.066l-.033.144-.055.211c-.011.033-.011.078-.022.111l-.044.222c-.011.044-.022.078-.022.111-.011.033-.011.078-.022.111s-.033.078-.011.1c-.022.022-.022.066-.022.1s0 .066-.011.1c-.011.056-.033.1-.033.155-.011.044-.011.089-.033.133-.011.033-.011.066-.022.1-.011.055-.022.111-.022.166a2.77 2.77 0 0 1-.055.322.56.56 0 0 0-.022.144c0 .078-.033.144-.044.222 0 .022-.011.055-.022.078-.011.055-.011.111-.022.166-.011.1-.022.211-.055.31-.011.033-.011.078-.011.111-.011.133-.044.277-.055.41-.011.067-.022.133-.022.2 0 .033 0 .067-.011.1v.066s-.011.011-.011.022v.033c0 .044-.011.078-.022.133-.011.011-.011.022-.011.044-.011.011-.011.033-.022.033-.022.011-.022-.022-.011-.033-.022-.022-.011-.022-.044-.011 0-.011-.011-.022-.011-.033-.011-.022 0-.011 0-.033.011-.022.011-.055 0-.089 0-.011-.011-.011-.011-.033 0-.011.011-.022.011-.033 0-.044-.033-.033-.055-.044 0-.011.011-.011.011-.022s-.011-.022-.011-.044v-.078-.067c-.011-.022-.022-.033-.022-.066 0-.022-.011-.044-.011-.067 0-.011.011-.022.011-.022 0-.011-.011-.033 0-.044.011-.033.022-.033.011-.066-.022-.067 0-.055 0-.078 0-.011-.011-.055-.022-.067s-.022-.011-.022-.011c-.011-.011-.011-.011-.011-.033 0-.011-.011-.011 0-.022.011 0 .022 0 .022-.011l-.011-.011c-.022.033-.033 0-.033-.011s.011-.011.011-.022-.011-.011 0-.022.033-.022.033-.033h-.011c-.022 0-.033.011-.033.011 0 .022-.022.011-.022 0v-.022-.022-.033-.033c.011-.011.011-.011.011-.022s0-.022-.011-.022c-.011-.011-.011-.011 0-.022s0-.022.011-.022c0-.011.011-.011.011-.022v-.033l.011-.022c0-.011.011-.011.011-.022v-.044c0-.011-.011-.022-.022-.033 0-.011 0-.022-.011-.033 0-.011-.011-.011-.022-.022v-.033s-.022-.011-.011-.022c0-.011-.011-.011-.011-.022s0-.022-.011-.033c0-.011-.011-.011-.011-.022v-.033c0-.022-.011-.033-.011-.055v-.067-.055c0-.011-.011-.011-.011-.022-.011-.011 0-.011 0-.022s-.011-.011-.011-.022-.011-.022-.011-.033c0-.022 0-.044-.011-.055.011-.011.011-.011 0-.022 0-.011-.011-.022-.011-.033v-.033c0-.011-.011-.011 0-.022.011 0 .022 0 .033-.011l.011-.022c0-.011-.022-.033-.033-.044s-.022-.033-.022-.055v-.044c0-.011 0-.022-.011-.044v-.044c0-.011-.011-.022-.011-.033s0-.022-.011-.033c0-.011-.011-.011-.022-.022-.011-.022-.022-.044-.022-.066v-.022c-.011-.011-.022 0-.022-.011 0-.022.011-.011 0-.022s-.011-.022-.011-.033 0-.022.011-.033.011-.011.011-.033c0-.011-.011-.011-.022-.011-.022 0-.022 0-.022-.022v-.033-.033c0-.011-.011-.022-.011-.033 0-.022.011-.033.011-.044v-.022c-.011-.011-.011 0-.022-.011 0-.044-.011-.078-.022-.122 0-.011 0-.011.011-.022s0-.022-.011-.022c-.011-.011-.011-.044-.011-.066 0-.011 0-.033-.011-.044 0-.011-.011-.033-.011-.044.011-.011.022-.022.022-.033 0 0-.011 0-.022-.011-.011-.022-.011-.022 0-.033-.022-.022-.022-.044-.011-.044v-.022-.011c-.011-.011-.011-.022-.011-.033v-.022-.011-.011s.011-.022 0-.011c.011-.022 0-.022 0-.022 0-.011 0-.011-.011-.022 0-.022 0-.022.022-.022.011-.022 0-.022 0-.022v-.022c0-.011 0-.011-.011-.022v-.022c0-.011-.022-.011-.011-.022 0-.011.011-.011.022-.011v-.022c-.022-.011-.033-.011-.044-.022s-.011-.033 0-.044.011-.011.011-.033c-.022-.011-.022-.022-.022-.033s-.011-.033 0-.044h.022c-.022-.011-.033 0-.033 0l-.011-.011c.011-.011.022-.022.022-.033l-.022-.044c.011-.011.011-.022 0-.022-.011-.022-.022-.044-.022-.055s0-.011.011-.022c.011-.022 0-.044-.011-.055s-.011-.022-.011-.044v-.022-.022-.022c0-.011-.011-.011 0-.022-.011-.033-.011-.055-.011-.078 0-.011 0-.022-.011-.044 0-.011-.011-.033-.011-.044s-.011-.033-.011-.044v-.022-.022-.055-.022c0-.011-.011-.011-.011-.022v-.044-.011c-.011-.022 0-.022-.011-.022 0-.011-.011-.033-.011-.044 0-.022-.011-.033-.011-.044v-.022-.022-.033-.011l-.011-.022v-.011-.033c0-.011-.011-.022-.011-.033v-.022c0-.011 0-.011-.011-.022v-.044c0-.011-.011-.033-.011-.044v-.033c0-.011 0-.022-.011-.022v-.044-.022c0-.011 0-.011-.011-.022-.011-.033-.011-.066-.022-.1v-.044c0-.011-.011-.022-.011-.044-.011-.033-.022-.055-.022-.089 0-.011-.011-.022-.011-.022v-.022c-.011-.022-.011-.022-.022-.033 0-.011-.011-.022-.022-.033l-.022-.022-.022-.022-.022-.022c-.011-.011-.022-.011-.033-.022l-.022-.022-.022-.022c-.011-.011-.033-.022-.055-.033-.011 0-.011 0-.022-.011s-.033-.011-.044-.011-.011-.011-.022-.011c-.022 0-.033-.011-.055-.011h-.044-.033-.044c-.011 0-.033 0-.044.011-.011 0-.033.011-.044.011 0 0-.011 0-.022.011l-.011.011h-.022c-.011 0-.033.011-.044.022s-.022.011-.033.022c-.022.011-.044.022-.055.044s-.033.033-.044.044c-.022.022-.033.044-.055.078a.45.45 0 0 0-.055.1c-.011.044-.033.078-.044.122 0 .011 0 .022-.011.033 0 .011-.011.022-.011.033-.011.022-.011.044-.011.066 0 .011-.011.011-.011.022s0 .011-.011.022-.011.022-.011.044c0 .011-.011.011-.011.022s.011.011 0 .022h-.011v.011c-.011.044-.033.089-.044.133 0 .011-.011.022-.011.022 0 .011 0 .022-.011.033 0 .022-.011.044-.022.056-.011.022-.011.033-.022.055-.022.066-.033.144-.067.211l-.033.066c-.022.022-.011.033-.022.067 0 .033-.011.056-.011.078s-.011.044-.022.067c-.022.033-.022.055-.033.089-.011.022-.022.044-.033.078-.011.022 0 .033 0 .055s-.011.056-.022.078c-.011.044-.033.089-.044.144-.011.044-.033.078-.044.122l-.022.067c-.011.022-.022.033-.022.055.011.011-.011.044-.022.066 0 .033 0 .044-.011.078a.71.71 0 0 0-.044.144c-.011.044-.044.066-.067.111-.011.022-.022.044-.011.078 0 .033 0 .044-.011.078s-.022.078-.044.089c-.011.011-.066.033-.022.055-.011.022-.044.022-.011.055-.011-.011-.022.044-.022.044 0 .022 0 .044-.011.066l-.067.166c-.022.067-.067.133-.078.2h.011c0 .022-.011.044-.011.055-.011.022-.022.044-.022.055v.044c0 .011-.011.022-.022.033-.011.022-.011.044-.022.055 0 .011-.011.033-.011.056-.011.022-.011.044-.011.055-.011.033-.033.078-.044.111l-.033.111c-.022.078-.055.155-.044.244.011.044.011.089.033.122.044.055.089.122.144.155.022.011.055.033.089.033.022 0 .022.011.044.011h.033.044c.011 0 .022-.011.033-.011h.044.022c.011 0 .011-.011.022-.011h.022c.022-.022.033-.022.055-.022.022-.011.056-.033.078-.044l.033-.033.011-.011c0-.011 0-.022.011-.022.011-.011.033.011.044 0s0-.011-.011-.022c-.011-.022 0-.033.011-.055s.011-.022.022-.033.011-.022.011-.033v-.022c.022-.022.022-.011.022-.033v-.033c0-.011.011-.011.011-.022v-.033c0-.022.011-.033.033-.044.011-.011.011-.011.011-.022s-.011-.011-.011-.022c.011-.011.033-.022.033-.033s0-.022.011-.033c0-.011.011-.011.022-.022 0-.011-.011-.022 0-.033 0-.011.011-.011.011-.033s.011-.033.022-.055c.011-.011.011-.022.022-.022s.033 0 .033-.011-.022 0-.033-.011 0-.022 0-.033c.011-.011.011-.022.022-.022v-.022c.022-.011.011-.022.011-.022l.011-.011v-.022l.011-.011v-.011c0-.011.011-.022.011-.033s.011-.011.022-.022v-.011c-.011-.011-.011-.011-.011-.022v-.011-.011l.011-.022c.011-.011.022-.022.011-.022h-.011-.011v-.022h.022c.011 0 .022-.011.011-.011v-.022-.011-.022-.011l.011-.011c.011-.022.011-.022 0-.022-.022 0 0-.011 0-.022s0-.022.011-.033h.011v-.011c0-.011.011-.022.011-.033v-.011h.022c.011 0 .011-.011.011-.022l-.011-.022c0-.011 0-.022.011-.033h.011v-.011-.022c.011-.011.011-.011.022-.011.011-.011.011-.011.022-.011l.011-.011h-.011v-.022c.011-.011.022-.011.022-.022l-.011-.011c0-.011.022-.011.033-.011s.011-.022.011-.033l-.011-.022c0-.022.011 0 .011 0 .011 0 0-.022 0-.022l.011-.022c0-.011.011-.022.011-.033h-.011c0-.011-.011-.011-.011-.022v-.022c.011-.011.022.011.022.011.011-.022.011-.022.022-.022h.022c.022.011.022.011.022 0s-.022 0-.022-.011l-.011-.011v.011c-.011 0 0-.011 0-.022v-.011c0-.011.011-.022.011-.033.011 0 .022.022.044.011v-.011c.011-.022.011-.022.011-.033h.011c.011-.022.022-.022.011-.022 0-.011 0-.011.011-.022l.011-.022.011-.022v-.022c.011-.011.011-.011.011-.022v-.011-.022c.011 0 .011-.011.022-.011h.033l.022.011h.011.011l.022.022c0 .011.011.022.011.022h.011v.033.011.022c0 .011-.011.011-.011.022l.011.011c.022.022.022 0 .022-.011.011-.011.011-.011.022-.011s.022 0 .022.011 0 .022-.011.022c-.011.011-.011.022 0 .022v.022.022c0 .011-.022.011-.011.011s.022.011.022.022c-.011.011-.011.011-.011.022h-.022v.011c.011.011.011.022 0 .022 0 .011-.011.022 0 .033 0 .011.011.011.022.022s0 .011 0 .022c-.011.022-.011.044 0 .067 0 .011.011.022.022.022h.011v.011c.011.011 0 .022.011.022h.011c.011.033.011.044.022.067 0 .022-.011.033-.022.044.011.011.011-.011.022-.011.011.022 0 .044 0 .067 0 .011.011.011.011.022v.033c0 .022 0 .044.011.066a.1.1 0 0 1 .011.055v.044c0 .011.011.022.011.033 0 .022.011.044.011.067.011.022 0 .044.011.067v.033c0 .011.011.011.011.022l-.011.022v.022a.12.12 0 0 0 .011.055c0 .022.011.033.011.055 0 .011 0 .033.011.044 0 .011.011.022.011.044 0 .011.011.022.011.033v.067.011c-.011.022-.011.033-.011.044v.067c0 .011-.011.022.011.022 0 .011-.011.011-.011.022.011 0 0 .055.022.044v.022c0 .011.011.011.011.022V17c0 .022.011.055.011.078a.1.1 0 0 0 .011.055c0 .011.011.022.011.033s-.011.022-.011.022c.011 0 .011.022.011.033s.011.022.011.033c0 .022.011.044.011.067.011.044.022.089.022.133v.033c0 .011.011.011.011.022v.033c0 .011.011.022.011.033 0 .022 0 .033.011.055 0 .011 0 .011.011.022.011.022.011.044.011.067v.033.011c.011.022.011.033.011.044a.14.14 0 0 0 .011.066c0 .011 0 .022.011.033s.011.011.011.033v.067c0 .011.011.011.011.022s-.011.011 0 .022l.011.022v.022c.011.022.011.044.011.067s0 .044.011.055c0 .011 0 .033.011.044v.033c0 .011 0 .022.011.033 0 .011 0 .022.011.033v.044c0 .011.011.033.011.044v.022.022c0 .011.011.022.011.033v.022c0 .011.011.022.011.033v.022c0 .022 0 .022.011.033-.011.022-.011.022 0 .022.011.011.011.033.011.044v.022c.022.022.011.044.011.055s.011.022.011.044v.022c.011.022.011.022.011.033s0 .011.011.022v.044h.011c-.011.011 0 .022 0 .022v.022.022.022.033l.011.022v.044.044c.011.022.011.022.011.033v.022.022.033.022l.011.011v.022.022.022c.011.022.011.033.011.044s0 .022.011.022l.011.011c-.011.022 0 .022 0 .033s-.011.011 0 .022v.011.011c0 .011 0 .055.011.055v.033.022.022c0 .011.011.022.011.033v.022l.011.011v.011.022c.011 0 .011.022.011.033s0 .022-.011.033-.011.011-.011.022v.022c-.011.022-.011.022-.011.033s-.011.022 0 .033c0 0 .011.011.022.011.022.022.033.033.033.044v.022.022c.011.022.011.022 0 .022-.011.011 0 .022-.022.033l-.011.011-.011.011c0 .011-.011.011-.011.022l.022-.011h.011.022c.011.011.011.022.022.022 0 .011.011.022.011.033v.033c0 .011.011.022.011.033s0 .022.011.033c0 .011 0 .011.011.022v.022.011.022.022.022.022c.011.022.022.022.022.033v.022c0 .011.011.011.011.022 0 .022.011.022.011.022v.022c0 .011 0 .033.011.044v.022c-.022.022-.022.044-.011.044.011.011.011.022.022.033s.011.022.011.033v.033.033l.011.011c0 .011 0 .033.011.044 0 .011.011.033.011.044v.033.022.022.011c.011 0 .011.011.011.022v.011.011c-.011.011-.011.011 0 .022l.011.011v.022c.022.033.022.044.022.067s.011.033.011.055v.033.033c.011.011 0 .022 0 .033v.022c0 .011 0 .011.011.022v.022c.011.022.022.033.022.044s0 .033.011.033v.033c0 .011.011.022.011.022v.022c.011.011.011.011.011.022v.022.011c-.011.022.011.022.011.033l.011.022v.022c0 .011 0 .022.011.033l.011.011c.011.011.011.033.011.033 0 .011.011.022.011.022v.011l.011.022v.033.022c.011.022.011.022.011.033v.022.022c.022.022.022.033.022.044v.022c0 .011.011.011.011.022v.022c0 .011.011.022.011.033v.022c0 .022.011.033.011.044v.022c0 .011 0 .022.011.022.022.011.022.022.022.033s.011.022.011.033l.011.011c.011.011.011.022.022.033l.011.011v.011c.011 0 .011.011.022.011l.011.011c.011.011.011.011.022.011s.011 0 .022.011v.011c.022.011.033.011.044.022s.022.011.044.022c.011 0 .011 0 .022.011h.033c.011 0 .022.011.033.011s.011 0 .022-.011h.022.044c.011 0 .011 0 .022-.011h.022c.011 0 .033 0 .044-.011.011 0 .066-.022.066-.022.011-.011.011-.011.022-.011.022-.011.022-.011.033-.022.011 0 .011 0 .022-.011l.011-.011c.011-.011.022-.011.033-.022s.022-.011.022-.022l.022-.022s0-.011.011-.022.011-.022.022-.022c0-.011.011-.011.011-.022s0-.011.011-.022v-.011l.011-.011c0-.011 0-.022.011-.022.011-.011.011-.022.011-.033.011-.011 0-.022.011-.044l.011-.011v-.022c0-.011 0-.022.011-.033l.011-.011v-.022c0-.011.011-.022.011-.033v-.022-.022c0-.022.011-.044.011-.066.011-.022 0-.011 0-.022v-.011c0-.011 0-.033.011-.033.011-.011.011-.022 0-.033v-.022-.022c.022-.011.011-.022.011-.022v-.033c0-.011 0-.022.011-.033 0-.011.011-.022 0-.044 0-.011 0-.022.011-.033v-.033c0-.011.011-.022.011-.044v-.022-.022-.022-.022c0-.011.011-.022.011-.033s0-.022.011-.044c0-.011.011-.011 0-.022v-.011-.033c.011-.011.011-.022.011-.033v-.044-.033-.022-.022c.011-.011.011-.022.011-.033.011-.011 0-.011 0-.022v-.011-.033-.022-.022-.022c.011-.022.011-.044.011-.056v-.044c0-.011.011-.022 0-.033s0-.022.011-.033v-.011-.033-.022c0-.011 0-.022.011-.033v-.044c0-.011.011-.022 0-.044v-.011c.011-.022.011-.022.011-.033v-.022-.022c-.011 0 0-.011 0-.022v-.033l.011-.011c.011-.011.011-.022.011-.033v-.022-.033-.022c.022-.022.011-.033.011-.055v-.033c0-.011 0-.022.011-.033s0-.022 0-.033 0-.011.011-.022v-.044-.022-.022-.022-.022-.044-.022c0-.022 0-.033.011-.044s0-.022 0-.033v-.044-.022-.011h.011v-.022-.033-.044-.033c0-.011.011-.033.011-.044v-.022-.022-.044-.033c0-.011 0-.022.011-.044v-.044-.011-.022c0-.011.011-.022.011-.033v-.022-.022c0-.011.011-.022 0-.033v-.033-.022-.022l.011-.011c-.011-.011 0-.022 0-.033v-.022-.022-.044c0-.011.011-.022.011-.033s0-.022.011-.044v-.022-.022c0-.011.011-.011.011-.022v-.022l.011-.022v-.022l.011-.011v-.011-.011l.011-.011v-.011-.033-.033l.011-.022c-.011-.011.011-.033.011-.022l.011.011h.022l.011-.022v-.011c0-.011.022-.011.022-.022-.011-.022-.011-.022-.022-.022v-.011c-.011-.022-.011-.022-.022-.022s-.011 0-.022-.011-.011-.011-.011-.033v-.022l.011-.022c0-.022 0-.022.011-.033 0-.022.011-.033.011-.044.011-.011.011-.022.011-.033v-.044-.033c0-.011.011-.022.011-.033v-.033-.033l.011-.022c0-.011-.011-.022-.011-.033v-.022l.011-.022v-.022c0-.011.022-.011.022-.033v-.011c.011-.022.011-.033.022-.033s.011 0 .022-.011c.011 0 .022 0 .022-.011s0-.022.011-.033c0-.011.011-.011.011-.022v-.033-.022-.011c.022-.011.022-.011.022-.022.011-.011 0-.022 0-.033v-.033c0-.011 0-.022.011-.022 0-.011.011-.011.011-.022v-.022l-.011-.022s.011-.011.011-.022v-.011-.011-.022c-.011-.022-.011-.011-.022 0-.011 0-.022-.011-.022-.011-.011-.011-.011-.011-.011-.022v-.011l-.011-.022h.011c0-.022.011-.033 0-.044v-.022-.022-.022l.011-.011v-.011-.022-.022l.022-.022v-.022-.033c.011-.022 0-.033 0-.044v-.033h.011l.011-.011V17.1v-.033-.022c0-.022 0-.022.011-.033V17l.022-.011c.011-.011-.022-.011-.022-.022v-.022l.022-.022-.022-.022v-.011-.022-.011c0-.011.011-.022.022-.022l.022-.011c.011-.022.011-.055.011-.078v-.033c-.011-.022-.011-.033 0-.033v-.011c0-.011 0-.022.011-.022 0-.011.011-.011.011-.022s-.011-.011-.011-.022 0-.022.011-.033 0-.022-.011-.033c0-.022.011-.044.022-.055s.011-.022.011-.033v-.022-.033c0-.022 0-.022.011-.033v-.011-.022-.011-.022-.011-.022-.011l.011-.022v-.011l.011-.011c0-.022.011-.011.011-.011h.011c-.1-.033-.1-.033-.089-.044z" fill-opacity=".8"/></svg>