<svg xmlns="http://www.w3.org/2000/svg" width="160" height="30" fill="#0a1727" xmlns:v="https://vecta.io/nano"><path d="M27.936 15.131c-1.002-.883-1.268-2.031-1.268-3.026 0-.697.215-1.908 1.196-2.811.736-.677 1.707-1.088 3.231-1.088a10.05 10.05 0 0 1 1.482.103l1.023.174c.112.01.153.061.153.123 0 .082-.031.205-.051.564l-.031 1.107c-.01.154-.031.236-.123.236-.082 0-.102-.082-.102-.225a1.46 1.46 0 0 0-.399-.944c-.338-.359-1.135-.637-2.075-.637-.89 0-1.473.226-1.922.637-.747.687-.941 1.661-.941 2.657 0 2.441 1.851 3.651 3.221 3.651.91 0 1.462-.102 1.871-.575a1.7 1.7 0 0 0 .347-.676c.031-.164.051-.206.133-.206.071 0 .092.072.092.154a9.65 9.65 0 0 1-.225 1.364.36.36 0 0 1-.266.298c-.409.164-1.186.236-1.841.236-1.4-.001-2.576-.309-3.507-1.119zm7.127-2.277c0-1.468.967-3.363 3.533-3.363 2.13 0 3.456 1.244 3.456 3.209s-1.369 3.518-3.542 3.518c-2.455 0-3.448-1.845-3.448-3.364zm5.792.164c0-1.922-1.104-3.115-2.507-3.115-.984 0-2.105.55-2.105 2.686 0 1.785.984 3.201 2.627 3.201.599 0 1.985-.292 1.985-2.772zm4.263.593c0 1.099 0 1.691.18 1.846.146.129.368.189 1.035.189.453 0 .787-.008 1.001-.24a1.08 1.08 0 0 0 .223-.515c.008-.077.025-.128.094-.128.06 0 .068.042.068.146 0 .093-.06.738-.128.986-.051.189-.094.232-.539.232-1.232 0-1.796-.052-2.489-.052l-1.078.026c-.111 0-.171-.026-.171-.086 0-.043.035-.068.137-.068a1.37 1.37 0 0 0 .308-.035c.171-.034.214-.223.248-.472.042-.361.042-1.039.042-1.829V12.1l-.017-1.819c-.017-.292-.085-.429-.368-.489-.069-.017-.171-.025-.282-.025-.094 0-.145-.017-.145-.077s.059-.077.188-.077l1.172.026 1.163-.026c.12 0 .18.017.18.077s-.052.077-.154.077a2.27 2.27 0 0 0-.333.025c-.231.043-.3.189-.317.489-.017.274-.017.515-.017 1.819v1.512zm4.25-1.51l-.017-1.819c-.017-.291-.086-.429-.368-.489-.069-.017-.214-.025-.334-.025-.094 0-.145-.017-.145-.077s.059-.077.188-.077l1.249.025 1.053-.025c.128 0 .188.017.188.077s-.051.077-.137.077c-.094 0-.145.008-.248.025-.231.043-.3.189-.316.489-.017.274-.017.515-.017 1.819v1.201c0 1.244.248 1.768.667 2.111.385.317.779.352 1.069.352.377 0 .839-.12 1.181-.463.471-.472.497-1.244.497-2.128v-1.073l-.017-1.819c-.017-.291-.086-.429-.368-.489a1.66 1.66 0 0 0-.308-.025c-.094 0-.146-.017-.146-.077s.06-.077.18-.077l.984.025.975-.025c.12 0 .18.017.18.077s-.051.077-.154.077c-.094 0-.145.008-.248.025-.231.043-.3.189-.317.489-.017.274-.017.515-.017 1.819v.918c0 .953-.094 1.965-.813 2.583-.607.524-1.223.618-1.779.618-.453 0-1.275-.026-1.899-.592-.436-.395-.762-1.03-.762-2.275V12.1zm8.04-2.457c.026-.146.077-.224.146-.224s.12.043.231.266l2.335 4.84 2.327-4.9c.059-.138.111-.207.188-.207s.128.086.154.266l.779 5.304c.077.541.163.79.419.868a1.75 1.75 0 0 0 .531.086c.077 0 .137.008.137.06 0 .069-.103.095-.223.095-.214 0-1.395-.026-1.737-.052-.197-.017-.248-.043-.248-.094 0-.042.034-.068.094-.093.051-.018.077-.129.043-.37l-.513-3.776h-.034l-1.865 3.896c-.197.404-.24.481-.317.481s-.163-.172-.299-.429l-.984-1.949-.89-1.905h-.034l-.445 3.415-.026.404c0 .163.111.24.257.275a1.67 1.67 0 0 0 .359.043c.069 0 .128.017.128.06 0 .077-.077.095-.205.095-.36 0-.745-.026-.898-.026l-.847.026c-.086 0-.154-.018-.154-.095 0-.043.051-.06.137-.06.069 0 .128 0 .256-.026.24-.051.308-.386.351-.678l.853-5.595h-.006zm9.128 2.457l-.017-1.819c-.017-.292-.086-.429-.368-.489a1.75 1.75 0 0 0-.333-.026c-.094 0-.146-.017-.146-.076s.06-.077.189-.077l1.163.025 1.044-.025c1.548 0 1.822.832 1.822 1.287 0 .704-.402 1.123-.872 1.501.702.24 1.557.85 1.557 1.853 0 .919-.71 1.871-2.284 1.871-.206 0-.984-.052-1.241-.052l-1.078.026c-.111 0-.171-.026-.171-.086 0-.043.034-.069.137-.069a1.37 1.37 0 0 0 .308-.035c.171-.034.214-.223.248-.472.043-.36.043-1.038.043-1.828V12.1zm1.026.146c0 .068.025.086.059.094a2.1 2.1 0 0 0 .403.026c.282 0 .47-.035.616-.163.223-.181.351-.489.351-.91 0-.575-.334-1.33-1.069-1.33-.12 0-.197 0-.282.017-.06.017-.077.051-.077.146v2.12zm1.129.686c-.18-.129-.376-.189-.71-.206l-.368-.008c-.035 0-.052.018-.052.06v2.034c0 .566.025.712.299.823.231.094.428.103.624.103.386 0 1.035-.206 1.035-1.098 0-.532-.179-1.253-.829-1.708zm3.783-.833l-.017-1.819c-.017-.291-.103-.438-.291-.481a1.22 1.22 0 0 0-.307-.034c-.086 0-.137-.017-.137-.086 0-.051.068-.068.205-.068l1.112.025 1.044-.025c.111 0 .179.017.179.068 0 .069-.052.086-.137.086s-.154.008-.257.025c-.231.043-.299.189-.316.489-.018.274-.018.515-.018 1.819v1.51l.035 1.879c.025.232.086.386.342.421a3.63 3.63 0 0 0 .436.034c.094 0 .137.025.137.069 0 .06-.069.086-.163.086-.564 0-1.104-.026-1.335-.026l-1.078.026c-.111 0-.171-.026-.171-.086 0-.043.034-.069.137-.069a1.39 1.39 0 0 0 .307-.034c.171-.035.223-.181.248-.429.043-.36.043-1.039.043-1.871V12.1zm5.205 1.758c-.043 0-.06.017-.077.068l-.462 1.228c-.085.214-.129.421-.129.523 0 .154.077.266.343.266h.128c.103 0 .128.017.128.069 0 .068-.051.086-.145.086-.274 0-.641-.025-.907-.025l-1.01.025c-.111 0-.163-.017-.163-.086 0-.051.034-.069.103-.069.077 0 .197-.009.265-.017.394-.052.556-.343.727-.772l2.147-5.39c.104-.249.154-.343.24-.343.077 0 .128.077.213.274l2.122 5.278c.324.773.574.893.752.936a1.88 1.88 0 0 0 .358.035c.069 0 .112.008.112.068 0 .068-.077.086-.394.086-.307 0-.933 0-1.617-.018-.154-.008-.256-.008-.256-.068 0-.051.034-.068.12-.077.06-.017.12-.094.077-.197l-.686-1.819c-.017-.043-.042-.06-.085-.06h-1.907v-.001h.001zm1.745-.429c.043 0 .051-.025.043-.052l-.77-2.12c-.008-.034-.017-.077-.042-.077s-.043.043-.052.077l-.787 2.112c-.009.034 0 .06.034.06h1.574zm7.422-2.105l-.021-2.175c-.022-.349-.102-.513-.439-.585a2.09 2.09 0 0 0-.4-.031c-.112 0-.174-.021-.174-.092s.072-.092.224-.092l1.493.031 1.258-.031c.154 0 .225.021.225.092s-.062.092-.164.092c-.112 0-.173.01-.296.031-.276.052-.358.226-.379.585-.02.328-.02.615-.02 2.175v1.436c0 1.487.297 2.113.797 2.523.461.38.932.42 1.279.42.45 0 1.002-.143 1.411-.553.563-.564.593-1.488.593-2.545v-1.281l-.021-2.175c-.021-.349-.102-.513-.44-.585a1.96 1.96 0 0 0-.368-.031c-.112 0-.174-.021-.174-.092s.072-.092.214-.092l1.176.031 1.165-.031c.143 0 .215.021.215.092s-.061.092-.184.092a1.49 1.49 0 0 0-.296.031c-.276.052-.357.226-.378.585-.02.328-.02.615-.02 2.175v1.098c0 1.139-.113 2.349-.971 3.087-.725.626-1.463.739-2.127.739-.542 0-1.523-.031-2.269-.708-.522-.472-.91-1.23-.91-2.718v-1.497zm9.244 3.608c.017.669.128.892.299.952a1.35 1.35 0 0 0 .445.06c.094 0 .145.017.145.069 0 .068-.076.086-.197.086-.555 0-.898-.026-1.061-.026l-.924.026c-.111 0-.189-.008-.189-.086 0-.052.051-.069.137-.069a1.54 1.54 0 0 0 .386-.043c.222-.069.256-.318.264-1.064l.077-5.08c0-.172.025-.292.111-.292.094 0 .171.111.317.266l2.653 2.754 1.881 1.957h.043l-.085-3.853c-.009-.523-.086-.686-.291-.772-.127-.052-.334-.052-.454-.052-.103 0-.137-.025-.137-.077 0-.069.094-.077.223-.077l1.035.025.838-.025c.111 0 .197.008.197.077 0 .052-.052.077-.155.077-.085 0-.154 0-.256.026-.24.069-.307.249-.317.729l-.093 5.415c0 .189-.035.266-.112.266-.094 0-.197-.094-.29-.189l-2.523-2.523-2.037-2.163h-.025l.094 3.605zm7.899-2.832l-.017-1.819c-.017-.291-.103-.438-.291-.481-.093-.025-.205-.034-.307-.034-.086 0-.138-.017-.138-.086 0-.051.069-.068.207-.068l1.112.025 1.044-.025c.111 0 .18.017.18.068 0 .069-.052.086-.138.086s-.154.008-.256.025c-.232.043-.299.189-.316.489-.018.274-.018.515-.018 1.819v1.51l.035 1.879c.025.232.085.386.342.421a3.58 3.58 0 0 0 .436.034c.094 0 .137.025.137.069 0 .06-.068.086-.162.086-.565 0-1.104-.026-1.334-.026l-1.079.026c-.111 0-.171-.026-.171-.086 0-.043.034-.069.137-.069a1.4 1.4 0 0 0 .308-.034c.171-.035.223-.181.248-.429.042-.36.042-1.039.042-1.871V12.1h-.001zm3.762-1.647c-.196-.472-.341-.567-.65-.652-.128-.035-.266-.035-.334-.035-.077 0-.103-.025-.103-.077 0-.069.094-.077.223-.077l1.241.026 1.051-.026c.103 0 .198.017.198.077s-.052.077-.129.077c-.137 0-.266.008-.334.06-.059.043-.085.103-.085.18 0 .112.077.352.197.661l1.471 3.896h.034l1.686-4.274a1.07 1.07 0 0 0 .076-.318c0-.068-.034-.137-.11-.163-.104-.035-.232-.043-.343-.043-.077 0-.145-.008-.145-.069 0-.069.077-.086.239-.086l.898.026.805-.026c.111 0 .179.017.179.077s-.051.077-.137.077-.265 0-.42.103c-.11.077-.239.223-.471.772l-1.027 2.326-1.137 2.618c-.222.497-.273.635-.393.635-.111 0-.163-.12-.325-.524l-2.155-5.243zm7.422 1.647l-.017-1.819c-.017-.291-.086-.429-.368-.489a1.77 1.77 0 0 0-.335-.025c-.093 0-.144-.017-.144-.077s.06-.077.188-.077l1.232.025 2.139-.008.368-.052c.043-.008.094-.034.137-.034s.052.034.052.077c0 .06-.043.163-.069.558l-.042.566c-.009.043-.025.095-.086.095s-.077-.043-.077-.12c0-.06-.008-.207-.052-.309-.059-.154-.145-.258-.572-.309-.146-.017-1.044-.034-1.215-.034-.043 0-.06.026-.06.086v2.172c0 .06.009.094.06.094l1.368-.017c.206-.017.334-.043.411-.128.06-.069.094-.112.138-.112.033 0 .059.018.059.069s-.043.189-.069.626l-.034.575c0 .068 0 .163-.076.163-.06 0-.078-.034-.078-.077-.008-.086-.008-.197-.034-.308-.042-.172-.162-.3-.479-.335a26.03 26.03 0 0 0-1.215-.025c-.042 0-.051.034-.051.085v.678 1.33c.017.592.154.721 1.027.721.223 0 .582 0 .804-.104s.325-.283.386-.635c.016-.094.033-.129.093-.129.068 0 .068.069.068.154 0 .198-.068.781-.11.954-.06.223-.138.223-.462.223-1.292 0-1.865-.052-2.371-.052l-1.078.026c-.111 0-.171-.026-.171-.086 0-.043.035-.069.137-.069a1.39 1.39 0 0 0 .308-.034c.171-.035.213-.224.248-.472.042-.36.042-1.038.042-1.828V12.1zm5.876.001l-.017-1.819c-.017-.292-.085-.429-.368-.489-.068-.018-.214-.025-.334-.025-.094 0-.145-.017-.145-.077s.06-.077.188-.077l1.173.026 1.205-.026c.54 0 1.113.051 1.576.369.24.163.581.601.581 1.176 0 .635-.266 1.218-1.129 1.922l1.856 2.257c.48.498.831.558.959.584a1.35 1.35 0 0 0 .239.026c.069 0 .103.025.103.069 0 .069-.059.086-.162.086h-.813c-.479 0-.693-.043-.916-.163-.368-.198-.692-.601-1.172-1.261l-.847-1.185c-.043-.051-.094-.06-.154-.06l-.744-.017c-.043 0-.07.017-.07.069v.12l.043 1.836c.026.249.077.437.334.472l.42.035c.068 0 .102.026.102.069 0 .06-.059.086-.17.086-.497 0-1.13-.026-1.258-.026l-1.045.026c-.111 0-.171-.026-.171-.086 0-.043.035-.069.137-.069a1.4 1.4 0 0 0 .308-.035c.171-.035.214-.223.248-.472.043-.36.043-1.039.043-1.828v-1.512h0zm1.009.678c0 .095.018.129.078.155a2.26 2.26 0 0 0 .651.086c.341 0 .453-.035.606-.146.257-.189.505-.584.505-1.288 0-1.218-.804-1.57-1.309-1.57-.214 0-.369.008-.454.035-.06.017-.077.051-.077.12v2.608h0zm5.499 3.218c-.137-.06-.162-.103-.162-.292l.042-1.124c.008-.129.034-.223.103-.223.077 0 .086.077.086.146 0 .111.034.291.077.437.188.635.693.867 1.222.867.77 0 1.148-.523 1.148-.978 0-.421-.129-.824-.839-1.373l-.394-.308c-.94-.738-1.265-1.339-1.265-2.034 0-.944.787-1.622 1.976-1.622a4.13 4.13 0 0 1 1.138.146c.077.017.12.043.12.103 0 .112-.035.361-.035 1.03 0 .189-.025.258-.093.258-.06 0-.086-.052-.086-.155 0-.077-.042-.343-.223-.567-.129-.163-.376-.421-.933-.421-.633 0-1.018.369-1.018.884 0 .395.198.695.907 1.236l.24.18c1.027.798 1.403 1.373 1.403 2.188a1.73 1.73 0 0 1-.805 1.493c-.427.274-.905.352-1.36.352-.496 0-.882-.061-1.249-.223zm5.832-3.897l-.018-1.819c-.017-.291-.102-.438-.29-.481a1.22 1.22 0 0 0-.307-.034c-.086 0-.137-.017-.137-.086 0-.051.068-.068.205-.068l1.112.025 1.045-.025c.11 0 .179.017.179.068 0 .069-.052.086-.137.086s-.154.008-.257.025c-.231.043-.3.189-.317.489-.017.274-.017.515-.017 1.819v1.51l.034 1.879c.025.232.086.386.342.421a3.61 3.61 0 0 0 .437.034c.093 0 .137.025.137.069 0 .06-.068.086-.163.086-.565 0-1.103-.026-1.334-.026l-1.078.026c-.111 0-.171-.026-.171-.086 0-.043.034-.069.137-.069a1.38 1.38 0 0 0 .307-.034c.172-.035.223-.181.248-.429.043-.36.043-1.039.043-1.871V12.1zm5.842-2.009l-1.274.034c-.497.017-.703.06-.83.249-.086.129-.129.232-.145.3s-.044.103-.095.103c-.059 0-.076-.043-.076-.138 0-.137.162-.918.179-.986.026-.111.051-.163.103-.163.068 0 .154.086.368.103a8.87 8.87 0 0 0 .855.043h3.388c.547 0 .753-.086.821-.086.06 0 .068.052.068.18l-.025.996c-.008.086-.026.137-.077.137-.068 0-.085-.043-.094-.172l-.008-.094c-.018-.223-.248-.463-1.01-.48l-1.078-.026v3.518l.042 1.837c.025.24.077.429.334.463a3.61 3.61 0 0 0 .437.035c.093 0 .137.025.137.068 0 .06-.069.086-.163.086-.564 0-1.103-.026-1.343-.026l-1.078.026c-.111 0-.172-.026-.172-.086 0-.043.035-.068.138-.068a1.38 1.38 0 0 0 .307-.035c.172-.035.223-.223.248-.471.043-.361.043-1.039.043-1.829v-3.518h0zm7.093 3.785c0-.464-.086-.652-.197-.901a62.89 62.89 0 0 0-1.505-2.472c-.214-.318-.428-.532-.591-.627-.111-.06-.256-.111-.359-.111-.069 0-.128-.017-.128-.077 0-.052.059-.077.162-.077l1.078.025.917-.025c.085 0 .128.025.128.077s-.06.06-.189.094c-.077.017-.12.086-.12.155s.042.171.102.291c.121.258 1.318 2.326 1.455 2.566.086-.207 1.163-2.094 1.283-2.36.086-.189.12-.335.12-.446 0-.086-.034-.18-.179-.214-.077-.017-.155-.034-.155-.086 0-.06.043-.077.146-.077l.803.025.916-.025c.094 0 .154.017.154.068 0 .06-.068.086-.162.086a.92.92 0 0 0-.376.103c-.18.086-.274.189-.462.421-.283.343-1.48 2.36-1.634 2.729-.128.309-.128.575-.128.858v.704l.025.858c.017.249.094.438.351.472a3.43 3.43 0 0 0 .428.035c.094 0 .137.025.137.068 0 .06-.068.086-.179.086-.539 0-1.079-.026-1.31-.026l-1.069.026c-.12 0-.188-.018-.188-.086 0-.043.042-.068.136-.068a1.35 1.35 0 0 0 .3-.035c.172-.034.248-.223.265-.472l.026-.858-.001-.704zM27.82 22.745l-.012-1.195c-.011-.192-.067-.288-.191-.316a.79.79 0 0 0-.202-.023c-.056 0-.09-.011-.09-.056 0-.033.045-.045.135-.045l.731.017.685-.017c.073 0 .118.011.118.045 0 .045-.034.056-.09.056s-.101.006-.169.017c-.152.027-.197.124-.208.321-.011.18-.011.338-.011 1.195v.992l.023 1.234c.017.152.056.254.225.276a2.38 2.38 0 0 0 .286.023c.062 0 .09.017.09.046 0 .039-.045.056-.107.056-.37 0-.725-.017-.876-.017l-.708.017c-.073 0-.112-.017-.112-.056 0-.029.023-.046.09-.046a.87.87 0 0 0 .202-.023c.112-.023.146-.118.163-.281.028-.237.028-.682.028-1.229v-.992zm3.141 1.856c.011.439.085.586.197.626a.9.9 0 0 0 .292.04c.061 0 .096.011.096.045 0 .045-.051.057-.129.057-.365 0-.59-.018-.697-.018l-.607.018c-.073 0-.123-.006-.123-.057 0-.034.033-.045.09-.045.073 0 .174-.006.253-.028.146-.045.169-.208.174-.699l.05-3.336c0-.113.017-.192.073-.192.062 0 .113.073.208.175l1.742 1.809 1.236 1.285h.028l-.056-2.53c-.006-.343-.056-.451-.191-.507-.084-.034-.219-.034-.297-.034-.068 0-.09-.016-.09-.05 0-.045.062-.051.146-.051l.679.017.551-.017c.073 0 .129.006.129.051 0 .034-.034.05-.101.05-.056 0-.101 0-.169.017-.157.045-.202.163-.208.479l-.062 3.556c0 .125-.022.175-.073.175-.062 0-.129-.062-.191-.125l-1.658-1.657-1.337-1.42h-.017l.062 2.366zm8.011-3.175l-.837.023c-.326.011-.461.04-.545.163-.056.084-.084.152-.096.197s-.028.068-.062.068c-.04 0-.051-.028-.051-.09a7.6 7.6 0 0 1 .118-.649c.017-.073.034-.107.068-.107.045 0 .101.056.242.067a5.82 5.82 0 0 0 .562.028h2.225c.18 0 .303-.017.387-.028l.151-.027c.039 0 .045.034.045.117l-.017.655c-.006.056-.017.091-.051.091-.045 0-.056-.028-.062-.113l-.006-.061c-.011-.146-.163-.305-.663-.316l-.708-.017v2.311l.028 1.205c.017.158.051.282.219.305.079.011.202.023.286.023.062 0 .09.017.09.045 0 .039-.045.056-.107.056-.371 0-.725-.017-.882-.017l-.708.017c-.073 0-.112-.017-.112-.056 0-.028.023-.045.09-.045a.88.88 0 0 0 .202-.023c.112-.023.146-.147.163-.31.028-.237.028-.682.028-1.201v-2.312zm6.409 1.476c.017 0 .034-.011.034-.04v-.118l-.011-1.195c-.011-.192-.056-.281-.242-.322a1.17 1.17 0 0 0-.219-.017c-.062 0-.096-.011-.096-.05s.039-.051.118-.051l.809.017.708-.017c.078 0 .118.011.118.051s-.034.05-.101.05a1.01 1.01 0 0 0-.163.017c-.151.028-.197.124-.208.322-.012.18-.012.337-.012 1.195v.992l.028 1.205c.017.158.051.282.219.305a2.4 2.4 0 0 0 .286.023c.062 0 .09.016.09.045 0 .039-.045.057-.112.057-.365 0-.719-.017-.877-.017l-.702.017c-.079 0-.118-.017-.118-.057 0-.029.023-.045.09-.045a.87.87 0 0 0 .202-.023c.112-.023.14-.147.163-.31.028-.237.028-.682.028-1.201v-.496c0-.023-.017-.034-.034-.034h-2.146c-.017 0-.034.006-.034.034v.496l.028 1.205c.017.158.05.282.219.305a2.38 2.38 0 0 0 .286.023c.062 0 .09.016.09.045 0 .039-.045.057-.112.057-.365 0-.719-.017-.877-.017l-.708.017c-.073 0-.112-.017-.112-.057 0-.029.022-.045.09-.045a.87.87 0 0 0 .202-.023c.112-.023.14-.147.163-.31.028-.237.028-.682.028-1.201v-.992l-.011-1.195c-.011-.192-.056-.281-.242-.322a1.17 1.17 0 0 0-.219-.017c-.062 0-.096-.011-.096-.05s.04-.051.118-.051l.809.017.708-.017c.078 0 .118.011.118.051s-.034.05-.101.05c-.045 0-.095.006-.163.017-.151.028-.197.124-.208.322-.011.18-.011.337-.011 1.195v.118c0 .028.017.04.034.04h2.146zm2.864-.157l-.011-1.195c-.011-.191-.056-.281-.242-.321a1.16 1.16 0 0 0-.219-.017c-.061 0-.095-.01-.095-.05s.039-.051.123-.051l.809.017 1.404-.006.242-.034c.028-.006.062-.022.09-.022s.034.022.034.05c0 .04-.028.107-.045.367l-.028.372c-.005.029-.017.063-.056.063s-.05-.029-.05-.08a.6.6 0 0 0-.034-.202c-.039-.102-.096-.169-.376-.203a18.34 18.34 0 0 0-.798-.023c-.028 0-.039.017-.039.057v1.426c0 .04.005.061.039.061l.899-.011c.135-.011.219-.028.269-.085.04-.044.062-.074.09-.074.023 0 .039.011.039.045s-.028.124-.045.411l-.023.377c0 .045 0 .107-.05.107-.039 0-.051-.022-.051-.051-.006-.057-.006-.13-.023-.203-.028-.112-.106-.197-.314-.22a18.65 18.65 0 0 0-.798-.017c-.028 0-.033.023-.033.057v.445.873c.011.39.101.473.674.473.146 0 .382 0 .528-.068s.213-.186.253-.417c.011-.062.022-.084.062-.084.045 0 .045.045.045.101 0 .129-.045.513-.073.625-.04.146-.09.146-.303.146-.848 0-1.225-.034-1.556-.034l-.708.017c-.073 0-.112-.017-.112-.056 0-.029.022-.046.09-.046a.88.88 0 0 0 .202-.023c.112-.023.14-.146.163-.31.028-.236.028-.682.028-1.2v-.988zm5.895 2.09c-.551-.485-.697-1.116-.697-1.663 0-.383.118-1.048.657-1.544.405-.372.938-.597 1.775-.597.348 0 .557.022.815.057l.562.095c.062.006.085.034.085.068 0 .045-.017.112-.028.309l-.017.609c-.006.085-.017.129-.068.129-.045 0-.056-.044-.056-.125-.006-.175-.078-.372-.219-.519-.185-.197-.623-.349-1.14-.349-.489 0-.809.125-1.056.349-.41.377-.517.913-.517 1.46 0 1.341 1.017 2.006 1.77 2.006.5 0 .803-.057 1.028-.316a.94.94 0 0 0 .191-.373c.017-.09.028-.113.073-.113.039 0 .05.04.05.085 0 .068-.067.558-.124.75-.028.095-.05.124-.145.163-.225.09-.652.13-1.012.13-.77.001-1.416-.167-1.927-.613zm4.697-2.09l-.011-1.195c-.011-.191-.068-.288-.191-.316a.79.79 0 0 0-.203-.023c-.056 0-.09-.01-.09-.056 0-.033.045-.045.135-.045l.731.017.685-.017c.073 0 .118.011.118.045 0 .045-.033.056-.09.056a.96.96 0 0 0-.169.017c-.152.027-.196.124-.208.321-.011.18-.011.338-.011 1.195v.992l.023 1.234c.017.152.056.254.225.276a2.4 2.4 0 0 0 .286.023c.062 0 .09.017.09.046 0 .039-.044.056-.107.056-.371 0-.725-.017-.877-.017l-.708.017c-.073 0-.113-.017-.113-.056 0-.029.023-.046.09-.046.084 0 .152-.011.202-.023.112-.023.146-.118.163-.281.029-.237.029-.682.029-1.229v-.992zm3.574-1.319l-.837.023c-.325.011-.46.04-.545.163a.65.65 0 0 0-.095.197c-.011.045-.028.068-.062.068-.04 0-.05-.028-.05-.09 0-.091.106-.604.118-.649.017-.073.034-.107.067-.107.045 0 .101.056.242.067a5.92 5.92 0 0 0 .562.028h2.224c.18 0 .304-.017.388-.028l.152-.027c.039 0 .045.034.045.117l-.017.655c-.006.056-.017.091-.05.091-.045 0-.057-.028-.062-.113l-.006-.061c-.011-.146-.163-.305-.663-.316l-.708-.017v2.311l.028 1.205c.017.158.051.282.219.305a2.4 2.4 0 0 0 .287.023c.062 0 .09.017.09.045 0 .039-.045.056-.107.056-.371 0-.725-.017-.882-.017l-.708.017c-.073 0-.112-.017-.112-.056 0-.028.022-.045.09-.045.084 0 .152-.011.202-.023.113-.023.146-.147.163-.31.028-.237.028-.682.028-1.201v-2.312z" fill-opacity=".8"/><path d="M66.596 23.912c0-.304-.057-.428-.129-.592a40.05 40.05 0 0 0-.989-1.622c-.14-.209-.281-.349-.388-.411-.073-.041-.169-.075-.236-.075-.045 0-.085-.01-.085-.05 0-.034.04-.051.107-.051l.708.017.601-.017c.056 0 .084.017.084.051s-.039.04-.123.061c-.051.012-.079.056-.079.102s.028.112.068.192c.079.169.865 1.526.955 1.684.056-.135.764-1.375.843-1.55.056-.125.079-.22.079-.293 0-.056-.023-.119-.118-.141-.051-.011-.101-.023-.101-.056 0-.04.028-.051.095-.051l.528.017.601-.017c.062 0 .101.011.101.044 0 .04-.044.056-.107.056a.62.62 0 0 0-.248.068c-.118.057-.179.125-.303.276-.185.225-.972 1.55-1.073 1.792-.085.203-.085.378-.085.564v.461l.017.564c.011.163.061.288.231.309a2.36 2.36 0 0 0 .281.022c.061 0 .09.017.09.046 0 .039-.045.056-.118.056-.354 0-.708-.017-.86-.017l-.703.017c-.078 0-.124-.011-.124-.056 0-.029.028-.046.09-.046a.86.86 0 0 0 .197-.022c.112-.023.163-.146.175-.309l.017-.564v-.46h.001v.001zm4.779-.671c0-.964.635-2.21 2.32-2.21 1.399 0 2.27.818 2.27 2.108s-.899 2.311-2.326 2.311c-1.613 0-2.265-1.212-2.265-2.209zm3.804.106c0-1.262-.725-2.046-1.647-2.046-.646 0-1.382.36-1.382 1.764 0 1.172.647 2.102 1.726 2.102.393 0 1.303-.191 1.303-1.82zm2.957.39l.028 1.2c.016.164.05.288.219.31a2.3 2.3 0 0 0 .28.023c.073 0 .096.017.096.046 0 .039-.039.056-.124.056-.354 0-.708-.017-.854-.017l-.714.017c-.079 0-.118-.012-.118-.056 0-.029.023-.046.084-.046a.82.82 0 0 0 .202-.023c.113-.022.14-.146.163-.31.028-.236.028-.659.028-1.2v-.992l-.011-1.195c-.011-.191-.057-.281-.242-.322a1.17 1.17 0 0 0-.219-.017c-.056 0-.096-.011-.096-.045 0-.045.045-.056.129-.056l.809.017 1.483-.006c.107-.006.174-.006.23-.023.034-.011.062-.034.09-.034.023 0 .039.023.039.05 0 .04-.028.107-.045.254l-.028.457c-.006.044-.017.079-.056.079s-.051-.028-.057-.091c0-.045 0-.135-.033-.214-.039-.079-.157-.164-.371-.17l-.865-.017c-.034 0-.051.017-.051.08v1.409c0 .034.005.05.04.05l.719-.006.254-.006c.107-.006.185-.027.241-.101.028-.034.04-.056.073-.056.023 0 .034.017.034.051s-.029.175-.045.349l-.023.411c0 .052 0 .108-.057.108-.034 0-.045-.04-.045-.078a.64.64 0 0 0-.033-.175c-.028-.079-.112-.18-.287-.204-.14-.016-.736-.016-.831-.016-.028 0-.04.011-.04.05v.459zm5.36.864c.011.439.085.586.197.626.096.033.202.04.292.04.062 0 .095.011.095.045 0 .045-.05.057-.129.057-.365 0-.59-.018-.697-.018l-.606.018c-.073 0-.124-.006-.124-.057 0-.034.035-.045.091-.045.073 0 .174-.006.253-.028.146-.045.169-.208.174-.699l.05-3.336c0-.113.017-.192.074-.192s.112.073.207.175l1.742 1.809 1.235 1.285h.028l-.056-2.53c-.006-.343-.056-.451-.19-.507-.085-.034-.22-.034-.298-.034-.068 0-.09-.016-.09-.05 0-.045.061-.051.146-.051l.679.017.551-.017c.073 0 .129.006.129.051 0 .034-.033.05-.102.05-.056 0-.102 0-.169.017-.157.045-.202.163-.207.479l-.062 3.556c0 .125-.023.175-.073.175-.062 0-.129-.062-.191-.125l-1.658-1.657-1.337-1.42h-.017l.061 2.366zm5.291-1.856l-.012-1.195c-.011-.191-.056-.281-.241-.321a1.17 1.17 0 0 0-.219-.017c-.061 0-.095-.01-.095-.05s.04-.051.124-.051l.808.017 1.406-.006.241-.034c.029-.006.062-.022.09-.022s.034.022.034.05c0 .04-.027.107-.044.367l-.028.372c-.006.029-.017.063-.056.063s-.051-.029-.051-.08a.62.62 0 0 0-.033-.202c-.04-.102-.095-.169-.376-.203a18.45 18.45 0 0 0-.798-.023c-.028 0-.04.017-.04.057v1.426c0 .04.007.061.04.061l.9-.011c.134-.011.219-.028.27-.085.039-.044.061-.074.09-.074.023 0 .04.011.04.045s-.029.124-.045.411l-.023.377c0 .045 0 .107-.05.107-.04 0-.051-.022-.051-.051-.006-.057-.006-.13-.023-.203-.028-.112-.107-.197-.315-.22-.107-.011-.663-.017-.798-.017-.028 0-.034.023-.034.057v.445.873c.011.39.101.473.675.473.146 0 .382 0 .528-.068s.213-.186.253-.417c.011-.062.023-.084.063-.084s.044.045.044.101a4.16 4.16 0 0 1-.074.625c-.039.146-.089.146-.303.146-.849 0-1.225-.034-1.556-.034l-.707.017c-.074 0-.112-.017-.112-.056 0-.029.023-.046.09-.046.084 0 .152-.011.202-.023.112-.023.14-.146.162-.31.028-.236.028-.682.028-1.2v-.988h0zm3.338-1.083c-.067-.208-.129-.343-.208-.4-.061-.04-.174-.051-.224-.051-.056 0-.09-.005-.09-.05 0-.04.045-.051.124-.051l.652.017.623-.017c.078 0 .118.017.118.051 0 .045-.045.05-.101.05-.045 0-.101 0-.14.023-.05.023-.061.062-.061.125 0 .073.056.265.124.518l.719 2.395h.016l1.09-2.936c.062-.158.096-.203.141-.203.061 0 .09.085.162.265l1.168 2.835h.017l.748-2.524c.04-.13.056-.248.056-.327 0-.09-.05-.169-.269-.169-.057 0-.095-.016-.095-.05 0-.04.044-.051.129-.051l.584.017.466-.017c.062 0 .102.011.102.044 0 .041-.028.057-.078.057-.057 0-.135.006-.196.029-.135.051-.196.276-.315.597l-1.124 3.347c-.062.197-.091.265-.163.265-.056 0-.089-.068-.174-.275l-1.169-2.824h-.011l-1.095 2.801c-.108.231-.135.299-.204.299-.056 0-.084-.061-.128-.208l-1.194-3.579zm9.482 2.25c0-.304-.057-.428-.13-.592a42.66 42.66 0 0 0-.988-1.622c-.14-.209-.281-.349-.388-.411-.074-.041-.169-.075-.237-.075-.044 0-.084-.01-.084-.05 0-.034.04-.051.107-.051l.708.017.602-.017c.056 0 .084.017.084.051s-.039.04-.124.061c-.051.012-.079.056-.079.102s.028.112.068.192c.078.169.866 1.526.955 1.684.056-.135.764-1.375.842-1.55.057-.125.079-.22.079-.293 0-.056-.023-.119-.118-.141-.051-.011-.101-.023-.101-.056 0-.04.027-.051.095-.051l.528.017.602-.017c.061 0 .101.011.101.044 0 .04-.045.056-.107.056s-.163.023-.248.068c-.118.057-.179.125-.303.276a18.05 18.05 0 0 0-1.073 1.792c-.085.203-.085.378-.085.564v.461l.017.564c.012.163.062.288.231.309a2.36 2.36 0 0 0 .28.022c.062 0 .091.017.091.046 0 .039-.045.056-.118.056-.355 0-.708-.017-.86-.017l-.702.017c-.079 0-.125-.011-.125-.056 0-.029.029-.046.091-.046a.87.87 0 0 0 .197-.022c.112-.023.162-.146.174-.309l.017-.564v-.46h.001v.001zm2.698-.671c0-.964.635-2.21 2.32-2.21 1.399 0 2.27.818 2.27 2.108s-.899 2.311-2.325 2.311c-1.614 0-2.265-1.212-2.265-2.209zm3.803.106c0-1.262-.724-2.046-1.646-2.046-.646 0-1.382.36-1.382 1.764 0 1.172.647 2.102 1.726 2.102.392 0 1.302-.191 1.302-1.82zm2.251-.602l-.011-1.195c-.011-.191-.057-.281-.242-.322-.045-.01-.14-.017-.22-.017-.061 0-.094-.01-.094-.05s.039-.051.124-.051l.769.017.792-.017c.354 0 .73.034 1.033.242a.98.98 0 0 1 .382.772c0 .417-.174.801-.741 1.263l1.219 1.482c.314.326.545.366.63.383a.88.88 0 0 0 .157.016c.046 0 .066.017.066.046 0 .045-.039.056-.106.056h-.534c-.314 0-.455-.028-.602-.107-.24-.13-.455-.395-.769-.828l-.556-.778c-.027-.033-.061-.041-.101-.041l-.488-.01c-.028 0-.045.01-.045.044v.079l.027 1.205c.018.164.051.288.22.31a2.6 2.6 0 0 0 .274.023c.046 0 .069.017.069.046 0 .039-.041.056-.113.056-.325 0-.741-.017-.825-.017l-.686.017c-.073 0-.112-.017-.112-.056 0-.029.023-.046.091-.046a.86.86 0 0 0 .201-.023c.113-.023.141-.146.163-.31.029-.236.029-.682.029-1.2l-.001-.99zm.663.445c0 .062.01.084.05.102a1.46 1.46 0 0 0 .427.056c.224 0 .299-.022.399-.096.169-.124.331-.383.331-.846 0-.8-.528-1.031-.859-1.031a1.21 1.21 0 0 0-.298.023c-.04.011-.05.034-.05.079v1.713z" fill-opacity=".8"/><path d="M115.57 22.992h.028l1.174-1.24c.157-.186.281-.326.281-.423 0-.061-.023-.101-.079-.113s-.073-.022-.073-.056c0-.04.028-.051.09-.051l.579.017.657-.017c.057 0 .095.011.095.051s-.027.05-.084.05c-.078 0-.219.023-.325.062-.174.069-.366.187-.607.423l-1.214 1.218c.202.264 1.303 1.452 1.523 1.662.247.237.5.49.803.609a.97.97 0 0 0 .348.084c.04 0 .073.012.073.046s-.027.056-.134.056h-.489c-.169 0-.27 0-.388-.011-.304-.027-.454-.152-.696-.366-.247-.22-1.354-1.522-1.472-1.684l-.062-.086h-.028v.513l.017 1.206c.011.158.061.282.201.305.079.011.204.023.276.023.045 0 .073.017.073.045 0 .039-.044.057-.107.057-.314 0-.669-.017-.808-.017l-.708.017c-.073 0-.112-.017-.112-.057 0-.028.022-.045.09-.045a.87.87 0 0 0 .202-.023c.112-.023.14-.147.163-.31.028-.237.028-.682.028-1.201v-.992l-.011-1.195c-.011-.191-.057-.281-.242-.321a1.17 1.17 0 0 0-.219-.017c-.061 0-.095-.011-.095-.05s.04-.051.124-.051l.786.017.68-.017c.078 0 .118.012.118.051s-.033.05-.079.05c-.056 0-.09.006-.157.017-.151.028-.196.124-.207.321-.012.18-.012.339-.012 1.195v.248h-.001zM22.677 9.317a1.74 1.74 0 0 0-1.603-1.45c-1.438-.116-2.679.655-4.074.903-.112.019-.262-.219-.397-.355.647-.489.559-1.448-.19-1.862a1.67 1.67 0 0 1-.003-.637c.061-.051.539.041.607-.018s.054-.633.011-.689-.582.004-.612-.033.015-.555-.036-.595c-.036-.029-.186-.032-.268-.031s-.233.002-.269.031c-.051.041-.005.558-.036.595s-.569-.022-.612.033-.057.63.011.689.545-.033.606.018c.029.025.048.577-.003.637-.749.414-.837 1.373-.19 1.862-.136.136-.286.374-.398.355-1.395-.247-2.636-1.019-4.074-.903a1.74 1.74 0 0 0-1.603 1.45c-.252 1.47.801 2.601 1.312 3.848.162.394.304.924.278 1.379h4.92.057.057 4.919c-.025-.456.117-.985.278-1.379.511-1.248 1.564-2.378 1.312-3.849zm-7.162 3.256c-.129.738-.538 1.207-.878 1.21-.223.001-.402-.084-.564-.227-.224-.197-.407-.52-.348-.711.05-.064.653.028.696-.032s-.073-.532-.142-.593-.613.021-.686-.039-.14-.644-.215-.68c0 0-.576-.086-.618-.004s.194.571.154.654-.803-.073-.817.013.044.516.117.579.785.068.785.068c.148.113.187.343.188.579.001.299-.231.454-.6.35-.69-.194-1.544-1.694-2.052-2.733-.373-.764-.598-2.013.381-2.388.596-.228 1.222-.099 1.864.092.672.201 1.559.472 2.082.797.128.08-.153.016.311 1.047.216.48.432 1.502.342 2.018zm4.119 1.166c-.37.104-.602-.051-.601-.35.001-.236.039-.466.188-.579 0 0 .712-.004.785-.068s.13-.493.117-.579-.777.07-.817-.013.196-.571.154-.654-.618.004-.618.004c-.075.036-.142.62-.215.68s-.618-.022-.685.039-.184.533-.142.593.646-.032.696.032c.058.191-.124.515-.348.711-.163.143-.341.228-.564.227-.34-.003-.749-.472-.878-1.21-.09-.515.126-1.538.341-2.017.464-1.031.183-.967.311-1.047.523-.326 1.41-.597 2.083-.797.642-.191 1.268-.321 1.865-.092.979.374.753 1.624.38 2.388-.507 1.039-1.362 2.538-2.051 2.733zm1.564 2.359v-.867h-5.032-.113-5.032v.867h5.032.113 5.032z" fill-opacity=".8"/></svg>