<svg xmlns="http://www.w3.org/2000/svg" width="46" height="30" fill="none" xmlns:v="https://vecta.io/nano"><g clip-path="url(#A)" fill="#0a1727"><path d="M3.134 18.034c.19.505.454.936.79 1.295a3.4 3.4 0 0 0 1.196.823c.461.19.962.285 1.503.285a3.72 3.72 0 0 0 1.481-.296c.461-.198.863-.475 1.207-.834a3.78 3.78 0 0 0 .801-1.284 4.64 4.64 0 0 0 .285-1.668v-9.48h2.304v15.362H10.42V20.81a5.29 5.29 0 0 1-1.811 1.251 5.73 5.73 0 0 1-2.249.439c-.819 0-1.584-.143-2.293-.428a5.37 5.37 0 0 1-1.843-1.218c-.519-.527-.929-1.159-1.229-1.898s-.45-1.562-.45-2.469V6.875h2.304v9.48c0 .614.095 1.174.285 1.679zm13.54-11.159v5.596a5.87 5.87 0 0 1 1.778-1.218 5.33 5.33 0 0 1 2.195-.45 5.79 5.79 0 0 1 2.304.461c.717.307 1.339.724 1.865 1.251s.944 1.148 1.251 1.865.461 1.478.461 2.282-.154 1.562-.461 2.271a5.92 5.92 0 0 1-1.251 1.854 5.88 5.88 0 0 1-1.865 1.251 5.79 5.79 0 0 1-2.304.461 5.4 5.4 0 0 1-2.205-.45 5.83 5.83 0 0 1-1.789-1.218v1.404h-2.194V6.875h2.216zm.252 11.302a3.82 3.82 0 0 0 .823 1.229 3.97 3.97 0 0 0 1.229.834c.468.205.973.307 1.514.307.527 0 1.024-.102 1.492-.307a3.84 3.84 0 0 0 1.218-.834 4.07 4.07 0 0 0 .823-1.229c.205-.468.307-.973.307-1.514a3.81 3.81 0 0 0-.307-1.525c-.205-.475-.479-.889-.823-1.24s-.75-.626-1.218-.823a3.8 3.8 0 0 0-1.492-.296c-.527 0-1.024.099-1.492.296a3.82 3.82 0 0 0-1.229.823c-.351.351-.629.764-.834 1.24s-.307.984-.307 1.525.099 1.046.296 1.514zm10.852-3.775a5.97 5.97 0 0 1 1.207-1.854 5.6 5.6 0 0 1 1.822-1.262c.703-.307 1.463-.461 2.282-.461.805 0 1.551.146 2.238.439a5.31 5.31 0 0 1 1.778 1.218c.497.519.885 1.134 1.163 1.843s.417 1.481.417 2.315v.724h-9.107a3.75 3.75 0 0 0 .439 1.262c.22.388.494.724.823 1.009s.702.508 1.119.669.86.241 1.328.241c1.331 0 2.407-.549 3.226-1.646l1.602 1.185a5.96 5.96 0 0 1-2.063 1.756c-.819.424-1.741.636-2.765.636a6.18 6.18 0 0 1-2.337-.439 5.69 5.69 0 0 1-1.887-1.229 5.83 5.83 0 0 1-1.262-1.854c-.307-.709-.461-1.481-.461-2.315a5.76 5.76 0 0 1 .439-2.238zm3.083-.867c-.622.519-1.035 1.211-1.24 2.074h6.825c-.19-.863-.596-1.554-1.218-2.074a3.3 3.3 0 0 0-2.184-.779 3.3 3.3 0 0 0-2.183.779zm11.972.253c-.468.512-.702 1.207-.702 2.085v6.364h-2.217V11.045h2.195v1.383a3.12 3.12 0 0 1 1.086-1.075c.446-.263.977-.395 1.591-.395h.768v2.063h-.922c-.732 0-1.331.256-1.8.768z" fill-opacity=".8"/></g><defs><clipPath id="A"><path fill="#fff" transform="translate(.545)" d="M0 0h45v30H0z"/></clipPath></defs></svg>