<svg xmlns="http://www.w3.org/2000/svg" width="84" height="30" fill="none" xmlns:v="https://vecta.io/nano"><g clip-path="url(#A)" fill="#0a1727"><path d="M51.592 10.115V20.42h2.884V10.115h-2.884zM28.9 10.098v10.314h2.91v-8.008l2.269.009c.745 0 1.265.183 1.62.568.459.489.641 1.284.641 2.725v4.707h2.823v-5.694c0-4.07-2.572-4.62-5.084-4.62H28.9zm27.343.018V20.42h4.677c2.494 0 3.308-.419 4.183-1.354.624-.655 1.022-2.105 1.022-3.685 0-1.45-.338-2.742-.935-3.546-1.057-1.441-2.598-1.72-4.902-1.72h-4.045zm2.858 2.236h1.239c1.802 0 2.962.812 2.962 2.926s-1.161 2.934-2.962 2.934h-1.239v-5.86zm-11.667-2.236l-2.408 8.166-2.304-8.165h-3.118l3.291 10.305h4.157l3.326-10.305h-2.945zM67.476 20.42h2.884V10.115h-2.884V20.42zm8.09-10.305l-4.028 10.296h2.841l.641-1.825h4.764l.606 1.817h3.092L79.42 10.115h-3.854zm1.871 1.878l1.749 4.821h-3.551l1.802-4.821zm-67.139-.221V10.33l.418-.018c3.864-.125 6.396 3.401 6.396 3.401s-2.733 3.882-5.665 3.882a3.52 3.52 0 0 1-1.14-.187v-4.381c1.505.187 1.81.864 2.706 2.404l2.01-1.727s-1.471-1.968-3.942-1.968a5.7 5.7 0 0 0-.783.036zm0-4.772v2.155l.418-.027c5.369-.187 8.876 4.505 8.876 4.505s-4.02 5.004-8.206 5.004a6.23 6.23 0 0 1-1.079-.098v1.336c.296.036.6.062.896.062 3.899 0 6.718-2.039 9.451-4.443.452.374 2.306 1.273 2.689 1.665-2.593 2.226-8.641 4.016-12.07 4.016-.331 0-.644-.018-.957-.053V23h14.811V7H10.298zm0 10.409v1.14c-3.603-.659-4.604-4.496-4.604-4.496s1.732-1.959 4.604-2.279v1.247h-.009C8.783 12.832 7.6 14.274 7.6 14.274s.67 2.431 2.698 3.134zm-6.396-3.517s2.132-3.223 6.405-3.562V9.155c-4.734.392-8.824 4.488-8.824 4.488s2.315 6.856 8.815 7.479v-1.247c-4.769-.605-6.396-5.983-6.396-5.983z" fill-opacity=".8"/></g><defs><clipPath id="A"><path fill="#fff" transform="translate(.482)" d="M0 0h83.125v30H0z"/></clipPath></defs></svg>