<svg xmlns="http://www.w3.org/2000/svg" width="41" height="30" fill="#0a1727" xmlns:v="https://vecta.io/nano"><path d="M7.486 18.457c0 1.246.273 2.203.631 2.781.469.758 1.168 1.079 1.88 1.079.919 0 1.76-.228 3.38-2.469l3.857-5.898 1.743-2.678c1.211-1.86 2.612-3.927 4.219-5.329 1.312-1.144 2.727-1.779 4.151-1.779 2.391 0 4.668 1.385 6.411 3.984 1.908 2.846 2.833 6.43 2.833 10.129 0 2.199-.434 3.815-1.171 5.092-.713 1.235-2.102 2.468-4.438 2.468v-3.52c2 0 2.5-1.838 2.5-3.942 0-2.998-.699-6.325-2.239-8.702-1.093-1.686-2.509-2.716-4.067-2.716-1.685 0-3.041 1.271-4.565 3.537-.81 1.204-1.642 2.671-2.576 4.327l-1.028 1.821c-2.065 3.662-2.588 4.496-3.621 5.872-1.81 2.41-3.355 3.323-5.39 3.323-2.414 0-3.94-1.045-4.885-2.62-.772-1.283-1.151-2.967-1.151-4.886l3.524.126z" fill-opacity=".8"/><path d="M6.74 8.397c1.616-2.491 3.948-4.232 6.622-4.232 1.549 0 3.089.458 4.697 1.771 1.759 1.435 3.633 3.799 5.972 7.694l.839 1.398 3.85 5.926c.867 1.051 1.474 1.364 2.263 1.364 2 0 2.5-1.838 2.5-3.942l3.109-.098c0 2.199-.434 3.815-1.171 5.092-.713 1.235-2.102 2.468-4.438 2.468-1.452 0-2.739-.315-4.162-1.658-1.094-1.03-2.373-2.861-3.356-4.506l-2.926-4.888c-1.468-2.453-2.815-4.282-3.595-5.111-.838-.891-1.916-1.966-3.637-1.966-1.392 0-2.575.977-3.564 2.471L6.74 8.397z" fill-opacity=".8"/><path d="M13.306 7.708c-1.392 0-2.575.977-3.564 2.471-1.399 2.112-2.256 5.257-2.256 8.278 0 1.246.273 2.203.631 2.781l-3.005 1.979c-.772-1.283-1.151-2.967-1.151-4.886 0-3.489.958-7.126 2.779-9.934 1.616-2.491 3.948-4.232 6.622-4.232l-.057 3.544z" fill-opacity=".8"/></svg>