<svg xmlns="http://www.w3.org/2000/svg" width="70" height="30" fill="none" xmlns:v="https://vecta.io/nano"><g clip-path="url(#A)" fill-rule="evenodd" fill="#0a1727"><path d="M43.402 23.629c-3.977 2.932-9.742 4.496-14.705 4.496-6.959 0-13.225-2.574-17.964-6.855-.372-.337-.039-.796.408-.533 5.115 2.976 11.44 4.767 17.974 4.767 4.406 0 9.253-.912 13.71-2.803.673-.286 1.236.441.578.93zm1.654-1.892c-.507-.649-3.361-.307-4.642-.155-.39.048-.45-.292-.098-.536 2.273-1.6 6.003-1.138 6.438-.602s-.113 4.278-2.249 6.063c-.328.274-.641.128-.495-.235.48-1.198 1.555-3.882 1.046-4.534zM40.503 9.752V8.197c0-.235.179-.393.393-.393h6.962c.223 0 .402.161.402.393v1.332c-.003.223-.191.515-.524.977l-3.608 5.151c1.341-.033 2.756.167 3.971.852.274.155.349.381.369.605v1.659c0 .226-.25.492-.512.355-2.142-1.123-4.987-1.245-7.356.012-.241.131-.495-.131-.495-.358v-1.576c0-.253.003-.685.256-1.069l4.18-5.994h-3.638c-.223 0-.402-.158-.402-.39zm-25.397 9.704h-2.118a.4.4 0 0 1-.378-.36V8.224c0-.217.182-.39.408-.39h1.975a.4.4 0 0 1 .384.363v1.421h.039c.515-1.373 1.484-2.014 2.789-2.014 1.326 0 2.154.641 2.75 2.014.512-1.373 1.677-2.014 2.926-2.014.888 0 1.859.366 2.452 1.189.67.915.533 2.243.533 3.408l-.003 6.861a.4.4 0 0 1-.408.393H24.34c-.212-.015-.381-.185-.381-.393V13.3c0-.459.042-1.603-.06-2.038-.158-.73-.632-.935-1.245-.935-.512 0-1.049.343-1.266.891s-.197 1.466-.197 2.082v5.762a.4.4 0 0 1-.408.393h-2.115a.4.4 0 0 1-.381-.393l-.003-5.762c0-1.213.2-2.997-1.305-2.997-1.522 0-1.463 1.74-1.463 2.997v5.762a.4.4 0 0 1-.408.393zM54.255 7.604c3.143 0 4.844 2.699 4.844 6.131 0 3.316-1.88 5.946-4.844 5.946-3.086 0-4.767-2.699-4.767-6.063 0-3.384 1.701-6.015 4.767-6.015zm.018 2.22c-1.561 0-1.659 2.127-1.659 3.453s-.021 4.165 1.642 4.165c1.642 0 1.719-2.288 1.719-3.682 0-.918-.039-2.014-.316-2.884-.238-.757-.712-1.052-1.385-1.052zm8.902 9.632h-2.109c-.212-.015-.381-.185-.381-.393l-.003-10.874c.018-.2.194-.355.408-.355h1.963c.185.009.337.134.378.304V9.8h.039c.593-1.487 1.424-2.196 2.887-2.196.95 0 1.877.343 2.473 1.281.554.87.554 2.333.554 3.384v6.843c-.024.191-.2.343-.408.343h-2.124a.4.4 0 0 1-.375-.343v-5.905c0-1.189.137-2.929-1.326-2.929-.515 0-.989.346-1.224.87-.298.664-.337 1.326-.337 2.059v5.854c-.003.218-.188.393-.414.393zm-28.222-5.193c0 .825.021 1.513-.396 2.246-.337.596-.873.962-1.466.962-.813 0-1.29-.62-1.29-1.534 0-1.805 1.618-2.133 3.152-2.133v.459zm2.136 5.163c-.14.125-.343.134-.501.051-.703-.584-.831-.855-1.215-1.412-1.162 1.186-1.987 1.54-3.492 1.54-1.785 0-3.17-1.099-3.17-3.301a3.59 3.59 0 0 1 2.258-3.462c1.15-.506 2.756-.596 3.983-.736v-.274c0-.503.039-1.099-.259-1.534-.256-.39-.751-.551-1.189-.551-.807 0-1.525.414-1.701 1.272-.036.191-.176.378-.369.387l-2.053-.22c-.173-.039-.366-.179-.316-.444.471-2.491 2.723-3.241 4.737-3.241 1.031 0 2.377.274 3.191 1.055 1.031.962.932 2.246.932 3.644v3.301c0 .992.411 1.427.798 1.963.134.191.164.42-.009.563l-1.624 1.406-.003-.006zM7.184 14.263c0 .825.021 1.513-.396 2.246-.337.596-.87.962-1.466.962-.813 0-1.287-.62-1.287-1.534 0-1.805 1.618-2.133 3.149-2.133v.459zm2.136 5.163c-.14.125-.343.134-.501.051-.703-.584-.828-.855-1.216-1.412-1.162 1.186-1.984 1.54-3.492 1.54-1.782 0-3.17-1.099-3.17-3.301 0-1.719.932-2.89 2.258-3.462 1.15-.506 2.756-.596 3.983-.736v-.274c0-.503.039-1.099-.256-1.534-.259-.39-.754-.551-1.189-.551-.807 0-1.528.414-1.704 1.272-.036.191-.176.378-.366.387l-2.056-.22c-.173-.039-.363-.179-.316-.444C1.771 8.251 4.02 7.5 6.034 7.5c1.031 0 2.377.274 3.191 1.055 1.031.962.933 2.246.933 3.644V15.5c0 .992.411 1.427.798 1.963.137.191.167.42-.006.563l-1.624 1.406-.006-.006z" fill-opacity=".8"/></g><defs><clipPath id="A"><path fill="#fff" transform="translate(.943)" d="M0 0h68.75v30H0z"/></clipPath></defs></svg>