<svg xmlns="http://www.w3.org/2000/svg" width="96" height="30" fill="none" xmlns:v="https://vecta.io/nano"><style><![CDATA[.B{fill-opacity:.8}.C{fill:#0a1727}.D{fill:#fff}]]></style><g clip-path="url(#A)"><g style="mix-blend-mode:luminosity"><g class="C B"><path d="M18.645 13.504c-.391.258-.972.452-1.728.452-.804 0-1.125-.133-1.681-.288-.119-.031-.2-.072-.2-.247l-.012-.669c0-.145.047-.618.2-.618.166 0 .072.309.201.587.19.401.569.824 1.657.824.9 0 1.503-.411 1.503-1.297 0-.536-.425-.968-1.113-1.358l-1.266-.71c-.816-.462-1.172-1.235-1.172-1.976 0-1.152.972-1.79 2.45-1.79.628 0 1.219.166 1.385.166.248 0 .272-.072.425-.072.094 0-.024.237-.024.35l.012.546a3.96 3.96 0 0 1-.059.577c-.024.113-.024.176-.131.176-.19 0-.106-.36-.166-.536a1.1 1.1 0 0 0-.378-.483c-.225-.176-.569-.329-1.197-.329-.556 0-1.291.319-1.291 1.111 0 .607.309.947 1.041 1.338l.959.505c.816.432 1.585 1.029 1.585 2.017 0 .587-.225 1.236-1.006 1.728m7.628.307c-.266 0-.544-.025-.81-.025l-1.334.025c-.047 0-.219.008-.219-.068 0-.166.515-.024.515-.348a1.15 1.15 0 0 0-.086-.448l-.362-.779c-.104-.223-.143-.415-.381-.415h-1.696c-.276 0-.352 0-.458.249l-.381.861c-.057.125-.133.389-.133.522 0 .149.18.174.305.207.076.016.391.033.391.117 0 .108-.086.1-.172.1-.268 0-.524-.025-.792-.025l-.886.025c-.076 0-.239.016-.239-.092 0-.084.201-.074.258-.084.362-.057.505-.239.638-.521l2.469-5.296c.018-.041.047-.108.114-.108.076 0 .133.1.153.149l2.412 5.187c.067.141.182.274.286.399.115.133.62.141.62.29 0 .076-.153.076-.211.076m-2.806-2.733l-.695-1.499c-.018-.033-.047-.141-.096-.141s-.039.033-.057.068l-.734 1.542-.114.266c0 .076.047.057.114.057h1.411c.057 0 .247.016.247-.065 0-.049-.057-.174-.076-.223m9.736-2.908c-.115.065-.162.546-.162 1.035v4.302c0 .174.029.44-.104.44-.115 0-.237-.141-.448-.331l-2.506-2.246-1.867-1.632c-.067-.065-.153-.125-.219-.125-.018 0-.039.016-.047.108-.018.198-.01.605-.01.961v2.088c0 .315.076.646.258.771.209.141.61.084.61.182 0 .074-.039.09-.237.09-.172 0-.695-.033-.943-.033l-.896.033c-.115 0-.143-.008-.143-.074 0-.084.229-.041.401-.158.258-.174.323-.505.323-.837V8.294c0-.448.029-.448.104-.448.094 0 .305.166.456.299l2.326 2.031 2.25 1.931c.039.033.104.025.104-.149V9.263c0-.464-.047-.904-.151-1.027-.172-.207-.562-.092-.562-.207 0-.057.067-.074.201-.074l.742.033c.248 0 .667-.041.781-.041.057 0 .268-.025.268.065 0 .108-.333.057-.524.166m10.876 4.288c-.757.916-1.87 1.399-3.444 1.399-.912 0-1.704-.082-2.438-.082l-1.137.041c-.178 0-.237-.051-.237-.123s.284-.092.425-.112.247-.041.331-.196c.119-.237.166-.74.166-1.225V7.496c0-.659-.356-.751-.922-.751-.106 0-.153-.02-.153-.092 0-.041.094-.112.331-.112l1.148.041 2.544-.072c.687 0 1.61.123 2.238.421 1.006.473 1.953 1.555 1.953 3.097 0 1.019-.307 1.822-.804 2.44m-3.929-5.57h-.603c-.297 0-.45.123-.45.401v4.549c0 .37.047 1.152.188 1.236.25.153.178.309 1.432.309 1.538 0 2.816-.74 2.816-3.076 0-1.915-1.219-3.418-3.385-3.418m7.704 6.924c-.076 0-.724-.033-1.172-.033l-1.021.033c-.125 0-.172-.049-.172-.098 0-.025.076-.084.172-.084a.41.41 0 0 0 .305-.108c.125-.125.172-.323.172-.779V8.758c0-.223-.047-.497-.209-.573-.229-.108-.495-.074-.495-.158 0-.041.133-.074.209-.074l1.029.033c.247 0 .8-.057.943-.057.19 0 .229.049.229.092 0 .065-.248.074-.409.158-.209.108-.209.44-.209.605V12c0 1.094-.029 1.393.286 1.591.068.041.201.049.362.076.076.008.123.041.123.074 0 .057-.076.082-.143.082zm4.478-4.94c-.115 0-.096-.182-.125-.241-.076-.149-.2-.282-.391-.331-.172-.041-.429-.049-.601-.049h-.648c-.172 0-.219 0-.219.157v1.998c0 .125.018.125.162.125h.771c.133 0 .354-.008.458-.082s.125-.19.153-.299c0-.016.018-.182.096-.182.096 0 .104.166.104.266 0 .149-.057.291-.057.44l.018.538c0 .049.018.182-.076.182-.133 0-.047-.256-.258-.432-.096-.074-.297-.066-.419-.066h-.857c-.094 0-.094.033-.094.108v1.996c0 .133 0 .231.114.323.18.149.372.149.62.149a1.65 1.65 0 0 0 .599-.092c.172-.057.286-.166.372-.299.01-.024.104-.233.161-.233.068 0 .068.066.068.108 0 .082-.104.315-.19.497-.068.141-.104.248-.133.274-.057.049-.19.074-.276.074-.763 0-1.133-.024-1.896-.024l-.943.033c-.076 0-.315.008-.315-.092 0-.133.495-.024.61-.274.123-.266.123-1.442.123-1.741V8.907c0-.133-.039-.63-.162-.712-.153-.1-.524-.076-.524-.166 0-.074.153-.074.209-.074l.771.033 1.44-.016.8-.025.505-.016c.104 0 .057.158.057.215l.029.589c0 .084 0 .149-.057.149m6.783 2.236c-.2.125-.229.53-.229.877v1.301c0 .1 0 .19-.086.231-.237.125-.972.391-2.201.391-.877 0-1.469-.108-2.125-.44-.971-.489-1.505-1.317-1.505-2.71 0-1.002.581-2.205 1.964-2.702.391-.141.867-.215 1.391-.215 1.315 0 2.039.299 2.326.299.258 0 .247-.117.323-.117.067 0 .057.057.057.1 0 .033-.039.141-.068.456-.029.264-.01.364-.047.579-.029.141-.029.241-.115.241-.057 0-.114-.1-.114-.207 0-.041.01-.25-.151-.399-.211-.19-1.115-.622-2.297-.622-1.411 0-2.107.978-2.107 2.238 0 2.197.828 3.183 2.469 3.183a2.17 2.17 0 0 0 .914-.248c.248-.149.258-.432.258-.861v-.888c0-.125-.018-.34-.115-.407-.352-.231-.524-.166-.524-.248 0-.066.047-.092.18-.092.104 0 .591.057 1.039.057.268 0 .906-.057.963-.057s.153.016.153.1c0 .057-.209.065-.352.158m4.276 2.802c-2.039 0-3.412-1.219-3.412-2.984 0-.29.018-.589.104-.886.352-1.235 1.505-2.197 3.04-2.197.409 0 .849.033 1.276.166 1.354.415 2.154 1.542 2.154 2.751 0 1.665-1 3.15-3.164 3.15m-.266-5.742c-1.638 0-1.953 1.475-1.953 2.444 0 1.681.81 2.974 2.315 2.974 1.383 0 1.906-1.068 1.906-2.205 0-1.417-.657-3.215-2.268-3.215m9.871 5.328c-.391.258-.972.452-1.728.452-.806 0-1.125-.133-1.681-.288-.119-.031-.2-.072-.2-.247l-.012-.669c0-.145.047-.618.201-.618.166 0 .072.309.2.587.19.401.569.824 1.657.824.9 0 1.503-.411 1.503-1.297 0-.536-.425-.968-1.113-1.358l-1.266-.71c-.816-.462-1.172-1.235-1.172-1.976 0-1.152.972-1.79 2.45-1.79.628 0 1.219.166 1.385.166.247 0 .272-.072.425-.072.094 0-.025.237-.025.35l.012.546a3.96 3.96 0 0 1-.059.577c-.025.113-.025.176-.131.176-.19 0-.106-.36-.166-.536a1.1 1.1 0 0 0-.378-.483c-.225-.176-.569-.329-1.195-.329-.556 0-1.291.319-1.291 1.111 0 .607.307.947 1.041 1.338l.959.505c.816.432 1.585 1.029 1.585 2.017 0 .587-.225 1.236-1.006 1.728m6.562-5.105c-.047.198-.018.538-.143.538-.115 0-.039-.247-.115-.323-.047-.049-.143-.182-.657-.182h-.914c-.151 0-.182-.025-.19.117l-.019 1.45v1.575c0 .736-.039 1.698.133 1.906.076.092.2.133.333.166.114.033.344-.008.344.092 0 .084-.125.084-.276.084-.162 0-.781-.025-.972-.025l-1.135.025c-.104 0-.219 0-.219-.066 0-.157.524.008.628-.274.047-.133.076-.828.076-1.358V9.642l-.029-1.002c0-.092.01-.198-.143-.198h-1.391c-.219 0-.333.25-.409.315s-.01.182-.123.182c-.086 0-.076-.117-.076-.182 0-.057.096-.473.153-.638s.039-.239.143-.239c.096 0 .153.057.294.074.211.025.724.049 1 .049H78.2l1.305-.033c.068 0 .125.049.125.133 0 .025-.047.166-.076.307m6.03 5.405c-.268 0-.544-.025-.81-.025l-1.334.025c-.047 0-.219.008-.219-.068 0-.166.515-.024.515-.348a1.15 1.15 0 0 0-.086-.448l-.362-.779c-.104-.223-.143-.415-.382-.415H81.21c-.276 0-.352 0-.458.249l-.38.861a1.69 1.69 0 0 0-.133.522c0 .149.182.174.305.207.076.016.391.033.391.117 0 .108-.086.1-.172.1-.268 0-.524-.025-.792-.025l-.886.025c-.076 0-.237.016-.237-.092 0-.084.2-.074.258-.084.362-.057.505-.239.638-.521l2.469-5.296c.018-.041.047-.108.115-.108.076 0 .133.1.153.149l2.412 5.187c.068.141.182.274.286.399.115.133.62.141.62.29 0 .076-.153.076-.209.076m-2.808-2.733l-.695-1.499c-.018-.033-.047-.141-.096-.141s-.039.033-.057.068L81.2 11.05l-.115.266c0 .076.047.057.115.057h1.411c.057 0 .247.016.247-.065 0-.049-.057-.174-.076-.223m7.544-2.682c-.047.198-.018.538-.143.538-.115 0-.039-.247-.115-.323-.047-.049-.143-.182-.659-.182h-.914c-.153 0-.182-.025-.19.117l-.018 1.45v1.575c0 .736-.037 1.698.133 1.906.076.092.201.133.333.166.115.033.344-.008.344.092 0 .084-.125.084-.276.084-.162 0-.781-.025-.972-.025l-1.133.025c-.104 0-.219 0-.219-.066 0-.157.524.008.628-.274.047-.133.078-.828.078-1.358V9.642l-.029-1.002c0-.092.01-.198-.143-.198H85.64c-.219 0-.333.25-.409.315s-.01.182-.125.182c-.086 0-.076-.117-.076-.182 0-.057.094-.473.151-.638s.039-.239.143-.239c.096 0 .153.057.294.074.211.025.724.049 1 .049h2.354l1.305-.033c.067 0 .123.049.123.133 0 .025-.047.166-.076.307m4.367.473c-.114 0-.096-.182-.125-.241-.076-.149-.2-.282-.391-.331-.172-.041-.43-.049-.599-.049h-.648c-.172 0-.219 0-.219.157v1.998c0 .125.018.125.162.125h.771c.133 0 .352-.008.458-.082s.125-.19.153-.299c0-.016.018-.182.094-.182.096 0 .104.166.104.266 0 .149-.057.291-.057.44l.018.538c0 .049.018.182-.076.182-.133 0-.047-.256-.258-.432-.096-.074-.297-.066-.419-.066h-.857c-.094 0-.094.033-.094.108v1.996c0 .133 0 .231.115.323.18.149.372.149.62.149a1.67 1.67 0 0 0 .601-.092c.172-.057.286-.166.372-.299.01-.024.104-.233.162-.233.067 0 .067.066.067.108 0 .082-.104.315-.19.497-.067.141-.104.248-.133.274-.057.049-.19.074-.276.074-.763 0-1.133-.024-1.896-.024l-.943.033c-.076 0-.315.008-.315-.092 0-.133.495-.024.609-.274.125-.266.125-1.442.125-1.741V8.907c0-.133-.039-.63-.162-.712-.153-.1-.524-.076-.524-.166 0-.074.151-.074.209-.074l.771.033 1.44-.016.8-.025.505-.016c.104 0 .057.158.057.215l.029.589c0 .084 0 .149-.057.149m-71.924 7.53c-.462.176-.378.835-.378 1.379v2.913c0 1.996-1.244 2.862-3.492 2.862-2.082 0-3.444-.628-3.444-2.346v-3.426c0-.495-.012-1.162-.106-1.256-.178-.166-.663-.207-.663-.258 0-.092.035-.125.213-.125l1.278.041 1.184-.051c.166 0 .237.02.237.102 0 .061-.272.072-.403.135-.225.113-.356.288-.356 1.955v2.614c0 1.154.65 2.172 2.354 2.172s2.569-.526 2.569-2.172v-2.254c0-.957-.106-2.027-.297-2.152-.356-.237-.794-.207-.794-.288s.094-.102.26-.102l1.088.041.922-.041c.131 0 .307-.031.307.092 0 .102-.131.031-.485.166m7.082 1.371c-.114.066-.162.546-.162 1.035v4.302c0 .174.029.44-.104.44-.115 0-.237-.141-.448-.331l-2.506-2.246-1.867-1.632c-.067-.065-.153-.125-.219-.125-.018 0-.039.016-.047.108-.018.198-.01.605-.01.961v2.088c0 .315.076.646.258.771.211.141.61.082.61.182 0 .074-.039.092-.237.092-.172 0-.695-.033-.943-.033l-.896.033c-.114 0-.143-.008-.143-.074 0-.084.229-.041.401-.157.258-.174.323-.505.323-.837v-4.459c0-.448.029-.448.104-.448.096 0 .305.166.458.299l2.326 2.031 2.25 1.931c.039.033.104.024.104-.149v-2.694c0-.464-.047-.904-.151-1.029-.172-.207-.562-.092-.562-.207 0-.057.067-.076.2-.076l.742.033c.248 0 .667-.041.781-.041.057 0 .268-.024.268.066 0 .108-.333.059-.524.166m3.554 5.648c-.076 0-.724-.033-1.172-.033l-1.021.033c-.123 0-.172-.049-.172-.1 0-.025.076-.084.172-.084a.41.41 0 0 0 .305-.108c.123-.125.172-.323.172-.779v-3.995c0-.223-.047-.497-.209-.571-.229-.108-.495-.076-.495-.158 0-.041.133-.076.211-.076l1.029.033c.248 0 .8-.057.943-.057.19 0 .229.049.229.092 0 .066-.247.074-.409.157-.211.108-.211.44-.211.606v3.215c0 1.094-.029 1.393.286 1.591.068.041.2.049.362.074.076.008.125.041.125.076 0 .057-.076.084-.143.084m7.672-5.767c-.104.049-.209 0-.419.125-.248.149-.43.505-.544.738l-2.516 4.93c-.029.049-.086.108-.153.108s-.104-.057-.133-.108l-2.563-5.022c-.153-.299-.333-.614-.734-.695-.067-.016-.297-.025-.297-.1s.211-.074.268-.074l1.078.033.896-.033c.047 0 .19 0 .19.066 0 .117-.344.008-.344.247 0 .158.182.605.258.755l1.573 3.115c.019.033.068.133.125.133.047 0 .086-.066.104-.1l1.724-3.406c.057-.125.115-.307.115-.44 0-.258-.305-.198-.305-.299 0-.084.067-.074.143-.074l.667.033c.219 0 .448-.041.677-.041.057 0 .209.008.209.084 0 .008-.01.016-.018.025zm4.045.827c-.114 0-.096-.182-.123-.239-.076-.149-.2-.282-.391-.331-.172-.041-.429-.049-.599-.049h-.648c-.172 0-.219 0-.219.157v1.996c0 .125.019.125.162.125h.771c.133 0 .352-.008.458-.084s.125-.19.154-.299c0-.016.018-.182.096-.182.096 0 .104.166.104.266 0 .149-.057.29-.057.44l.018.538c0 .049.018.182-.076.182-.133 0-.047-.256-.258-.432-.096-.074-.297-.066-.419-.066h-.857c-.094 0-.094.033-.094.108v1.996c0 .133 0 .231.114.323.182.149.372.149.62.149a1.67 1.67 0 0 0 .601-.092c.172-.057.286-.166.372-.299.01-.025.104-.231.162-.231.068 0 .068.066.068.108 0 .082-.104.315-.19.497-.067.141-.104.25-.133.274-.057.049-.19.074-.276.074-.763 0-1.133-.024-1.896-.024l-.943.033c-.076 0-.315.008-.315-.092 0-.133.495-.025.61-.274.125-.266.125-1.442.125-1.741v-2.808c0-.133-.039-.63-.162-.712-.153-.1-.524-.076-.524-.166 0-.076.154-.076.209-.076l.771.033 1.44-.016.8-.024.505-.016c.104 0 .057.157.057.215l.029.589c0 .082 0 .149-.057.149m7.289 4.924h-.61c-.63 0-1.229-.158-1.62-.597l-1.105-1.252c-.258-.299-.362-.663-.734-.663h-.362c-.057 0-.086.016-.086.065v1.102c0 .614.096.894.151.994.047.1.133.117.219.158.115.049.381.049.381.117 0 .057-.068.092-.201.092-.096 0-.742-.033-1.01-.033l-.972.033c-.115 0-.286-.008-.286-.074s.219-.092.372-.157c.219-.092.258-.331.258-.646v-4.269c0-.166-.068-.364-.143-.413-.266-.174-.581-.125-.581-.215 0-.057.018-.092.162-.092l1.086.033 1.276-.057c1.172 0 2.183.522 2.183 1.458 0 1.07-1.086 1.55-1.162 1.599-.047.033-.029.057.039.133l1.401 1.475c.448.464.925.953 1.362 1.019.114.016.333-.024.333.082 0 .1-.237.108-.352.108zm-4.021-5.486h-.229c-.219 0-.266.198-.266.364v2.189c0 .1.239.082.344.082h.344c.352 0 .362-.033.419-.049.409-.157.716-.391.716-1.227 0-.622-.401-1.358-1.325-1.358m7.532 5.232c-.315.207-.781.364-1.391.364-.648 0-.904-.108-1.354-.231-.096-.024-.162-.057-.162-.198l-.01-.538c0-.117.039-.497.162-.497.133 0 .057.25.162.473.151.323.458.663 1.334.663.724 0 1.211-.331 1.211-1.043 0-.432-.344-.779-.896-1.094l-1.021-.573a1.8 1.8 0 0 1-.943-1.591c0-.929.781-1.442 1.972-1.442.505 0 .982.133 1.115.133.2 0 .219-.057.344-.057.076 0-.018.19-.018.282l.01.44a3.04 3.04 0 0 1-.047.464c-.018.092-.018.141-.104.141-.153 0-.086-.29-.133-.431-.039-.117-.162-.291-.305-.389-.182-.141-.458-.266-.963-.266-.448 0-1.039.258-1.039.896 0 .489.248.763.839 1.078l.771.405c.659.348 1.276.828 1.276 1.624 0 .473-.182.994-.81 1.393m3.886.264c-.076 0-.724-.033-1.172-.033l-1.021.033c-.125 0-.172-.049-.172-.1 0-.025.076-.084.172-.084a.41.41 0 0 0 .305-.108c.125-.125.172-.323.172-.779v-3.995c0-.223-.047-.497-.209-.571-.229-.108-.495-.076-.495-.158 0-.041.133-.076.209-.076l1.029.033c.248 0 .8-.057.943-.057.19 0 .229.049.229.092 0 .066-.248.074-.409.157-.211.108-.211.44-.211.606v3.215c0 1.094-.029 1.393.286 1.591.068.041.201.049.362.074.076.008.123.041.123.076 0 .057-.076.084-.143.084m6.008-5.424c-.047.198-.018.538-.143.538-.114 0-.039-.25-.114-.323-.047-.049-.143-.182-.657-.182H64c-.151 0-.18-.025-.19.117l-.018 1.45v1.575c0 .738-.039 1.698.133 1.906.076.092.2.133.333.166.115.033.344-.008.344.09 0 .084-.125.084-.276.084-.162 0-.781-.024-.972-.024l-1.135.024c-.104 0-.219 0-.219-.065 0-.158.524.008.628-.274.047-.133.076-.828.076-1.358v-2.487l-.029-1.002c0-.09.01-.198-.143-.198h-1.391c-.219 0-.333.248-.409.315s-.01.182-.125.182c-.086 0-.076-.117-.076-.182 0-.057.096-.473.153-.638s.039-.239.143-.239c.096 0 .153.057.295.074a12.01 12.01 0 0 0 1 .049h2.354l1.305-.033c.067 0 .125.049.125.133 0 .024-.047.166-.076.307m7.343-.317c-.123.016-.201.025-.323.066-.143.049-.458.364-.552.473l-1.878 2.205a.91.91 0 0 0-.153.464v1.757c0 .141.01.307.115.415.086.092.286.182.419.182.068 0 .229-.016.229.074 0 .108-.237.09-.315.09-.295 0-.638-.025-.935-.025l-.963.025c-.067 0-.323.016-.323-.084 0-.074.229-.082.295-.1.096-.033.172-.066.248-.125.143-.117.143-.464.143-.622V20.95a.45.45 0 0 0-.115-.34l-1.943-2.395c-.115-.141-.266-.339-.448-.415-.086-.033-.505-.074-.505-.141 0-.108.258-.1.333-.1l.781.033 1.029-.033c.068 0 .294 0 .294.1 0 .065-.344.057-.344.141 0 .149.123.331.219.448l1.458 1.773c.029.033.076.092.133.092.047 0 .086-.057.115-.092l1.133-1.358c.153-.182.43-.581.43-.804 0-.19-.333-.133-.333-.198 0-.09.162-.09.237-.09l.524.025.906-.025c.067 0 .229-.008.229.082 0 .041-.123.041-.143.041M.329 24L.317 6.422.399 6.37C.487 6.315 2.606 5 6.322 5s5.83 1.268 5.917 1.321l.084.051v17.621L.331 24H.329z"/><use href="#B"/></g><use href="#B" class="D"/><g class="C B"><path d="M11.558 23.275l-10.501.004V7.983s1.827-1.19 5.255-1.19 5.242 1.209 5.242 1.209l.004 15.273z"/><use href="#C"/><use href="#D"/><use href="#E"/><path d="M2.475 15.814v1.053l-.593-.039v-1.068c0-.155.133-.28.297-.28s.297.18.297.333z"/><use href="#F"/><use href="#G"/><use href="#H"/><path d="M4.346 21.974h.333v-2.189H4.35l-.004 2.189zM2.127 11.027l2.07.738c.36.19.344.239.37.29a.2.2 0 0 1 .004.074c-.319-.37-1.415-.601-2.446-.663 0 .002 0-.436 0-.44m5.23 8.94l-1.143-.002v-1.959l1.143.002v1.959zm1.366-3.539l.041-.012s-.025.047-.035.125l-.002.086.002.988c.002.002-.19.027-.19.027v-.988c-.002-.059.065-.176.186-.223"/></g><g class="D"><path d="M11.615 13.133c-.014-.027 0-.188-.029-.198-.448-.155-.562-.164-.691-.19l-.233-.031c-.812-.084-1.184.025-1.213.023-.01 0-.444.076-.52.119l-.006 3.469c.002.061.147-.004.209.141.016.041.027.153.029.342l.004 1.129c-.078-.014-.137-.049-.219.072l-.012 4.271c.025.043.131-.276.55-.442.716-.28 1.049-.063 1.278-.094s.245-.172.765-.444c.016-.006.045-.021.053-.01v-3.07c.014.02.043-5.083.039-5.087M1.036 11.751c.004-.049.043-.043.043-.043a6.53 6.53 0 0 1 1.154-.018 6.67 6.67 0 0 1 .749.08 6.42 6.42 0 0 1 .751.153c.323.123.196.061.415.174.164.086.286.1.274.262-.035.021.27-.188.18-.129-.025.002-.094.02-.082-.004.041-.033.131-.133-.088-.309a4.78 4.78 0 0 1 .603-.004l.661.041c.112-.006.362.088.857.127l.562.098 1.066.166-.104.1v.19c-.659.233-.329.436-.162.391 0 0-.115-.096-.157-.045l-1.37 1.52c-.004.004.92.111.912.1v.507l.008.546c-.151-.072-.28-.297-.425-.358-.16-.066-.331-.258-.448-.266-.065-.006-.305-.041-.466-.033-.192 0-.346.053-.522.088a1.39 1.39 0 0 0-.274.092 1.24 1.24 0 0 1-.182.086c-.135.076-.227.121-.27.166-.047.035-.121.084-.162.131-.137.147-.241.634-.241.632v.45h.213a4.91 4.91 0 0 0 .585.053 1.71 1.71 0 0 1 .546.176c.061.035.522.364.548.931l.002.542c0 .008.012.055-.014.049l-.391-.084a.19.19 0 0 0-.07.004c-.102.02-.207-.033-.309.029-.135-.002-.158.057-.274.051-.033 0-.1.024-.184.055a.67.67 0 0 0-.219.094c-.192.065-.272.196-.401.307l.082 2.495c0 .006-.063.399-.006.569.043.133.211.051.215.055a12.11 12.11 0 0 0 .243.55c-.188-.55-.215.125-.583.043-.041-.014-.329.074-.397.033s-.517.039-.567 0c-.808-.661-1.062-.346-1.125-.372-.305-.886-1.123-1.426-1.133-1.426a1.04 1.04 0 0 0-.065.004"/></g><g class="C B"><use href="#C"/><use href="#D"/><use href="#E"/></g><g class="D"><path d="M7.383 10.62l-2.878-.54a2.28 2.28 0 0 1-.135-.006m-.432 1.373a85.99 85.99 0 0 0 .059-1.284c0-.008 3.295.47 3.361.52"/><path d="M4.23 9.954l.562-.593c.055-.094.153-.661.151-.71l.039-.147c.004-.004.526-.337.524-.34.043-.014.902.55.902.548l-.033.176.004.749c0 .145.601.562.673.683.039.041.409.19.409.19s-.078.086-.078.086c-.008.158-.027.528.008.763.098.558.239.728.26.747s.067.069.121.106c.031.021.237.1.174.113-.106-.029-.117-.01-.473-.068-.133-.022-.295-.004-.479-.053l-.64-.086-.673-.088c-.149-.027-.094 0-.252-.035-.256-.031-.669 0-.961-.039.065.047-.192-.155-.401-.243-.219-.096-.413-.043-.395-.119-.016.039.258-.331.282-.802l.018-.765"/><path d="M4.364 12.215s.115.055.168.006l.076.01s-.241.299-.215.047l-.029-.063z"/></g><g class="C B"><path d="M7.791 15.043H7.3v1.493h.491v-1.493z"/><path d="M7.299 15.92c-.276-.475-.8-.79-1.409-.79-.775 0-1.426.509-1.575 1.194v-.607c.315-.511.9-.847 1.575-.847a1.87 1.87 0 0 1 1.407.622v.428m-.258-3.096v1.062l-.9-.078v-1.107c.004-.166.202-.297.45-.294.276.002.45.249.45.413v.006m-1.761-.192v1.06l-.908-.078v-1.088-.018c.004-.164.202-.297.454-.294.278.002.454.249.454.411v.006m6.284-2.826V6.786s-2.105-1.09-5.245-1.09S1.06 6.852 1.06 6.852v2.16h.018l.659.771.018-.078c.067.376.153.689.26.828.352.458 1.274.982 1.274.982 0 .006-.037-.466 0-.753a5.07 5.07 0 0 0 .012-.534c0-.002.168.037.56.092l2.375.117.751.434.501 1.28.597.473 1.96-.618c.068-.016.092.012.08.043-.043.016-1.211.585-1.205.581l.1-.023a6.24 6.24 0 0 1 .65-.094c.777-.102 1.563.117 1.79.174l.104.033.004-2.915h-.004l-.004.002z"/><use href="#F"/><use href="#G"/><path d="M4.462 16.481l1.338.28.358.587.268.477.006.243-.301.027-.28-.837-.56-.395-.56-.082-.403-.026-.106-.039.096-.045v-.149l.143-.039"/></g><path d="M6.288 18.41v-.213c.002-.239-.029-.466-.137-.669-.049-.094-.11-.184-.18-.266-.317-.38-.822-.626-1.391-.626-.675 0-1.26.335-1.575.847v.608c.149-.685.8-1.195 1.575-1.195.61 0 1.086.294 1.364.769l.014.031c.084.209.076.339.08.587v.135l.245-.006" class="D"/><g class="C B"><path d="M7.356 21.732H4.681v-1.925-.022c.012-.466.385-.843.843-.843s.832.374.843.843v.022h.898v-.047c-.025-.963-.794-1.739-1.741-1.739-.444 0-.849.17-1.156.45-.012.01-.008.018-.018.029v1.282l-.004 2.189h.333 2.675v-.239"/><use href="#E"/><path d="M3.346 15.919l-.004 1.084-.583-.1v-1.037c0-.153.131-.276.293-.276s.292.178.292.329m-.884-.113v1.053l-.593-.039v-1.07c0-.155.133-.28.297-.28s.297.18.297.333m2.167-7.485l-.041.014-.016-.016-.704.35a3.6 3.6 0 0 0 .139.117l.041.037.004.554-.485.546-.074-.125c.057-.016.1-.065.1-.125 0-.072-.065-.131-.145-.131s-.145.059-.145.131c0 .059.043.108.104.125l-.207.356.086.084v.143.012a2.83 2.83 0 0 1-.051.622c-.08-.679-.597-.861-.671-.898-.123-.061-.262-.07-.427-.217-.129-.115-.182-.35-.317-.501-.331-.405-.759-.376-.759-.376h-.004l.004 2.301 2.095.059c-.02.104-.039.2-.074.28-.08.19.176.049.395.143l.446.129 1.195-3.455-.489-.162"/></g><path d="M4.478 11.955zm3.453-.041c.07-.021.123-.08.123-.151 0-.088-.078-.16-.176-.16s-.176.072-.176.16c0 .072.053.133.127.151l-.131.227-.039-.037c-.02-.018-.16-.188-.26-.747 0 .016.006-.745-.002-.759l.082-.08-.225-.391c.063-.018.11-.072.11-.137 0-.08-.07-.143-.157-.143s-.157.063-.157.143c0 .065.047.119.112.137l-.106.182c-.08-.131-.497-.667-.497-.81l-.004-.749.184-.145-1.053-.579-1.109.288.18.162c.004.049.039.785-.016.88-.043.074-.293.446-.395.599L4.2 9.705c.063-.018.11-.072.11-.137 0-.08-.07-.143-.157-.143s-.158.063-.158.143c0 .065.049.119.113.137l-.225.389.094.092v.102l-.01.501c-.016.315-.145.587-.225.718l-.121-.207c.072-.021.123-.08.123-.151 0-.088-.078-.159-.176-.159s-.176.072-.176.159c0 .072.053.133.125.151l-.149.256.501.176-.051-.09a.83.83 0 0 1 .256.063 2.26 2.26 0 0 1 .405.243c.292.037.702.008.957.037.155.037.102.008.252.037l.673.088c.155.031.405.043.64.086.184.049.346.031.479.053l.139.023-.041.072.104.1v.188h.395v-.188l.104-.1-.252-.434" class="D"/><g class="C B"><path d="M7.414 19.963l-1.125.006v-1.962l1.125-.004v1.959zm.321-6.876h.252v-.17h-.252v.17zm2.6-1.201l-2.469.835c-.061.031-.202.125-.19.207l1.278-.28 1.434-.677s.063-.094-.053-.082m-1.421 4.418c.002.014 0 .012.006.023.037.041.2-.01.219.196l.018 1.08c0 .016-.047.02-.094.024l-.127.016-.014 4.451c0 .209.01.184.01.184.088-.094.115-.205.413-.389.037-.016.076-.066.513-.18v-9.041c-.403.024-.855.129-.937.17l-.006 3.463m-7.047.506v-1.07c0-.155.133-.28.297-.28.018 0 .039.002.057.008v-3.792c-.767-.029-.935 0-1.17.025 0-.004.006 9.99.006 9.99h.004v-.884c.051 0 .145-.012.149-.01-.123.004.509-.096 1.01.407v-4.371l-.354-.023z"/><path d="M1.867 16.813v-1.07c0-.155.133-.28.297-.28.018 0 .039.002.057.006v-3.792c-.767-.029-.929-.002-1.164.022 0-.004 0 9.992 0 9.992h.004v-.884c.051 0 .145-.012.149-.01-.123.004.509-.096 1.01.407v-4.371l-.354-.022m2.506 1.667a1.71 1.71 0 0 1 1.156-.45 1.69 1.69 0 0 1 .761.198v-.037c0-.239-.025-.466-.131-.671-.051-.094-.11-.184-.18-.266-.317-.381-.822-.626-1.391-.626a2.35 2.35 0 0 0-.272.018l.033 1.874c.012-.01.014-.031.025-.041zm2.354-7.449v.982l-.7-.072v-1.008-.016c.004-.153.155-.274.35-.272.213.002.35.231.35.383v.006m-.699-1.816v.945l-.671-.082v-.957-.016c.002-.147.151-.264.335-.262.205 0 .335.221.335.366v.006zm-.665 1.657v.998l-.712-.074V10.77v-.016c.002-.155.16-.28.356-.278.217 0 .356.233.356.389v.006"/><path d="M4.187 11.771c.36.188.344.239.37.29.008.033.006.063.004.074-.438-.507-2.324-.751-3.504-.659v-.368l.356-.125c.072-.023.284-.09.372-.049.157.023 2.193.708 2.403.837"/><use href="#H"/></g></g></g><defs><clipPath id="A"><path transform="translate(.051)" d="M0 0h95.625v30H0z" class="D"/></clipPath><path id="B" d="M.662 6.624l.012 17.034 11.293-.006V6.579c-.423-.229-2.442-1.223-5.649-1.223S1.081 6.388.662 6.624z"/><path id="C" d="M4.354 21.925l.039.092.475.587.252.078-.121-.775-.644.019z"/><path id="D" d="M7.353 21.732v.239H4.596l.012-.239h2.745z"/><path id="E" d="M8.464 22.219v.235l-3.549.004s-.106-.174-.174-.244l3.723.002"/><path id="F" d="M1.07 9.024s.432-.027.763.376c.135.151.188.387.317.501.166.147.305.158.427.217.078.039.464.184.509.933l-.065.288-1.96-.014.008-2.299"/><path id="G" d="M4.883 22.52c-.188-.55-.399-.534-.767-.616-.041-.012-.157-.016-.225-.057s-.094-.08-.143-.119c-.808-.661-1.309-.313-1.372-.338-.511-.712-1.301-.589-1.166-.591-.004 0-.084 0-.135-.002v1.941l1.362-.086 1.982.033.464-.164"/><path id="H" d="M4.885 22.52c-.188-.55-.399-.534-.767-.616-.041-.012-.157-.016-.225-.057s-.094-.08-.143-.119c-.808-.661-1.309-.313-1.372-.338-.511-.712-1.301-.589-1.166-.591-.004 0-.098.012-.149.01v1.925l1.377-.082 1.982.033.464-.164"/></defs></svg>