<svg width="26" height="28" viewBox="0 0 26 28" fill="none" xmlns="http://www.w3.org/2000/svg">
<path d="M23.1713 4.8196L15.0379 1.19293C13.8113 0.646265 12.4113 0.646265 11.1713 1.1796L2.86465 4.8196C1.51798 5.4196 0.664648 6.80627 0.784648 8.28627L1.23794 14.6995C1.61127 19.8195 4.78462 24.2595 9.50462 26.2729L11.6379 27.1795C12.0779 27.3662 12.5446 27.4462 13.0113 27.4462C13.4779 27.4462 13.9447 27.3662 14.3847 27.1795L16.5179 26.2729C21.2379 24.2595 24.4246 19.8195 24.7846 14.6995L25.2379 8.27293C25.3446 6.80627 24.5046 5.4196 23.1713 4.8196ZM17.6113 12.2195L12.4779 17.4062C12.2913 17.5929 12.0246 17.6995 11.7579 17.6995C11.4913 17.6995 11.2381 17.5929 11.0514 17.4062L8.41127 14.7395C8.02461 14.3529 8.02462 13.7262 8.42462 13.3262C8.81129 12.9395 9.45129 12.9395 9.83795 13.3395L11.7579 15.2862L16.1846 10.8196C16.5846 10.4196 17.2113 10.4196 17.5979 10.8063C17.9979 11.1929 17.9979 11.8329 17.6113 12.2195Z" fill="#11BB62"/>
</svg>
