<svg width="36" height="36" viewBox="0 0 36 36" fill="none" xmlns="http://www.w3.org/2000/svg">
<path d="M30.9348 0H5.0652C2.26777 0 0 2.26777 0 5.0652V30.9348C0 33.7322 2.26777 36 5.0652 36H30.9348C33.7322 36 36 33.7322 36 30.9348V5.0652C36 2.26777 33.7322 0 30.9348 0Z" fill="url(#paint0_linear_7356_17965)"/>
<path d="M24.6321 12.89C24.72 12.7916 24.8329 12.7473 24.9617 12.75C25.2001 12.7553 25.3434 12.641 25.4253 12.4211C25.4669 12.3081 25.5105 12.1708 25.6624 12.1662C25.8295 12.1609 25.8751 12.3095 25.9193 12.4283C26.0026 12.6509 26.1485 12.7573 26.3876 12.7454C26.5144 12.7388 26.6432 12.7612 26.6973 12.8986C26.7495 13.0307 26.6663 13.1271 26.5705 13.1925C26.3275 13.3589 26.2958 13.5828 26.3744 13.8391C26.41 13.9566 26.3922 14.0484 26.2925 14.1224C26.1928 14.1964 26.0977 14.1521 26.0191 14.0933C25.7839 13.9183 25.5581 13.9196 25.3223 14.092C25.2345 14.1567 25.1321 14.1977 25.0291 14.1085C24.9346 14.0273 24.9373 13.9328 24.965 13.8173C25.0614 13.4151 25.0251 13.3464 24.6315 13.0875V12.8893L24.6321 12.89Z" fill="url(#paint1_linear_7356_17965)"/>
<path d="M27.4524 10.4485C27.4695 10.3594 27.4841 10.2108 27.5277 10.0707C27.6043 9.82573 27.5356 9.63882 27.3447 9.47833C27.2377 9.38851 27.1433 9.28416 27.0442 9.18443C26.9458 9.08537 26.8824 8.97111 26.9333 8.82845C26.9815 8.69174 27.0924 8.59664 27.2298 8.60126C27.8143 8.6224 28.1471 8.33907 28.3407 7.80014C28.4463 7.50625 28.7752 7.51615 28.9351 7.78892C29.0057 7.90912 29.0757 8.03328 29.122 8.16471C29.2191 8.44077 29.4238 8.5339 29.6932 8.54512C29.8075 8.54975 29.9211 8.57683 30.0354 8.58541C30.1939 8.5973 30.2969 8.68316 30.353 8.82251C30.4138 8.97441 30.3504 9.11046 30.2328 9.195C29.7851 9.51598 29.6252 9.91621 29.8234 10.4505C29.8769 10.5945 29.826 10.7451 29.6847 10.8421C29.5519 10.934 29.4211 10.9141 29.291 10.8369C29.2838 10.8329 29.2765 10.8283 29.2692 10.825C28.5923 10.4895 28.7587 10.4234 28.0124 10.8204C27.6802 10.9974 27.4411 10.8547 27.453 10.4485H27.4524Z" fill="url(#paint2_linear_7356_17965)"/>
<path d="M17.9968 30.6705C15.7644 30.6705 13.532 30.6648 11.2997 30.6775C10.9964 30.6798 10.9226 30.5956 10.9273 30.2969C10.9445 28.9292 10.9353 27.5604 10.9342 26.1915C10.9342 26.0912 10.9342 25.9897 10.9319 25.8894C10.9249 25.6656 10.8108 25.5296 10.5836 25.5422C10.3784 25.5526 10.2838 25.6922 10.2827 25.894C10.2827 25.9943 10.2815 26.0958 10.2815 26.1961C10.2815 27.5788 10.2746 28.9615 10.2873 30.3442C10.2896 30.6094 10.2227 30.689 9.95406 30.6832C9.13307 30.6659 8.31208 30.6682 7.49109 30.6832C7.25125 30.6878 7.17745 30.6256 7.1786 30.3776C7.18783 28.0297 7.18783 25.6818 7.1786 23.335C7.1786 23.1136 7.24433 23.011 7.45419 22.9291C9.3141 22.2095 11.1705 21.4807 13.0235 20.7415C13.2565 20.6481 13.3625 20.6815 13.4836 20.9075C14.2527 22.3375 15.0368 23.7582 15.8174 25.1813C16.0976 25.6922 16.2349 25.7129 16.6488 25.3058C17.0397 24.9218 17.4317 24.5413 17.8111 24.1469C17.9518 24.0004 18.044 23.99 18.1928 24.1388C18.5191 24.464 18.8639 24.7708 19.2017 25.0833C19.5892 25.4419 19.7229 25.4281 19.9962 24.9795C20.8195 23.6302 21.6439 22.281 22.458 20.9248C22.586 20.7115 22.684 20.6261 22.9538 20.7345C24.7918 21.4726 26.6356 22.1933 28.4828 22.9083C28.7181 22.9994 28.8057 23.1113 28.8045 23.3731C28.793 25.6922 28.793 28.0113 28.8045 30.3304C28.8057 30.6083 28.7411 30.6948 28.454 30.6867C27.663 30.6659 26.8697 30.6659 26.0787 30.6867C25.78 30.6948 25.6901 30.6175 25.6958 30.3096C25.7154 29.259 25.7039 28.2073 25.7039 27.1556C25.7039 26.8385 25.7143 26.5213 25.7005 26.2053C25.6889 25.9401 25.8158 25.5411 25.3672 25.5538C24.9302 25.5665 25.0547 25.9643 25.0536 26.2284C25.0444 27.5673 25.0328 28.9073 25.0593 30.2462C25.0663 30.621 24.9533 30.6832 24.6073 30.6809C22.4038 30.6648 20.2003 30.6729 17.9968 30.6729V30.6705Z" fill="url(#paint3_linear_7356_17965)"/>
<path d="M16.3379 24.7325C15.5296 23.2576 14.7813 21.8841 14.0214 20.5164C13.9176 20.3307 13.9349 20.2304 14.0917 20.0817C14.6809 19.5247 14.674 19.5177 15.141 20.1532C15.8894 21.1737 16.6319 22.1978 17.3884 23.2115C17.5256 23.3948 17.529 23.5009 17.3584 23.6647C17.0171 23.9922 16.7034 24.3462 16.3379 24.7314V24.7325Z" fill="url(#paint4_linear_7356_17965)"/>
<path d="M19.4865 24.4281C19.3504 24.3036 19.2132 24.1767 19.076 24.051C18.6478 23.6566 18.6075 23.2222 18.9549 22.7479C19.6594 21.7861 20.3686 20.829 21.0616 19.8603C21.2253 19.6319 21.3245 19.5547 21.5655 19.7876C22.0717 20.2766 22.0844 20.2616 21.7142 20.8716C21.0443 21.9753 20.3767 23.08 19.7033 24.1813C19.6479 24.2713 19.6248 24.3981 19.4865 24.4304V24.4281Z" fill="url(#paint5_linear_7356_17965)"/>
<path d="M23.2699 12.2499C23.1304 14.1019 22.4904 16.127 21.116 17.8868C20.8577 18.2177 20.5567 18.506 20.2212 18.7597C18.8456 19.7988 17.229 19.7861 15.8891 18.6986C14.5988 17.6515 13.9012 16.2227 13.4134 14.6809C12.9949 13.3547 12.7124 12.0089 13.0606 10.6089C13.6902 8.08337 16.1185 6.37317 18.6576 6.67762C21.3212 6.99706 23.2987 9.23542 23.2688 12.2499H23.2699Z" fill="url(#paint6_linear_7356_17965)"/>
<defs>
<linearGradient id="paint0_linear_7356_17965" x1="1.18711e-07" y1="18.1856" x2="35.4013" y2="16.5166" gradientUnits="userSpaceOnUse">
<stop stop-color="#2295FF"/>
<stop offset="1" stop-color="#274AFF"/>
</linearGradient>
<linearGradient id="paint1_linear_7356_17965" x1="25.6725" y1="12.166" x2="25.6725" y2="14.1612" gradientUnits="userSpaceOnUse">
<stop stop-color="white"/>
<stop offset="1" stop-color="white" stop-opacity="0.32"/>
</linearGradient>
<linearGradient id="paint2_linear_7356_17965" x1="28.6459" y1="7.58203" x2="28.6459" y2="10.9033" gradientUnits="userSpaceOnUse">
<stop stop-color="white"/>
<stop offset="1" stop-color="white" stop-opacity="0.32"/>
</linearGradient>
<linearGradient id="paint3_linear_7356_17965" x1="17.9916" y1="20.6875" x2="17.9916" y2="30.6873" gradientUnits="userSpaceOnUse">
<stop stop-color="white"/>
<stop offset="1" stop-color="white" stop-opacity="0"/>
</linearGradient>
<linearGradient id="paint4_linear_7356_17965" x1="15.7225" y1="19.6699" x2="15.7225" y2="24.7325" gradientUnits="userSpaceOnUse">
<stop stop-color="white" stop-opacity="0.72"/>
<stop offset="1" stop-color="white"/>
</linearGradient>
<linearGradient id="paint5_linear_7356_17965" x1="20.3464" y1="19.6465" x2="20.3464" y2="24.4304" gradientUnits="userSpaceOnUse">
<stop stop-color="white" stop-opacity="0.7"/>
<stop offset="1" stop-color="white"/>
</linearGradient>
<linearGradient id="paint6_linear_7356_17965" x1="18.0869" y1="6.64258" x2="18.0869" y2="19.5269" gradientUnits="userSpaceOnUse">
<stop stop-color="#FDFDFD"/>
<stop offset="1" stop-color="#FDFDFD" stop-opacity="0.37"/>
</linearGradient>
</defs>
</svg>
