<svg xmlns="http://www.w3.org/2000/svg" width="32" height="32" fill="none" opacity=".4" xmlns:v="https://vecta.io/nano"><g fill="#0a1727"><rect x="2.375" y="2.738" width="26.886" height="26.668" rx="6" fill-opacity=".8"/><rect x="2.375" y="2.738" width="26.886" height="26.668" rx="6" fill-opacity=".8"/><rect x="2.375" y="2.738" width="26.886" height="26.668" rx="6" fill-opacity=".8"/></g><g fill="#fff"><path d="M22.539 10.835c0 .789-.645 1.429-1.44 1.429s-1.44-.64-1.44-1.429.645-1.429 1.44-1.429 1.44.64 1.44 1.429z"/><g fill-rule="evenodd"><path d="M15.818 20.836c2.652 0 4.801-2.132 4.801-4.762s-2.15-4.762-4.801-4.762-4.801 2.132-4.801 4.762 2.149 4.762 4.801 4.762zm0-1.905a2.87 2.87 0 0 0 2.881-2.857 2.87 2.87 0 0 0-2.881-2.857 2.87 2.87 0 0 0-2.881 2.857 2.87 2.87 0 0 0 2.881 2.857zm-9.603-3.239c0-3.2 0-4.801.628-6.023a5.74 5.74 0 0 1 2.518-2.497c1.232-.623 2.846-.623 6.072-.623h.768c3.227 0 4.84 0 6.072.623 1.084.548 1.965 1.422 2.518 2.497.628 1.222.628 2.823.628 6.023v.762c0 3.201 0 4.801-.628 6.023a5.74 5.74 0 0 1-2.518 2.497c-1.232.623-2.846.623-6.072.623h-.768c-3.227 0-4.84 0-6.072-.623a5.74 5.74 0 0 1-2.518-2.497c-.628-1.223-.628-2.823-.628-6.023v-.762zm9.218-7.239h.768l3.628.072c.842.068 1.273.192 1.573.344a3.82 3.82 0 0 1 1.678 1.665c.153.298.278.725.346 1.56.071.857.072 1.967.072 3.598v.762l-.072 3.598c-.069.835-.194 1.262-.346 1.56-.368.717-.956 1.3-1.678 1.665-.3.152-.731.276-1.573.344-.864.07-1.983.071-3.628.071h-.768c-1.645 0-2.763-.002-3.628-.071-.842-.068-1.273-.192-1.573-.344-.723-.365-1.31-.948-1.679-1.665-.153-.298-.278-.725-.347-1.56-.071-.857-.072-1.967-.072-3.598v-.762l.072-3.598c.069-.835.193-1.262.347-1.56a3.82 3.82 0 0 1 1.679-1.665c.3-.152.731-.275 1.573-.344.864-.07 1.983-.072 3.628-.072z"/></g></g></svg>