<svg xmlns="http://www.w3.org/2000/svg" width="32" height="32" fill="none" xmlns:v="https://vecta.io/nano"><rect x="2.648" y="2.738" width="26.886" height="26.668" rx="13.334" fill="#0a1727" fill-opacity=".4"/><path d="M12.844 10.065c0 .89-.778 1.612-1.737 1.612s-1.737-.722-1.737-1.612.778-1.612 1.737-1.612 1.737.722 1.737 1.612zm-3.237 2.796h2.97v8.926h-2.97v-8.926zm7.751 0h-2.97v8.926h2.97V17.22c0-1.054.363-2.114 1.811-2.114 1.637 0 1.627 1.38 1.62 2.449l.014 4.232h2.97v-4.711c-.025-3.008-.815-4.394-3.415-4.394-1.544 0-2.501.695-2.999 1.324v-1.145z" fill="#fff"/></svg>