<svg width="129" height="28" viewBox="0 0 129 28" fill="none" xmlns="http://www.w3.org/2000/svg">
<g clip-path="url(#clip0_130_1658)">
<path d="M36.8424 19.9196V7.54061H38.7877V19.9196H36.8424Z" fill="#0A1727"/>
<path d="M40.2445 19.9196V7.54061H42.685L44.5772 14.9503H44.6125V7.54061H46.3456V19.9196H44.3473L42.013 10.8829H41.9776V19.9196H40.2445Z" fill="#0A1727"/>
<path d="M50.3203 20.0964C48.4104 20.0964 47.4554 18.9646 47.4554 16.984V16.2766H49.2946V17.1255C49.2946 18.0097 49.6836 18.328 50.3026 18.328C50.9215 18.328 51.3106 18.0097 51.3106 17.0901C51.3106 16.0644 50.9215 15.4101 49.6483 14.296C48.0213 12.8636 47.4908 11.8556 47.4908 10.4408C47.4908 8.49556 48.4988 7.36377 50.391 7.36377C52.2832 7.36377 53.2205 8.49556 53.2205 10.4762V10.989H51.3813V10.3524C51.3813 9.46819 51.0276 9.13219 50.4087 9.13219C49.7897 9.13219 49.4361 9.46819 49.4361 10.317C49.4361 11.2189 49.8428 11.8732 51.116 12.9873C52.743 14.4198 53.2558 15.4101 53.2558 16.9486C53.2558 18.9646 52.2302 20.0964 50.3203 20.0964Z" fill="#0A1727"/>
<path d="M55.892 19.9196V9.30903H53.8583V7.54061H59.871V9.30903H57.8373V19.9196H55.892Z" fill="#0A1727"/>
<path d="M59.4883 19.9196L61.5043 7.54061H64.1392L66.1552 19.9196H64.21L63.8563 17.4615V17.4968H61.6458L61.2921 19.9196H59.4883ZM61.8756 15.8168H63.6264L62.7599 9.69809H62.7245L61.8756 15.8168Z" fill="#0A1727"/>
<path d="M67.6038 19.9196V7.54061H69.549V12.5806H71.6358V7.54061H73.581V19.9196H71.6358V14.349H69.549V19.9196H67.6038Z" fill="#0A1727"/>
<path d="M75.0297 19.9196V7.54061H80.335V9.30903H76.975V12.5806H79.6453V14.349H76.975V18.1511H80.335V19.9196H75.0297Z" fill="#0A1727"/>
<path d="M80.9412 19.9196L82.9572 7.54061H85.5922L87.6082 19.9196H85.6629L85.3092 17.4615V17.4968H83.0987L82.745 19.9196H80.9412ZM83.3286 15.8168H85.0793L84.2128 9.69809H84.1775L83.3286 15.8168Z" fill="#0A1727"/>
<path d="M88.5519 19.9196V7.54061H91.5229C93.4682 7.54061 94.4231 8.61935 94.4231 10.6V16.8602C94.4231 18.8408 93.4682 19.9196 91.5229 19.9196H88.5519ZM90.4972 18.1511H91.4875C92.1065 18.1511 92.4778 17.8328 92.4778 16.9486V10.5116C92.4778 9.62735 92.1065 9.30903 91.4875 9.30903H90.4972V18.1511Z" fill="#0A1727"/>
<path d="M98.265 20.0964C96.3551 20.0964 95.4002 18.9646 95.4002 16.984V16.2766H97.2393V17.1255C97.2393 18.0097 97.6284 18.328 98.2473 18.328C98.8663 18.328 99.2553 18.0097 99.2553 17.0901C99.2553 16.0644 98.8663 15.4101 97.593 14.296C95.966 12.8636 95.4355 11.8556 95.4355 10.4408C95.4355 8.49556 96.4435 7.36377 98.3357 7.36377C100.228 7.36377 101.165 8.49556 101.165 10.4762V10.989H99.3261V10.3524C99.3261 9.46819 98.9724 9.13219 98.3534 9.13219C97.7345 9.13219 97.3808 9.46819 97.3808 10.317C97.3808 11.2189 97.7875 11.8732 99.0608 12.9873C100.688 14.4198 101.201 15.4101 101.201 16.9486C101.201 18.9646 100.175 20.0964 98.265 20.0964Z" fill="#0A1727"/>
<path d="M102.316 19.9196V7.54061H104.261V12.5806H106.348V7.54061H108.293V19.9196H106.348V14.349H104.261V19.9196H102.316Z" fill="#0A1727"/>
<path d="M112.554 20.0964C110.644 20.0964 109.6 18.9646 109.6 16.984V10.4762C109.6 8.49556 110.644 7.36377 112.554 7.36377C114.464 7.36377 115.507 8.49556 115.507 10.4762V16.984C115.507 18.9646 114.464 20.0964 112.554 20.0964ZM112.554 18.328C113.173 18.328 113.562 17.992 113.562 17.1078V10.3524C113.562 9.46819 113.173 9.13219 112.554 9.13219C111.935 9.13219 111.546 9.46819 111.546 10.3524V17.1078C111.546 17.992 111.935 18.328 112.554 18.328Z" fill="#0A1727"/>
<path d="M118.274 19.9196V9.30903H116.241V7.54061H122.253V9.30903H120.22V19.9196H118.274Z" fill="#0A1727"/>
<path d="M125.724 20.0964C123.814 20.0964 122.859 18.9646 122.859 16.984V16.2766H124.698V17.1255C124.698 18.0097 125.087 18.328 125.706 18.328C126.325 18.328 126.714 18.0097 126.714 17.0901C126.714 16.0644 126.325 15.4101 125.052 14.296C123.425 12.8636 122.894 11.8556 122.894 10.4408C122.894 8.49556 123.902 7.36377 125.795 7.36377C127.687 7.36377 128.624 8.49556 128.624 10.4762V10.989H126.785V10.3524C126.785 9.46819 126.431 9.13219 125.812 9.13219C125.193 9.13219 124.84 9.46819 124.84 10.317C124.84 11.2189 125.246 11.8732 126.52 12.9873C128.147 14.4198 128.659 15.4101 128.659 16.9486C128.659 18.9646 127.634 20.0964 125.724 20.0964Z" fill="#0A1727"/>
<path d="M24.0604 0H3.9396C1.76382 0 0 1.76382 0 3.9396V24.0604C0 26.2362 1.76382 28 3.9396 28H24.0604C26.2362 28 28 26.2362 28 24.0604V3.9396C28 1.76382 26.2362 0 24.0604 0Z" fill="url(#paint0_linear_130_1658)"/>
<path d="M19.1584 10.0279C19.2267 9.9514 19.3145 9.91699 19.4147 9.91904C19.6001 9.92315 19.7116 9.83429 19.7753 9.66323C19.8076 9.57539 19.8415 9.46855 19.9597 9.46495C20.0897 9.46084 20.1251 9.57642 20.1595 9.66888C20.2242 9.84199 20.3378 9.92469 20.5237 9.91545C20.6223 9.91031 20.7225 9.92777 20.7646 10.0346C20.8052 10.1374 20.7405 10.2124 20.666 10.2632C20.477 10.3927 20.4523 10.5668 20.5134 10.7661C20.5412 10.8575 20.5273 10.9289 20.4497 10.9865C20.3722 11.044 20.2982 11.0096 20.2371 10.9639C20.0542 10.8277 19.8785 10.8288 19.6951 10.9628C19.6268 11.0132 19.5472 11.045 19.4671 10.9757C19.3936 10.9125 19.3957 10.839 19.4172 10.7491C19.4922 10.4363 19.464 10.3829 19.1578 10.1815V10.0274L19.1584 10.0279Z" fill="url(#paint1_linear_130_1658)"/>
<path d="M21.3522 8.12061C21.3655 8.05126 21.3768 7.93568 21.4107 7.82678C21.4703 7.63621 21.4169 7.49084 21.2684 7.36601C21.1852 7.29615 21.1118 7.21499 21.0347 7.13743C20.9582 7.06037 20.9089 6.97151 20.9484 6.86055C20.9859 6.75422 21.0722 6.68025 21.1791 6.68385C21.6337 6.70029 21.8926 6.47992 22.0431 6.06076C22.1253 5.83217 22.3811 5.83987 22.5054 6.05202C22.5603 6.14551 22.6148 6.24208 22.6508 6.34431C22.7263 6.55902 22.8855 6.63145 23.0951 6.64019C23.184 6.64378 23.2723 6.66484 23.3612 6.67152C23.4845 6.68077 23.5646 6.74754 23.6083 6.85593C23.6555 6.97408 23.6062 7.07989 23.5148 7.14565C23.1665 7.39529 23.0422 7.70658 23.1963 8.12215C23.2379 8.23413 23.1983 8.35125 23.0884 8.42676C22.9852 8.49816 22.8835 8.48275 22.7823 8.42265C22.7766 8.41957 22.771 8.41597 22.7653 8.4134C22.2388 8.15246 22.3682 8.10109 21.7878 8.40981C21.5294 8.54747 21.3434 8.43652 21.3527 8.12061H21.3522Z" fill="url(#paint2_linear_130_1658)"/>
<path d="M13.9977 23.8329C12.2615 23.8329 10.5252 23.8285 8.78892 23.8383C8.55305 23.8401 8.49566 23.7746 8.49924 23.5423C8.5127 22.4786 8.50552 21.4139 8.50463 20.3492C8.50463 20.2712 8.50463 20.1923 8.50283 20.1143C8.49745 19.9402 8.40866 19.8344 8.23199 19.8443C8.07235 19.8523 7.99881 19.9609 7.99791 20.1178C7.99791 20.1959 7.99702 20.2748 7.99702 20.3528C7.99702 21.4283 7.99164 22.5037 8.0015 23.5791C8.00329 23.7854 7.95128 23.8473 7.74231 23.8428C7.10377 23.8294 6.46522 23.8312 5.82667 23.8428C5.64013 23.8464 5.58273 23.798 5.58363 23.6051C5.5908 21.779 5.5908 19.9528 5.58363 18.1275C5.58363 17.9553 5.63475 17.8755 5.79797 17.8118C7.24457 17.2521 8.68848 16.6853 10.1297 16.1103C10.3109 16.0377 10.3934 16.0637 10.4875 16.2395C11.0857 17.3517 11.6956 18.4567 12.3027 19.5635C12.5207 19.9609 12.6274 19.977 12.9493 19.6604C13.2534 19.3617 13.5583 19.0657 13.8534 18.759C13.9628 18.6451 14.0345 18.637 14.1502 18.7527C14.404 19.0056 14.6722 19.2442 14.9349 19.4873C15.2363 19.7662 15.3403 19.7555 15.5529 19.4066C16.1932 18.3572 16.8344 17.3077 17.4676 16.2529C17.5672 16.087 17.6434 16.0206 17.8532 16.1049C19.2828 16.679 20.7168 17.2396 22.1536 17.7957C22.3365 17.8665 22.4047 17.9535 22.4038 18.1571C22.3948 19.9609 22.3948 21.7646 22.4038 23.5684C22.4047 23.7845 22.3545 23.8518 22.1312 23.8455C21.5159 23.8294 20.8989 23.8294 20.2837 23.8455C20.0514 23.8518 19.9814 23.7917 19.9859 23.5522C20.0012 22.7351 19.9922 21.9171 19.9922 21.0991C19.9922 20.8524 20.0003 20.6058 19.9895 20.36C19.9805 20.1537 20.0792 19.8434 19.7303 19.8532C19.3904 19.8631 19.4873 20.1726 19.4864 20.378C19.4792 21.4193 19.4702 22.4615 19.4909 23.5029C19.4963 23.7944 19.4084 23.8428 19.1393 23.841C17.4255 23.8285 15.7116 23.8347 13.9977 23.8347V23.8329Z" fill="url(#paint3_linear_130_1658)"/>
<path d="M12.7081 19.2345C12.0795 18.0873 11.4974 17.019 10.9064 15.9553C10.8257 15.8108 10.8391 15.7328 10.9611 15.6171C11.4194 15.1839 11.414 15.1785 11.7772 15.6727C12.3593 16.4665 12.9368 17.263 13.5252 18.0514C13.6319 18.194 13.6346 18.2765 13.5018 18.4039C13.2364 18.6586 12.9924 18.934 12.7081 19.2336V19.2345Z" fill="url(#paint4_linear_130_1658)"/>
<path d="M15.1566 18.9837C15.0507 18.8868 14.944 18.7882 14.8373 18.6904C14.5043 18.3836 14.4729 18.0458 14.7431 17.6769C15.2911 16.9288 15.8426 16.1844 16.3816 15.4309C16.509 15.2533 16.5861 15.1932 16.7736 15.3744C17.1673 15.7547 17.1771 15.7431 16.8892 16.2175C16.3682 17.0759 15.8489 17.9352 15.3252 18.7918C15.2821 18.8617 15.2642 18.9604 15.1566 18.9855V18.9837Z" fill="url(#paint5_linear_130_1658)"/>
<path d="M18.0996 9.51457C17.9911 10.955 17.4934 12.5301 16.4244 13.8988C16.2235 14.1562 15.9894 14.3804 15.7284 14.5778C14.6585 15.3859 13.4011 15.376 12.359 14.5302C11.3554 13.7158 10.8128 12.6045 10.4335 11.4053C10.1079 10.3738 9.88821 9.32711 10.1591 8.23823C10.6487 6.27394 12.5375 4.94378 14.5123 5.18057C16.584 5.42903 18.1221 7.16998 18.0987 9.51457H18.0996Z" fill="url(#paint6_linear_130_1658)"/>
</g>
<defs>
<linearGradient id="paint0_linear_130_1658" x1="9.23305e-08" y1="14.1443" x2="27.5344" y2="12.8462" gradientUnits="userSpaceOnUse">
<stop stop-color="#2295FF"/>
<stop offset="1" stop-color="#274AFF"/>
</linearGradient>
<linearGradient id="paint1_linear_130_1658" x1="19.9675" y1="9.46484" x2="19.9675" y2="11.0167" gradientUnits="userSpaceOnUse">
<stop stop-color="white"/>
<stop offset="1" stop-color="white" stop-opacity="0.32"/>
</linearGradient>
<linearGradient id="paint2_linear_130_1658" x1="22.2805" y1="5.89111" x2="22.2805" y2="8.47429" gradientUnits="userSpaceOnUse">
<stop stop-color="white"/>
<stop offset="1" stop-color="white" stop-opacity="0.32"/>
</linearGradient>
<linearGradient id="paint3_linear_130_1658" x1="13.9937" y1="16.0684" x2="13.9937" y2="23.8459" gradientUnits="userSpaceOnUse">
<stop stop-color="white"/>
<stop offset="1" stop-color="white" stop-opacity="0"/>
</linearGradient>
<linearGradient id="paint4_linear_130_1658" x1="12.2295" y1="15.2969" x2="12.2295" y2="19.2345" gradientUnits="userSpaceOnUse">
<stop stop-color="white" stop-opacity="0.72"/>
<stop offset="1" stop-color="white"/>
</linearGradient>
<linearGradient id="paint5_linear_130_1658" x1="15.8253" y1="15.2646" x2="15.8253" y2="18.9855" gradientUnits="userSpaceOnUse">
<stop stop-color="white" stop-opacity="0.7"/>
<stop offset="1" stop-color="white"/>
</linearGradient>
<linearGradient id="paint6_linear_130_1658" x1="14.0684" y1="5.15332" x2="14.0684" y2="15.1744" gradientUnits="userSpaceOnUse">
<stop stop-color="#FDFDFD"/>
<stop offset="1" stop-color="#FDFDFD" stop-opacity="0.37"/>
</linearGradient>
<clipPath id="clip0_130_1658">
<rect width="129" height="28" fill="white"/>
</clipPath>
</defs>
</svg>
