<svg xmlns="http://www.w3.org/2000/svg" width="31" height="32" fill="#0a1727" xmlns:v="https://vecta.io/nano"><path d="M8.296 19.685c.15-1.232.66-1.922 1.62-2.63 1.374-.958 3.09-.416 3.09-.416v-3.215a7.44 7.44 0 0 1 1.247.073v4.137s-1.716-.542-3.09.417c-.96.707-1.47 1.397-1.62 2.63-.005.669.122 1.544.705 2.3l-.441-.251c-1.284-.855-1.518-2.139-1.512-3.046zM21.34 7.481c-.945-1.027-1.303-2.065-1.432-2.793h1.189s-.237 1.91 1.491 3.789l.024.025c-.466-.291-.893-.633-1.272-1.021zm5.728 2.912v4.054s-1.517-.059-2.64-.342c-1.568-.396-2.575-1.004-2.575-1.004l-.752-.464v8.371a8.06 8.06 0 0 1-.521 2.601c-.512 1.27-1.303 2.104-1.448 2.274 0 0-.961 1.127-2.657 1.886-1.529.685-2.871.667-3.272.685 0 0-2.32.091-4.408-1.255a8.75 8.75 0 0 1-1.259-1.003l.01.007c2.088 1.346 4.408 1.255 4.408 1.255.402-.017 1.744 0 3.272-.685 1.694-.759 2.657-1.886 2.657-1.886.144-.17.938-1.004 1.448-2.274.391-.97.521-2.135.521-2.601v-8.37c.056.031.752.464.752.464s1.008.608 2.576 1.004c1.123.283 2.64.342 2.64.342v-3.177c.519.115.961.147 1.248.118z" fill-opacity=".4"/><path d="M25.82 10.275v3.175s-1.517-.059-2.64-.342c-1.568-.396-2.576-1.004-2.576-1.004l-.752-.464v8.372c0 .466-.129 1.631-.521 2.601-.512 1.271-1.303 2.104-1.448 2.274 0 0-.962 1.127-2.657 1.886-1.528.685-2.87.667-3.272.685 0 0-2.32.091-4.408-1.255l-.01-.007c-.22-.212-.428-.435-.622-.67a7.93 7.93 0 0 1-1.178-2.031c-.165-.476-.512-1.611-.465-2.71.084-1.939.772-3.129.953-3.428a8.17 8.17 0 0 1 1.851-2.15 7.8 7.8 0 0 1 2.2-1.238 7.71 7.71 0 0 1 2.73-.545v3.215s-1.716-.54-3.09.416c-.96.707-1.47 1.397-1.62 2.63-.006.907.228 2.19 1.511 3.046l.441.251a3.36 3.36 0 0 0 .808.745c1.254.787 2.304.842 3.647.331.896-.342 1.57-1.112 1.882-1.965.197-.533.194-1.069.194-1.624V4.688h3.126c.129.729.487 1.766 1.432 2.793a6.8 6.8 0 0 0 1.272 1.021c.138.141.841.839 1.744 1.268a7.04 7.04 0 0 0 1.467.506zM4.492 22.508v.003l.078.209-.078-.211z" fill-opacity=".4"/><path d="M10.276 13.97a7.83 7.83 0 0 0-2.2 1.238c-.744.611-1.37 1.34-1.851 2.155-.182.297-.87 1.488-.953 3.428-.047 1.099.3 2.234.465 2.706a7.98 7.98 0 0 0 1.178 2.034 7.95 7.95 0 0 0 .622.67 8.55 8.55 0 0 1-1.869-1.666c-.661-.799-1.068-1.742-1.174-2.02v-.009c-.166-.472-.514-1.607-.465-2.708.084-1.939.772-3.129.953-3.428.481-.815 1.107-1.544 1.851-2.155a7.8 7.8 0 0 1 2.2-1.238 7.83 7.83 0 0 1 1.552-.433c.802-.133 1.621-.145 2.426-.034v.916a7.71 7.71 0 0 0-2.733.545zm9.632-9.282h-3.126V20.47c0 .555 0 1.09-.194 1.624-.316.853-.987 1.623-1.883 1.965-1.344.513-2.394.456-3.647-.331a3.36 3.36 0 0 1-.81-.743c1.068.541 2.023.532 3.207.08.895-.342 1.567-1.112 1.882-1.965.197-.533.194-1.069.194-1.624V3.691h4.317s-.048.392.059.997zm5.912 4.71v.878a7.04 7.04 0 0 1-1.464-.506 6.61 6.61 0 0 1-1.744-1.268c.16.1.325.19.496.271 1.098.521 2.179.677 2.712.624z" fill-opacity=".4"/></svg>