<svg width="32" height="32" viewBox="0 0 32 32" fill="none" xmlns="http://www.w3.org/2000/svg">
<path d="M4 8H28" stroke="#0a1727" stroke-width="2" stroke-linecap="round" stroke-linejoin="round"/>
<path d="M25.3337 8V26.6667C25.3337 28 24.0003 29.3333 22.667 29.3333H9.33366C8.00033 29.3333 6.66699 28 6.66699 26.6667V8" stroke="#0a1727" stroke-width="2" stroke-linecap="round" stroke-linejoin="round"/>
<path d="M10.667 8.0013V5.33464C10.667 4.0013 12.0003 2.66797 13.3337 2.66797H18.667C20.0003 2.66797 21.3337 4.0013 21.3337 5.33464V8.0013" stroke="#0a1727" stroke-width="2" stroke-linecap="round" stroke-linejoin="round"/>
<path d="M12.6499 22.1795C12.1364 22.1795 11.681 22.0917 11.2838 21.9161C10.8888 21.7383 10.5772 21.4936 10.3489 21.1819C10.1207 20.8702 10.0044 20.5113 10 20.1052H11.6393C11.6459 20.2523 11.6931 20.3829 11.7809 20.497C11.8686 20.609 11.9882 20.6968 12.1397 20.7604C12.2911 20.8241 12.4634 20.8559 12.6565 20.8559C12.8496 20.8559 13.0197 20.8219 13.1667 20.7538C13.3159 20.6836 13.4323 20.5881 13.5156 20.4674C13.599 20.3445 13.6396 20.204 13.6374 20.0459C13.6396 19.8879 13.5946 19.7474 13.5025 19.6245C13.4103 19.5016 13.2797 19.4061 13.1108 19.338C12.944 19.27 12.7465 19.236 12.5182 19.236H11.8632V18.077H12.5182C12.7179 18.077 12.8935 18.0441 13.0449 17.9782C13.1985 17.9123 13.3181 17.8202 13.4037 17.7016C13.4893 17.5809 13.531 17.4426 13.5288 17.2868C13.531 17.1353 13.4948 17.0025 13.4202 16.8884C13.3478 16.772 13.2457 16.682 13.114 16.6184C12.9846 16.5547 12.8342 16.5229 12.6631 16.5229C12.4831 16.5229 12.3196 16.5547 12.1726 16.6184C12.0278 16.682 11.9125 16.772 11.827 16.8884C11.7414 17.0047 11.6964 17.1397 11.692 17.2933H10.135C10.1394 16.8917 10.2513 16.5382 10.4707 16.2331C10.6902 15.9258 10.9886 15.6855 11.3661 15.5121C11.7458 15.3387 12.1781 15.252 12.6631 15.252C13.1459 15.252 13.5705 15.3365 13.937 15.5055C14.3035 15.6745 14.5888 15.905 14.7929 16.1969C14.997 16.4867 15.099 16.8148 15.099 17.1814C15.1012 17.5611 14.9772 17.8739 14.727 18.1198C14.479 18.3656 14.1597 18.5171 13.7691 18.5742V18.6268C14.2914 18.6883 14.6853 18.8573 14.9509 19.1339C15.2186 19.4105 15.3514 19.7562 15.3492 20.1711C15.3492 20.5618 15.234 20.9086 15.0035 21.2115C14.7753 21.5122 14.4571 21.7493 14.0489 21.9227C13.6429 22.0939 13.1766 22.1795 12.6499 22.1795Z" fill="#0a1727"/>
<path d="M19.1493 22.252C18.5611 22.252 18.0542 22.1126 17.6285 21.8338C17.2027 21.5528 16.8746 21.15 16.6442 20.6254C16.4138 20.0986 16.2997 19.4653 16.3019 18.7256C16.3041 17.9859 16.4193 17.3581 16.6475 16.8423C16.8779 16.3242 17.2049 15.9302 17.6285 15.6602C18.0542 15.388 18.5611 15.252 19.1493 15.252C19.7374 15.252 20.2443 15.388 20.6701 15.6602C21.098 15.9302 21.4272 16.3242 21.6576 16.8423C21.888 17.3603 22.0022 17.9881 22 18.7256C22 19.4675 21.8848 20.1019 21.6543 20.6287C21.4239 21.1555 21.0958 21.5583 20.6701 21.8371C20.2465 22.1137 19.7396 22.252 19.1493 22.252ZM19.1493 20.9185C19.5004 20.9185 19.7846 20.7396 20.0018 20.3818C20.2191 20.0218 20.3266 19.4697 20.3244 18.7256C20.3244 18.2383 20.2751 17.8366 20.1763 17.5205C20.0776 17.2023 19.9404 16.9652 19.7648 16.8093C19.5893 16.6535 19.3841 16.5756 19.1493 16.5756C18.8003 16.5756 18.5183 16.7523 18.3033 17.1057C18.0882 17.4569 17.9796 17.9969 17.9774 18.7256C17.9752 19.2195 18.0224 19.6289 18.1189 19.9537C18.2177 20.2786 18.3559 20.5212 18.5337 20.6814C18.7115 20.8394 18.9166 20.9185 19.1493 20.9185Z" fill="#0a1727"/>
</svg>
