<svg width="32" height="32" viewBox="0 0 32 32" fill="none" xmlns="http://www.w3.org/2000/svg">
<path d="M28.0003 22.668H20.0003C19.2639 22.668 18.667 23.2649 18.667 24.0013V28.0013C18.667 28.7377 19.2639 29.3346 20.0003 29.3346H28.0003C28.7367 29.3346 29.3337 28.7377 29.3337 28.0013V24.0013C29.3337 23.2649 28.7367 22.668 28.0003 22.668Z" stroke="#0a1727" stroke-width="2" stroke-linecap="round" stroke-linejoin="round"/>
<path d="M13.3337 26.6668H5.33366C4.62641 26.6668 3.94814 26.3858 3.44804 25.8857C2.94794 25.3856 2.66699 24.7074 2.66699 24.0001V6.66679C2.66699 5.95955 2.94794 5.28127 3.44804 4.78118C3.94814 4.28108 4.62641 4.00013 5.33366 4.00013H10.5337C10.9796 3.99576 11.4196 4.10331 11.8133 4.31295C12.2069 4.5226 12.5417 4.82763 12.787 5.20013L13.867 6.80013C14.1098 7.16883 14.4404 7.47149 14.829 7.68093C15.2176 7.89038 15.6522 8.00006 16.0937 8.00013H26.667C27.3742 8.00013 28.0525 8.28108 28.5526 8.78118C29.0527 9.28127 29.3337 9.95955 29.3337 10.6668V14.0001" stroke="#0a1727" stroke-width="2" stroke-linecap="round" stroke-linejoin="round"/>
<path d="M26.6663 22.6654V19.9987C26.6663 19.2915 26.3854 18.6132 25.8853 18.1131C25.3852 17.613 24.7069 17.332 23.9997 17.332C23.2924 17.332 22.6142 17.613 22.1141 18.1131C21.614 18.6132 21.333 19.2915 21.333 19.9987V22.6654" stroke="#0a1727" stroke-width="2" stroke-linecap="round" stroke-linejoin="round"/>
</svg>
