<svg width="32" height="32" viewBox="0 0 32 32" fill="none" xmlns="http://www.w3.org/2000/svg">
<path d="M20.9145 20.0013C20.173 23.5078 18.4715 26.7392 15.9998 29.3346C12.5761 25.7398 10.6665 20.9656 10.6665 16.0013C10.6665 11.037 12.5761 6.26284 15.9998 2.66797C13.5356 2.66861 11.1198 3.35212 9.02057 4.64261C6.92134 5.9331 5.22079 7.7801 4.1077 9.97855C2.99462 12.177 2.51255 14.6409 2.71501 17.0968C2.91746 19.5526 3.79653 21.9043 5.25461 23.8908C6.7127 25.8773 8.69276 27.4209 10.975 28.3502C13.2572 29.2795 15.7523 29.5581 18.1834 29.1552C20.6144 28.7523 22.8862 27.6836 24.7466 26.0677C26.607 24.4518 27.9832 22.352 28.7225 20.0013" stroke="#0a1727" stroke-width="2" stroke-linecap="round" stroke-linejoin="round"/>
<path d="M2.66699 16H14.0003" stroke="#0a1727" stroke-width="2" stroke-linecap="round" stroke-linejoin="round"/>
<path d="M26.6663 8.0013V5.33464C26.6663 4.62739 26.3854 3.94911 25.8853 3.44902C25.3852 2.94892 24.7069 2.66797 23.9997 2.66797C23.2924 2.66797 22.6142 2.94892 22.1141 3.44902C21.614 3.94911 21.333 4.62739 21.333 5.33464V8.0013" stroke="#0a1727" stroke-width="2" stroke-linecap="round" stroke-linejoin="round"/>
<path d="M28.0003 8H20.0003C19.2639 8 18.667 8.59695 18.667 9.33333V13.3333C18.667 14.0697 19.2639 14.6667 20.0003 14.6667H28.0003C28.7367 14.6667 29.3337 14.0697 29.3337 13.3333V9.33333C29.3337 8.59695 28.7367 8 28.0003 8Z" stroke="#0a1727" stroke-width="2" stroke-linecap="round" stroke-linejoin="round"/>
</svg>
